<svg xmlns="http://www.w3.org/2000/svg" xmlns:xlink="http://www.w3.org/1999/xlink" viewBox="0 0 114.54 152.64"><defs><style>.cls-1{fill:none;}.cls-2{isolation:isolate;}.cls-3{clip-path:url(#clip-path);}.cls-4{fill:url(#Áåçûìÿííûé_ãðàäèåíò_221);}.cls-29,.cls-5{fill:#e3caeb;}.cls-12,.cls-28,.cls-5{mix-blend-mode:multiply;}.cls-6{fill:#6b1900;}.cls-7{fill:url(#Áåçûìÿííûé_ãðàäèåíò_132);}.cls-8{fill:url(#Áåçûìÿííûé_ãðàäèåíò_316);}.cls-9{fill:url(#Áåçûìÿííûé_ãðàäèåíò_316-2);}.cls-10,.cls-17,.cls-20,.cls-24,.cls-27,.cls-39,.cls-40,.cls-42,.cls-43,.cls-45,.cls-46,.cls-48,.cls-49,.cls-51,.cls-52,.cls-55,.cls-57,.cls-59,.cls-61,.cls-63,.cls-65{mix-blend-mode:screen;}.cls-10{fill:url(#Áåçûìÿííûé_ãðàäèåíò_36);}.cls-11{fill:url(#Áåçûìÿííûé_ãðàäèåíò_6);}.cls-12{fill:#e8c6ae;}.cls-13{fill:#ca6310;}.cls-14{fill:url(#Áåçûìÿííûé_ãðàäèåíò_132-2);}.cls-15{fill:url(#Áåçûìÿííûé_ãðàäèåíò_132-3);}.cls-16{fill:url(#Áåçûìÿííûé_ãðàäèåíò_132-4);}.cls-17{fill:url(#Áåçûìÿííûé_ãðàäèåíò_130);}.cls-18{fill:url(#Áåçûìÿííûé_ãðàäèåíò_132-5);}.cls-19{fill:url(#Áåçûìÿííûé_ãðàäèåíò_132-6);}.cls-20{fill:url(#Áåçûìÿííûé_ãðàäèåíò_130-2);}.cls-21{fill:url(#Áåçûìÿííûé_ãðàäèåíò_132-7);}.cls-22{fill:url(#Áåçûìÿííûé_ãðàäèåíò_6-2);}.cls-23{fill:url(#Áåçûìÿííûé_ãðàäèåíò_132-8);}.cls-24{fill:url(#Áåçûìÿííûé_ãðàäèåíò_130-3);}.cls-25{fill:url(#Áåçûìÿííûé_ãðàäèåíò_132-9);}.cls-26{fill:url(#Áåçûìÿííûé_ãðàäèåíò_132-10);}.cls-27{fill:url(#Áåçûìÿííûé_ãðàäèåíò_130-4);}.cls-30{fill:url(#Áåçûìÿííûé_ãðàäèåíò_132-11);}.cls-31{fill:url(#Áåçûìÿííûé_ãðàäèåíò_132-12);}.cls-32{fill:url(#Áåçûìÿííûé_ãðàäèåíò_132-13);}.cls-33{fill:url(#Áåçûìÿííûé_ãðàäèåíò_132-14);}.cls-34{fill:url(#Áåçûìÿííûé_ãðàäèåíò_132-15);}.cls-35{fill:url(#Áåçûìÿííûé_ãðàäèåíò_132-16);}.cls-36{fill:url(#Áåçûìÿííûé_ãðàäèåíò_132-17);}.cls-37{fill:url(#Áåçûìÿííûé_ãðàäèåíò_808);}.cls-38{fill:#e38030;}.cls-39{fill:url(#Áåçûìÿííûé_ãðàäèåíò_130-5);}.cls-40{fill:url(#Áåçûìÿííûé_ãðàäèåíò_130-6);}.cls-41{fill:url(#Áåçûìÿííûé_ãðàäèåíò_808-2);}.cls-42{fill:url(#Áåçûìÿííûé_ãðàäèåíò_130-7);}.cls-43{fill:url(#Áåçûìÿííûé_ãðàäèåíò_130-8);}.cls-44{fill:url(#Áåçûìÿííûé_ãðàäèåíò_808-3);}.cls-45{fill:url(#Áåçûìÿííûé_ãðàäèåíò_130-9);}.cls-46{fill:url(#Áåçûìÿííûé_ãðàäèåíò_130-10);}.cls-47{fill:url(#Áåçûìÿííûé_ãðàäèåíò_808-4);}.cls-48{fill:url(#Áåçûìÿííûé_ãðàäèåíò_130-11);}.cls-49{fill:url(#Áåçûìÿííûé_ãðàäèåíò_130-12);}.cls-50{fill:url(#Áåçûìÿííûé_ãðàäèåíò_808-5);}.cls-51{fill:url(#Áåçûìÿííûé_ãðàäèåíò_130-13);}.cls-52{fill:url(#Áåçûìÿííûé_ãðàäèåíò_130-14);}.cls-53{fill:url(#Áåçûìÿííûé_ãðàäèåíò_132-18);}.cls-54{fill:url(#Áåçûìÿííûé_ãðàäèåíò_808-6);}.cls-55{fill:url(#Áåçûìÿííûé_ãðàäèåíò_130-15);}.cls-56{fill:url(#Áåçûìÿííûé_ãðàäèåíò_808-7);}.cls-57{fill:url(#Áåçûìÿííûé_ãðàäèåíò_130-16);}.cls-58{fill:url(#Áåçûìÿííûé_ãðàäèåíò_808-8);}.cls-59{fill:url(#Áåçûìÿííûé_ãðàäèåíò_130-17);}.cls-60{fill:url(#Áåçûìÿííûé_ãðàäèåíò_808-9);}.cls-61{fill:url(#Áåçûìÿííûé_ãðàäèåíò_130-18);}.cls-62{fill:url(#Áåçûìÿííûé_ãðàäèåíò_808-10);}.cls-63{fill:url(#Áåçûìÿííûé_ãðàäèåíò_130-19);}.cls-64{fill:url(#Áåçûìÿííûé_ãðàäèåíò_808-11);}.cls-65{fill:url(#Áåçûìÿííûé_ãðàäèåíò_130-20);}</style><clipPath id="clip-path" transform="translate(0.81)"><rect class="cls-1" x="-989.78" y="-234.49" width="1800" height="900"/></clipPath><linearGradient id="Áåçûìÿííûé_ãðàäèåíò_221" x1="86.15" y1="100.67" x2="113.72" y2="100.67" gradientUnits="userSpaceOnUse"><stop offset="0" stop-color="#5ad2ce"/><stop offset="0.05" stop-color="#53c4ca"/><stop offset="0.15" stop-color="#41a0bf"/><stop offset="0.29" stop-color="#2465ae"/><stop offset="0.29" stop-color="#2363ad"/><stop offset="0.37" stop-color="#3383b6"/><stop offset="0.54" stop-color="#5ad2ce"/><stop offset="0.62" stop-color="#58cdcc"/><stop offset="0.72" stop-color="#52bfc6"/><stop offset="0.82" stop-color="#49a8bd"/><stop offset="0.93" stop-color="#3b88af"/><stop offset="1" stop-color="#316fa5"/></linearGradient><linearGradient id="Áåçûìÿííûé_ãðàäèåíò_132" x1="35.88" y1="1.96" x2="57.8" y2="1.96" gradientUnits="userSpaceOnUse"><stop offset="0.14" stop-color="#ffdc8b"/><stop offset="0.97" stop-color="#eba511"/></linearGradient><radialGradient id="Áåçûìÿííûé_ãðàäèåíò_316" cx="29.16" cy="25.95" r="71.53" gradientUnits="userSpaceOnUse"><stop offset="0" stop-color="#5ad2ce"/><stop offset="1" stop-color="#2363ad"/></radialGradient><radialGradient id="Áåçûìÿííûé_ãðàäèåíò_316-2" cx="27.36" cy="26.4" r="81.83" xlink:href="#Áåçûìÿííûé_ãðàäèåíò_316"/><linearGradient id="Áåçûìÿííûé_ãðàäèåíò_36" x1="6.63" y1="-28.4" x2="40.07" y2="90.93" gradientUnits="userSpaceOnUse"><stop offset="0" stop-color="#8da87e"/><stop offset="0.12" stop-color="#839d75"/><stop offset="0.33" stop-color="#6a7e5f"/><stop offset="0.62" stop-color="#404d3a"/><stop offset="0.96" stop-color="#080907"/><stop offset="1"/></linearGradient><linearGradient id="Áåçûìÿííûé_ãðàäèåíò_6" x1="26.85" y1="108.85" x2="68.11" y2="108.85" gradientUnits="userSpaceOnUse"><stop offset="0" stop-color="#5ad2ce"/><stop offset="0.57" stop-color="#2363ad"/><stop offset="0.65" stop-color="#2567ae"/><stop offset="0.73" stop-color="#2b73b2"/><stop offset="0.82" stop-color="#3587b8"/><stop offset="0.9" stop-color="#43a3c0"/><stop offset="0.98" stop-color="#54c7cb"/><stop offset="1" stop-color="#5ad2ce"/></linearGradient><linearGradient id="Áåçûìÿííûé_ãðàäèåíò_132-2" x1="69.86" y1="100.98" x2="65.72" y2="100.98" xlink:href="#Áåçûìÿííûé_ãðàäèåíò_132"/><linearGradient id="Áåçûìÿííûé_ãðàäèåíò_132-3" x1="25.98" y1="100.88" x2="58.56" y2="100.88" xlink:href="#Áåçûìÿííûé_ãðàäèåíò_132"/><linearGradient id="Áåçûìÿííûé_ãðàäèåíò_132-4" x1="26.98" y1="106.1" x2="68.54" y2="106.1" xlink:href="#Áåçûìÿííûé_ãðàäèåíò_132"/><linearGradient id="Áåçûìÿííûé_ãðàäèåíò_130" x1="25.9" y1="100.96" x2="54.75" y2="100.4" gradientUnits="userSpaceOnUse"><stop offset="0" stop-color="#d7be74"/><stop offset="0.1" stop-color="#ccb46e"/><stop offset="0.27" stop-color="#af9b5e"/><stop offset="0.5" stop-color="#807145"/><stop offset="0.76" stop-color="#403822"/><stop offset="1"/></linearGradient><linearGradient id="Áåçûìÿííûé_ãðàäèåíò_132-5" x1="61.28" y1="117.27" x2="58.7" y2="117.27" xlink:href="#Áåçûìÿííûé_ãðàäèåíò_132"/><linearGradient id="Áåçûìÿííûé_ãðàäèåíò_132-6" x1="33.89" y1="117.17" x2="54.23" y2="117.17" xlink:href="#Áåçûìÿííûé_ãðàäèåíò_132"/><linearGradient id="Áåçûìÿííûé_ãðàäèåíò_130-2" x1="34.15" y1="117.14" x2="52.16" y2="116.78" xlink:href="#Áåçûìÿííûé_ãðàäèåíò_130"/><linearGradient id="Áåçûìÿííûé_ãðàäèåíò_132-7" x1="60.27" y1="139.65" x2="57.14" y2="139.65" xlink:href="#Áåçûìÿííûé_ãðàäèåíò_132"/><linearGradient id="Áåçûìÿííûé_ãðàäèåíò_6-2" x1="37.95" y1="145.98" x2="59.51" y2="145.98" xlink:href="#Áåçûìÿííûé_ãðàäèåíò_6"/><linearGradient id="Áåçûìÿííûé_ãðàäèåíò_132-8" x1="35.35" y1="139.65" x2="52.99" y2="139.65" xlink:href="#Áåçûìÿííûé_ãðàäèåíò_132"/><linearGradient id="Áåçûìÿííûé_ãðàäèåíò_130-3" x1="36.32" y1="139.4" x2="53.27" y2="139.4" xlink:href="#Áåçûìÿííûé_ãðàäèåíò_130"/><linearGradient id="Áåçûìÿííûé_ãðàäèåíò_132-9" x1="58.01" y1="151.72" x2="55.48" y2="151.72" xlink:href="#Áåçûìÿííûé_ãðàäèåíò_132"/><linearGradient id="Áåçûìÿííûé_ãðàäèåíò_132-10" x1="37.92" y1="151.72" x2="52.14" y2="151.72" xlink:href="#Áåçûìÿííûé_ãðàäèåíò_132"/><linearGradient id="Áåçûìÿííûé_ãðàäèåíò_130-4" x1="38.85" y1="151.47" x2="52.52" y2="151.47" xlink:href="#Áåçûìÿííûé_ãðàäèåíò_130"/><linearGradient id="Áåçûìÿííûé_ãðàäèåíò_132-11" x1="17.03" y1="14.71" x2="45.83" y2="69.88" xlink:href="#Áåçûìÿííûé_ãðàäèåíò_132"/><linearGradient id="Áåçûìÿííûé_ãðàäèåíò_132-12" x1="3.3" y1="12.26" x2="32.18" y2="67.57" xlink:href="#Áåçûìÿííûé_ãðàäèåíò_132"/><linearGradient id="Áåçûìÿííûé_ãðàäèåíò_132-13" x1="-512.13" y1="11.95" x2="-484.21" y2="65.41" gradientTransform="matrix(-1, 0, 0, 1, -421.33, 0)" xlink:href="#Áåçûìÿííûé_ãðàäèåíò_132"/><linearGradient id="Áåçûìÿííûé_ãðàäèåíò_132-14" x1="28.49" y1="8.73" x2="57.29" y2="63.89" xlink:href="#Áåçûìÿííûé_ãðàäèåíò_132"/><linearGradient id="Áåçûìÿííûé_ãðàäèåíò_132-15" x1="40.4" y1="2.51" x2="69.2" y2="57.68" xlink:href="#Áåçûìÿííûé_ãðàäèåíò_132"/><linearGradient id="Áåçûìÿííûé_ãðàäèåíò_132-16" x1="54.21" y1="-4.7" x2="83.01" y2="50.47" xlink:href="#Áåçûìÿííûé_ãðàäèåíò_132"/><linearGradient id="Áåçûìÿííûé_ãðàäèåíò_132-17" x1="24.04" y1="8.22" x2="71.02" y2="8.22" xlink:href="#Áåçûìÿííûé_ãðàäèåíò_132"/><linearGradient id="Áåçûìÿííûé_ãðàäèåíò_808" x1="8.42" y1="53.66" x2="12.69" y2="76.18" gradientUnits="userSpaceOnUse"><stop offset="0" stop-color="#ffdc8b"/><stop offset="0.97" stop-color="#eba511"/></linearGradient><linearGradient id="Áåçûìÿííûé_ãðàäèåíò_130-5" x1="14.3" y1="57.92" x2="-0.31" y2="62.19" xlink:href="#Áåçûìÿííûé_ãðàäèåíò_130"/><linearGradient id="Áåçûìÿííûé_ãðàäèåíò_130-6" x1="12.89" y1="60.82" x2="1.29" y2="69.78" xlink:href="#Áåçûìÿííûé_ãðàäèåíò_130"/><linearGradient id="Áåçûìÿííûé_ãðàäèåíò_808-2" x1="93.49" y1="94.97" x2="97.7" y2="117.14" gradientTransform="matrix(0.98, -0.14, 0, 1.02, -4.49, -30.58)" xlink:href="#Áåçûìÿííûé_ãðàäèåíò_808"/><linearGradient id="Áåçûìÿííûé_ãðàäèåíò_130-7" x1="98.91" y1="99.23" x2="85.61" y2="103.11" gradientTransform="matrix(0.98, -0.14, 0, 1.02, -4.49, -30.58)" xlink:href="#Áåçûìÿííûé_ãðàäèåíò_130"/><linearGradient id="Áåçûìÿííûé_ãðàäèåíò_130-8" x1="97.59" y1="102.25" x2="86.95" y2="110.47" gradientTransform="matrix(0.98, -0.14, 0, 1.02, -4.49, -30.58)" xlink:href="#Áåçûìÿííûé_ãðàäèåíò_130"/><linearGradient id="Áåçûìÿííûé_ãðàäèåíò_808-3" x1="26.98" y1="54.22" x2="31.38" y2="77.41" xlink:href="#Áåçûìÿííûé_ãðàäèåíò_808"/><linearGradient id="Áåçûìÿííûé_ãðàäèåíò_130-9" x1="34.44" y1="58.27" x2="15.34" y2="63.84" xlink:href="#Áåçûìÿííûé_ãðàäèåíò_130"/><linearGradient id="Áåçûìÿííûé_ãðàäèåíò_130-10" x1="32.82" y1="60.55" x2="17.64" y2="72.28" xlink:href="#Áåçûìÿííûé_ãðàäèåíò_130"/><linearGradient id="Áåçûìÿííûé_ãðàäèåíò_808-4" x1="70.38" y1="86.57" x2="74.75" y2="109.62" gradientTransform="matrix(1, -0.12, 0, 1, 0, -24.97)" xlink:href="#Áåçûìÿííûé_ãðàäèåíò_808"/><linearGradient id="Áåçûìÿííûé_ãðàäèåíò_130-11" x1="77.61" y1="90.63" x2="59.16" y2="96.02" gradientTransform="matrix(1, -0.12, 0, 1, 0, -24.97)" xlink:href="#Áåçûìÿííûé_ãðàäèåíò_130"/><linearGradient id="Áåçûìÿííûé_ãðàäèåíò_130-12" x1="76.03" y1="92.99" x2="61.35" y2="104.34" gradientTransform="matrix(1, -0.12, 0, 1, 0, -24.97)" xlink:href="#Áåçûìÿííûé_ãðàäèåíò_130"/><linearGradient id="Áåçûìÿííûé_ãðàäèåíò_808-5" x1="52.41" y1="73.38" x2="56.87" y2="96.91" gradientTransform="matrix(1, -0.06, 0.07, 1.03, -8.15, -18.97)" xlink:href="#Áåçûìÿííûé_ãðàäèåíò_808"/><linearGradient id="Áåçûìÿííûé_ãðàäèåíò_130-13" x1="60.74" y1="77.31" x2="39.18" y2="83.61" gradientTransform="matrix(1, -0.06, 0.07, 1.03, -8.15, -18.97)" xlink:href="#Áåçûìÿííûé_ãðàäèåíò_130"/><linearGradient id="Áåçûìÿííûé_ãðàäèåíò_130-14" x1="59" y1="79.24" x2="41.83" y2="92.51" gradientTransform="matrix(1, -0.06, 0.07, 1.03, -8.15, -18.97)" xlink:href="#Áåçûìÿííûé_ãðàäèåíò_130"/><linearGradient id="Áåçûìÿííûé_ãðàäèåíò_132-18" x1="0.63" y1="53.75" x2="95.6" y2="53.75" xlink:href="#Áåçûìÿííûé_ãðàäèåíò_132"/><linearGradient id="Áåçûìÿííûé_ãðàäèåíò_808-6" x1="14.81" y1="54.96" x2="18.67" y2="54.96" xlink:href="#Áåçûìÿííûé_ãðàäèåíò_808"/><linearGradient id="Áåçûìÿííûé_ãðàäèåíò_130-15" x1="15.92" y1="53.35" x2="17.37" y2="57.69" xlink:href="#Áåçûìÿííûé_ãðàäèåíò_130"/><linearGradient id="Áåçûìÿííûé_ãðàäèåíò_808-7" x1="58.72" y1="55.35" x2="62.32" y2="55.35" xlink:href="#Áåçûìÿííûé_ãðàäèåíò_808"/><linearGradient id="Áåçûìÿííûé_ãðàäèåíò_130-16" x1="59.76" y1="53.84" x2="61.11" y2="57.89" xlink:href="#Áåçûìÿííûé_ãðàäèåíò_130"/><linearGradient id="Áåçûìÿííûé_ãðàäèåíò_808-8" x1="-506.95" y1="148.95" x2="-503.35" y2="148.95" gradientTransform="matrix(-0.95, 0.32, 0.32, 0.95, -445.96, 72.11)" xlink:href="#Áåçûìÿííûé_ãðàäèåíò_808"/><linearGradient id="Áåçûìÿííûé_ãðàäèåíò_130-17" x1="-505.92" y1="147.44" x2="-504.57" y2="151.49" gradientTransform="matrix(-0.95, 0.32, 0.32, 0.95, -445.96, 72.11)" xlink:href="#Áåçûìÿííûé_ãðàäèåíò_130"/><linearGradient id="Áåçûìÿííûé_ãðàäèåíò_808-9" x1="-520.31" y1="152.4" x2="-517.31" y2="152.4" gradientTransform="matrix(-0.95, 0.32, 0.32, 0.95, -445.96, 72.11)" xlink:href="#Áåçûìÿííûé_ãðàäèåíò_808"/><linearGradient id="Áåçûìÿííûé_ãðàäèåíò_130-18" x1="-519.45" y1="151.15" x2="-518.33" y2="154.52" gradientTransform="matrix(-0.95, 0.32, 0.32, 0.95, -445.96, 72.11)" xlink:href="#Áåçûìÿííûé_ãðàäèåíò_130"/><linearGradient id="Áåçûìÿííûé_ãðàäèåíò_808-10" x1="0" y1="53.68" x2="3.34" y2="53.68" xlink:href="#Áåçûìÿííûé_ãðàäèåíò_808"/><linearGradient id="Áåçûìÿííûé_ãðàäèåíò_130-19" x1="0.96" y1="52.28" x2="2.21" y2="56.04" xlink:href="#Áåçûìÿííûé_ãðàäèåíò_130"/><linearGradient id="Áåçûìÿííûé_ãðàäèåíò_808-11" x1="35.96" y1="55.35" x2="39.69" y2="55.35" xlink:href="#Áåçûìÿííûé_ãðàäèåíò_808"/><linearGradient id="Áåçûìÿííûé_ãðàäèåíò_130-20" x1="37.04" y1="53.79" x2="38.43" y2="57.98" xlink:href="#Áåçûìÿííûé_ãðàäèåíò_130"/></defs><g class="cls-2"><g id="layer_1" data-name="layer 1"><g class="cls-3"><path class="cls-4" d="M112.83,102.71a7.36,7.36,0,0,1-4.93.51l-.63-.11a27,27,0,0,0-4.31-.63c-1.83,0-3.57.7-5.34,1.17a8.47,8.47,0,0,1-2,.34,4.79,4.79,0,0,1-3.32-.86l-.23-.19a6.45,6.45,0,0,0-.8-.67,3.25,3.25,0,0,0-2.78-.16,9,9,0,0,0-2.33,1.41c0-1.58,0-3.23-.06-4.82a12.36,12.36,0,0,1,4.36-1.35,4.43,4.43,0,0,1,2.7.76,2.91,2.91,0,0,1,1,1.14,2.31,2.31,0,0,0,.59,1,1.62,1.62,0,0,0,1.4,0l.62-.18a38.68,38.68,0,0,1,5.57-1.68,9.43,9.43,0,0,1,5,.2c.35.15.69.32,1,.5a18.19,18.19,0,0,0,2.17,1.07,6.92,6.92,0,0,0,3.15.38,4,4,0,0,1-3.16.74,12.31,12.31,0,0,1-2.69-.72l-.38-.12a7.51,7.51,0,0,0-3.43.07,9.17,9.17,0,0,1,3.6.81c.29.11.56.24.83.37A6.63,6.63,0,0,0,112.83,102.71Z" transform="translate(0.81)"/><path class="cls-5" d="M96.77,100.13a18,18,0,0,0-1.1,3.86,4.79,4.79,0,0,1-3.32-.86l-.23-.19a17.18,17.18,0,0,1,1.09-4.83,2.91,2.91,0,0,1,1,1.14,2.31,2.31,0,0,0,.59,1,1.62,1.62,0,0,0,1.4,0Z" transform="translate(0.81)"/><path class="cls-5" d="M112.83,102.71a7.36,7.36,0,0,1-4.93.51l-.63-.11c.11-.58.24-1.16.39-1.73.29.11.56.24.83.37A6.63,6.63,0,0,0,112.83,102.71Z" transform="translate(0.81)"/><path class="cls-5" d="M110.56,101.34a12.31,12.31,0,0,1-2.69-.72s0,0,0,0c.15-.48.33-1,.52-1.44a18.19,18.19,0,0,0,2.17,1.07,6.92,6.92,0,0,0,3.15.38A4,4,0,0,1,110.56,101.34Z" transform="translate(0.81)"/><path class="cls-6" d="M80.21,83.44a34.86,34.86,0,0,1,6.35,19.41,39.06,39.06,0,0,1-5,20.78,37,37,0,0,1-15.24,13.6c-5.92,3-12.39,4.64-18.69,4l.12-.78c6.14.6,12.5-1.09,18.3-4a36.18,36.18,0,0,0,14.82-13.3A38,38,0,0,0,85.66,103a33.83,33.83,0,0,0-6.21-18.78Z" transform="translate(0.81)"/><path class="cls-7" d="M47.62,0A47.4,47.4,0,0,1,57.8,1.11a26.35,26.35,0,0,1-18,2.09,10,10,0,0,1-3.95-1.72A46.86,46.86,0,0,1,47.62,0Z" transform="translate(0.81)"/><path class="cls-8" d="M57.8,1.11a46.17,46.17,0,0,1,10,3.4,78.56,78.56,0,0,1-32.61,2.9A22.39,22.39,0,0,1,26.55,5a46.24,46.24,0,0,1,9.33-3.49A10,10,0,0,0,39.83,3.2,26.35,26.35,0,0,0,57.8,1.11Z" transform="translate(0.81)"/><path class="cls-9" d="M71,6.22A47.27,47.27,0,0,1,66,8.51a49.57,49.57,0,0,1-7.75,2.28,50.94,50.94,0,0,1-9.91,1.13,51.44,51.44,0,0,1-10.07-.78A50.87,50.87,0,0,1,30.14,9,46.62,46.62,0,0,1,24,6.32,47.07,47.07,0,0,0,.51,47.11c0,13.9,6,28.56,15.61,39.19a86.89,86.89,0,0,1,10.73,14.45H68.11A84.73,84.73,0,0,1,78.6,86.87c9.89-10.68,16.13-25.61,16.13-39.76A47.07,47.07,0,0,0,71,6.22Z" transform="translate(0.81)"/><path class="cls-10" d="M33.11,83.75c0,4.4,2.38,13.63,2.38,13.63l-5.51-1a34.73,34.73,0,0,1-3.49-4.67c-2.6-4.94-6.47-9-9.59-13.61A60.71,60.71,0,0,1,9.42,63.46a47.1,47.1,0,0,1,6.19-42.1c3.94-5.6,8.33-10.27,15.77-9.88a15.75,15.75,0,0,1,11,5.41c1,7.2-1.5,14.56-3.38,21.57A171.89,171.89,0,0,0,33.11,83.75Z" transform="translate(0.81)"/><path class="cls-5" d="M65.29,101.43c8.31-9.65,15.1-20.77,18.71-33s3.94-25.56-.22-37.6S71,7.67,59.33,2.48a114.05,114.05,0,0,1-.41,77.93,45.07,45.07,0,0,1-7.06,13.23c-3.2,3.87-7.62,6.93-12.59,7.66C47.59,101.23,57,101.51,65.29,101.43Z" transform="translate(0.81)"/><path class="cls-6" d="M36,117a141.88,141.88,0,0,1,1.91,22.82h-.51a141.56,141.56,0,0,0-2.11-22.7Z" transform="translate(0.81)"/><polygon class="cls-6" points="44.87 117.41 46.01 139.66 45.5 139.69 44.15 117.45 44.87 117.41"/><polygon class="cls-6" points="54.95 117.62 53.26 139.36 52.75 139.32 54.23 117.57 54.95 117.62"/><path class="cls-6" d="M60.59,117.4c-1,7.43-1.89,14.89-2.27,22.38l-.52,0c.31-7.52,1.12-15,2.07-22.46Z" transform="translate(0.81)"/><path class="cls-11" d="M61.47,100.75h6.64c-1,1.65-1.92,3.35-2.78,5.07a96.9,96.9,0,0,0-4.72,11.12h-26a107.11,107.11,0,0,0-7-14.82c-.25-.46-.51-.91-.79-1.37H61.47Z" transform="translate(0.81)"/><path class="cls-12" d="M62.6,102.22H56.29l-16.58-.08L35,102.1,29.34,102,28,102a1.49,1.49,0,0,0,.41,1.42h.38c.05.2.11.42.16.64s.12.56.18.86q1.29,2.43,2.4,4.75l.23-.28a10.07,10.07,0,0,0,2.11-4.86,19.11,19.11,0,0,0,1,3.71A8.93,8.93,0,0,0,36.48,111a15.88,15.88,0,0,0,2.65-4.36c.35-.76.67-1.51.94-2.18.53,2,1.54,5.44,2.84,6.54a3.89,3.89,0,0,0,.7-.78,38.27,38.27,0,0,0,2.83-5.76,43,43,0,0,0,1.45,4.66,7.23,7.23,0,0,0,1,1.88c1.39-1.11,2.5-4.48,3-6.54l.28.7c.81,2,1.85,4.7,3.17,5.84a11.32,11.32,0,0,0,1.11-2.54c.47-1.39.87-2.94,1.23-4a14.55,14.55,0,0,0,3,5.59A4.71,4.71,0,0,0,62,111a46.61,46.61,0,0,0,2.59-6.54,11.81,11.81,0,0,0,.5,1.87l.25-.54c.62-1.23,1.28-2.44,2-3.63Z" transform="translate(0.81)"/><path class="cls-13" d="M66.5,101.59h2.27c-.12.21-.12.52-.23.74h0l-5.93-.1H27c-.05-.22-.11-.44-.16-.64H66.5Z" transform="translate(0.81)"/><path class="cls-13" d="M65.77,100.4a2.66,2.66,0,0,1,0,1.19H58.47a2.35,2.35,0,0,0,0-1.15h2.13Z" transform="translate(0.81)"/><path class="cls-14" d="M68.32,100.37h1.17a1.48,1.48,0,0,1-.36,1.22h-3.4a2.66,2.66,0,0,0,0-1.19Z" transform="translate(0.81)"/><path class="cls-15" d="M26.82,101.59h-.38a1.49,1.49,0,0,1-.41-1.42l1.34,0,5.65.11c3,0,6.12.08,9.2.11s6.12,0,9.21,0H58.5a2.35,2.35,0,0,1,0,1.15Z" transform="translate(0.81)"/><path class="cls-16" d="M62.61,102.23H27a64,64,0,0,1,1.06,7,7.21,7.21,0,0,0,1.75-1.68,10.07,10.07,0,0,0,2.11-4.86,19.11,19.11,0,0,0,1,3.71,8.93,8.93,0,0,0,1.61,2.83,15.88,15.88,0,0,0,2.65-4.36c.35-.76.67-1.51,1-2.18.52,2,1.53,5.44,2.83,6.54a3.89,3.89,0,0,0,.7-.78,38.27,38.27,0,0,0,2.83-5.76,43,43,0,0,0,1.45,4.66,7.23,7.23,0,0,0,1,1.88c1.39-1.11,2.5-4.48,3-6.54l.28.7c.81,2,1.85,4.7,3.17,5.84a11.32,11.32,0,0,0,1.11-2.54c.47-1.39.87-2.94,1.23-4a14.67,14.67,0,0,0,3,5.6,4.88,4.88,0,0,0,1.25.94,45.42,45.42,0,0,0,2.59-6.54,14.56,14.56,0,0,0,1.11,3.4A13.93,13.93,0,0,0,67,110a62.44,62.44,0,0,1,1.53-7.65Z" transform="translate(0.81)"/><polygon class="cls-17" points="27.06 100.31 27.25 101.15 56.4 100.99 56.4 100.45 27.06 100.31"/><path class="cls-13" d="M58.73,116.69a4,4,0,0,1,0,1.19H54.17a3.69,3.69,0,0,0,0-1.15h1.33Z" transform="translate(0.81)"/><path class="cls-18" d="M60.32,116.66h.73a2.15,2.15,0,0,1-.22,1.22H58.7a4,4,0,0,0,0-1.19C59.26,116.68,59.79,116.68,60.32,116.66Z" transform="translate(0.81)"/><path class="cls-19" d="M34.41,117.88h-.24a2.19,2.19,0,0,1-.25-1.42l.84,0,3.52.11c1.9.05,3.82.08,5.75.11l5.75,0,4.41,0a3.69,3.69,0,0,1,0,1.15Z" transform="translate(0.81)"/><polygon class="cls-20" points="34.87 116.6 34.98 117.44 53.19 117.28 53.19 116.75 34.87 116.6"/><path class="cls-21" d="M59.33,139.05c.72,0,.65.75.3,1.2h-2a2,2,0,0,0,0-1.2h1.67Z" transform="translate(0.81)"/><path class="cls-13" d="M57.64,140.25h2a.75.75,0,0,1-.57.32H36a.57.57,0,0,1-.44-.32H57.64Z" transform="translate(0.81)"/><polygon class="cls-22" points="59.51 140.57 58.01 151.4 39.55 151.4 37.95 140.57 59.51 140.57"/><path class="cls-13" d="M57.66,139.05a2,2,0,0,1,0,1.2H52.78a2.35,2.35,0,0,0,.2-1.2h4.68Z" transform="translate(0.81)"/><path class="cls-23" d="M53,139.05a2.35,2.35,0,0,1-.2,1.2H35.57c-.28-.45-.34-1.2.17-1.2H53Z" transform="translate(0.81)"/><polygon class="cls-5" points="59.51 140.57 59.28 142.02 57.32 142.75 56.17 151.4 53.85 151.4 53.22 142.68 38.12 141.52 37.95 140.57 59.51 140.57"/><polygon class="cls-24" points="36.5 139.15 53.27 139.15 53.09 139.65 36.32 139.65 36.5 139.15"/><path class="cls-25" d="M57.25,151.12c.58,0,.53.75.24,1.19h-1.6a2.52,2.52,0,0,0,0-1.19h1.35Z" transform="translate(0.81)"/><path class="cls-13" d="M55.89,152.31h1.6a.61.61,0,0,1-.46.33H38.45c-.14,0-.26-.14-.36-.33h17.8Z" transform="translate(0.81)"/><path class="cls-13" d="M55.9,151.12a2.52,2.52,0,0,1,0,1.19H52a2.65,2.65,0,0,0,.16-1.19H55.9Z" transform="translate(0.81)"/><path class="cls-26" d="M52.13,151.12a2.65,2.65,0,0,1-.16,1.19H38.09c-.22-.44-.27-1.19.14-1.19h13.9Z" transform="translate(0.81)"/><polygon class="cls-27" points="39 151.22 52.52 151.22 52.38 151.72 38.85 151.72 39 151.22"/><g class="cls-28"><path class="cls-29" d="M16.63,54.76a67.9,67.9,0,0,1,4-25.3A44.81,44.81,0,0,1,27,18.31a39.82,39.82,0,0,1,9.37-8.63l.22.34a39.56,39.56,0,0,0-9.15,8.65,43.67,43.67,0,0,0-6.12,11.07,67,67,0,0,0-4.28,25Z" transform="translate(0.81)"/><path class="cls-29" d="M1.62,53.18A63.87,63.87,0,0,1,6.24,26.94a45.16,45.16,0,0,1,7.34-11.56,44.45,44.45,0,0,1,10.81-9l.26.36A43.53,43.53,0,0,0,7,27.23,63.24,63.24,0,0,0,2.08,53.17Z" transform="translate(0.81)"/><path class="cls-29" d="M93.94,52.28A58.88,58.88,0,0,0,88.87,26,44.89,44.89,0,0,0,80.8,14.48a48.18,48.18,0,0,0-11.88-9l-.28.36a47.29,47.29,0,0,1,11.6,9A43.57,43.57,0,0,1,88,26.33a58.19,58.19,0,0,1,5.44,25.94Z" transform="translate(0.81)"/><path class="cls-29" d="M38.25,53.76A149,149,0,0,1,38.86,32a133.14,133.14,0,0,1,4.31-21.32l.39.11a129.4,129.4,0,0,0-4,21.29,146.42,146.42,0,0,0-1,21.66Z" transform="translate(0.81)"/><path class="cls-29" d="M60.21,54.23A145.66,145.66,0,0,0,57.5,32.29a112.87,112.87,0,0,0-6.14-21.18l.37-.16a115,115,0,0,1,6.49,21.19,147.62,147.62,0,0,1,2.39,22.07Z" transform="translate(0.81)"/><path class="cls-29" d="M80,53.24a78.36,78.36,0,0,0-5.52-23.4,77.76,77.76,0,0,0-12-20.77l.31-.26A79,79,0,0,1,75.18,29.56a80,80,0,0,1,5.24,23.65Z" transform="translate(0.81)"/></g><path class="cls-30" d="M16.11,54.76a67,67,0,0,1,4.07-25.3,44.85,44.85,0,0,1,6.47-11.15,40.35,40.35,0,0,1,9.53-8.63l.23.34a39.89,39.89,0,0,0-9.31,8.65,43.39,43.39,0,0,0-6.22,11.07,65.91,65.91,0,0,0-4.36,25Z" transform="translate(0.81)"/><path class="cls-31" d="M.85,53.18A63,63,0,0,1,5.54,26.94,44.81,44.81,0,0,1,24,6.42l.26.36a44.43,44.43,0,0,0-10.73,9A43.94,43.94,0,0,0,6.35,27.23a62.35,62.35,0,0,0-5,25.94Z" transform="translate(0.81)"/><path class="cls-32" d="M94.71,52.28c.17-8.88-1.18-17.89-5.15-26.24a45,45,0,0,0-8.21-11.56,48.91,48.91,0,0,0-12.08-9L69,5.88a48,48,0,0,1,11.79,9,43.64,43.64,0,0,1,7.89,11.48,57.46,57.46,0,0,1,5.52,25.94Z" transform="translate(0.81)"/><path class="cls-33" d="M38.09,53.76A147.63,147.63,0,0,1,38.71,32a132.21,132.21,0,0,1,4.38-21.32l.4.11a128.51,128.51,0,0,0-4,21.29,143.75,143.75,0,0,0-1,21.66Z" transform="translate(0.81)"/><path class="cls-34" d="M60.42,54.23a143.21,143.21,0,0,0-2.76-21.94,111.67,111.67,0,0,0-6.24-21.18L51.8,11a114.62,114.62,0,0,1,6.6,21.19,146.38,146.38,0,0,1,2.43,22.07Z" transform="translate(0.81)"/><path class="cls-35" d="M80.55,53.24a77.58,77.58,0,0,0-5.61-23.4A77.61,77.61,0,0,0,62.77,9.07l.31-.26A78.89,78.89,0,0,1,75.64,29.56,78.55,78.55,0,0,1,81,53.21Z" transform="translate(0.81)"/><path class="cls-36" d="M66,8.51a49.57,49.57,0,0,1-7.75,2.28,50.94,50.94,0,0,1-9.91,1.13,51.44,51.44,0,0,1-10.07-.78A50.87,50.87,0,0,1,30.14,9,46.62,46.62,0,0,1,24,6.32c.82-.48,1.66-.93,2.51-1.35a22.39,22.39,0,0,0,8.59,2.44,78.56,78.56,0,0,0,32.61-2.9C68.86,5,70,5.6,71,6.22A47.27,47.27,0,0,1,66,8.51Z" transform="translate(0.81)"/><path class="cls-5" d="M13.33,68.61a4.76,4.76,0,0,1-5,.81A8.7,8.7,0,0,1,5,65.66a30,30,0,0,1-3.7-11.91h.46a33.21,33.21,0,0,0,1.89,4.54A9.91,9.91,0,0,0,6.77,62a5.51,5.51,0,0,0,6.68-.29,7.37,7.37,0,0,0,2.18-3.64,1.34,1.34,0,0,0,.09-.26,12.15,12.15,0,0,1,.65-2.69,1.31,1.31,0,0,1,.48-.51C18.07,59.49,16.61,66.12,13.33,68.61Z" transform="translate(0.81)"/><path class="cls-37" d="M11.72,67.7a5.16,5.16,0,0,1-5,.76,7.29,7.29,0,0,1-3.06-3.53A25.17,25.17,0,0,1,1,53.75h.46A27.93,27.93,0,0,0,2.94,58a8.33,8.33,0,0,0,2.8,3.51,5.86,5.86,0,0,0,6.71-.27A7.75,7.75,0,0,0,15,57.84a2.72,2.72,0,0,0,.11-.25A11.8,11.8,0,0,1,16,55.07a1.47,1.47,0,0,1,.53-.49C17.27,59.14,15.23,65.36,11.72,67.7Z" transform="translate(0.81)"/><path class="cls-38" d="M7.68,63.69A6.17,6.17,0,0,0,9,63.8c1.56,0,4.31-.82,5.1-2.4a6.27,6.27,0,0,1-6.27,3.38c-1.89-.25-3.55-1.08-4-3.05A8.13,8.13,0,0,0,7.68,63.69Z" transform="translate(0.81)"/><path class="cls-38" d="M14.32,63.1a8.66,8.66,0,0,1-2,3.88,5.21,5.21,0,0,1-3.89,1.66c-1.29-.07-3.83-1.17-3.66-2.81-.07.62,2.17.87,2.52.84a14.26,14.26,0,0,0,2.52-.42A8.36,8.36,0,0,0,14.32,63.1Z" transform="translate(0.81)"/><path class="cls-39" d="M12.66,62.2a7,7,0,0,1-5.08.65c-2.7-.56-5.13-2.4-5.31-5.4,0,.11.32.34.67.56a8.33,8.33,0,0,0,2.8,3.51,5.86,5.86,0,0,0,6.71-.27A7.75,7.75,0,0,0,15,57.84,4.64,4.64,0,0,1,12.66,62.2Z" transform="translate(0.81)"/><path class="cls-40" d="M11.85,65a12.38,12.38,0,0,1-4.63,1.15,4.37,4.37,0,0,1-2-.29A2,2,0,0,1,4,64.28,14.16,14.16,0,0,0,11.85,65Z" transform="translate(0.81)"/><path class="cls-5" d="M88.58,67.14c-1.41,1.24-3.17,2.11-4.65,1.51-1.22-.51-2-1.91-2.57-3.34a27.28,27.28,0,0,1-1.74-11.53l.42-.06A26.29,26.29,0,0,0,81.15,58a6.53,6.53,0,0,0,2.34,3.36c1.83,1.18,4.34.55,6.15-1.22a11,11,0,0,0,2.49-4,1.78,1.78,0,0,0,.12-.29,17.16,17.16,0,0,1,1-2.8,1.83,1.83,0,0,1,.52-.58C94.17,57.26,91.92,64.16,88.58,67.14Z" transform="translate(0.81)"/><path class="cls-41" d="M90.37,66.75c-1.3,1.2-3,2-4.46,1.48a5.79,5.79,0,0,1-2.71-3.17,26.27,26.27,0,0,1-2.38-11l.41-.06a26,26,0,0,0,1.33,4.14,6.78,6.78,0,0,0,2.49,3.19c1.87,1.12,4.28.49,6-1.22a9.81,9.81,0,0,0,2.21-3.84A2.14,2.14,0,0,0,93.3,56a15,15,0,0,1,.78-2.69,1.67,1.67,0,0,1,.47-.57C95.27,57.23,93.47,63.87,90.37,66.75Z" transform="translate(0.81)"/><path class="cls-38" d="M86.78,63.22a4.63,4.63,0,0,0,1.12-.06c1.38-.26,3.82-1.44,4.51-3.17-1,2.51-3.33,4.33-5.55,4.34-1.67,0-3.14-.61-3.58-2.55A5.63,5.63,0,0,0,86.78,63.22Z" transform="translate(0.81)"/><path class="cls-38" d="M92.66,61.7a11.09,11.09,0,0,1-1.8,4.23,5.22,5.22,0,0,1-3.45,2.24c-1.14.11-3.4-.65-3.25-2.35,0,.65,1.93.58,2.24.5a11.83,11.83,0,0,0,2.23-.78A9.4,9.4,0,0,0,92.66,61.7Z" transform="translate(0.81)"/><path class="cls-42" d="M91.18,61a6.09,6.09,0,0,1-4.5,1.38A4.87,4.87,0,0,1,82,57.61c0,.12.29.31.6.49a6.78,6.78,0,0,0,2.49,3.19c1.87,1.12,4.28.49,6-1.22a9.81,9.81,0,0,0,2.21-3.84A5.84,5.84,0,0,1,91.18,61Z" transform="translate(0.81)"/><path class="cls-43" d="M90.47,64a11.25,11.25,0,0,1-4.09,1.83,3.27,3.27,0,0,1-1.81,0,1.66,1.66,0,0,1-1.07-1.47A10.81,10.81,0,0,0,90.47,64Z" transform="translate(0.81)"/><path class="cls-5" d="M33.35,69.57a7.83,7.83,0,0,1-6.5.82,10,10,0,0,1-4.44-3.77,25.25,25.25,0,0,1-4.86-11.91h.61a27.59,27.59,0,0,0,2.48,4.54A11.24,11.24,0,0,0,24.74,63a9.08,9.08,0,0,0,8.77-.29,7.45,7.45,0,0,0,2.87-3.64c0-.09.08-.18.11-.27a10,10,0,0,1,.85-2.68A1.47,1.47,0,0,1,38,55.6C39.58,60.45,37.66,67.08,33.35,69.57Z" transform="translate(0.81)"/><path class="cls-44" d="M31.25,68.66a8.61,8.61,0,0,1-6.6.77,8.39,8.39,0,0,1-4-3.54,20.48,20.48,0,0,1-3.48-11.18h.61a22.67,22.67,0,0,0,2,4.26,9.17,9.17,0,0,0,3.67,3.52,9.7,9.7,0,0,0,8.8-.27,8.34,8.34,0,0,0,3.28-3.42,1.65,1.65,0,0,0,.15-.25A10.39,10.39,0,0,1,36.79,56a1.79,1.79,0,0,1,.69-.48C38.52,60.1,35.85,66.33,31.25,68.66Z" transform="translate(0.81)"/><path class="cls-38" d="M25.94,64.65a10.64,10.64,0,0,0,1.67.11c2,0,5.65-.81,6.68-2.4-1.5,2.3-4.95,3.72-8.22,3.39-2.48-.26-4.65-1.08-5.3-3A12.08,12.08,0,0,0,25.94,64.65Z" transform="translate(0.81)"/><path class="cls-38" d="M34.65,64.07A8.24,8.24,0,0,1,32,67.94a7.93,7.93,0,0,1-5.1,1.66c-1.69-.07-5-1.16-4.8-2.81-.09.63,2.85.87,3.31.84a22.73,22.73,0,0,0,3.3-.42A11.52,11.52,0,0,0,34.65,64.07Z" transform="translate(0.81)"/><path class="cls-45" d="M32.47,63.16a11.81,11.81,0,0,1-6.66.66c-3.54-.57-6.73-2.41-7-5.41,0,.11.42.34.89.56a9.17,9.17,0,0,0,3.67,3.52,9.7,9.7,0,0,0,8.8-.27,8.34,8.34,0,0,0,3.28-3.42C35.75,60.55,34.4,62.29,32.47,63.16Z" transform="translate(0.81)"/><path class="cls-46" d="M31.41,66a20.16,20.16,0,0,1-6.07,1.15,7.22,7.22,0,0,1-2.67-.28,2.14,2.14,0,0,1-1.57-1.61A23.86,23.86,0,0,0,31.41,66Z" transform="translate(0.81)"/><path class="cls-5" d="M76.28,68a7.59,7.59,0,0,1-6.17,1.56,8.24,8.24,0,0,1-4.22-3.26,23.16,23.16,0,0,1-4.6-11.35l.57-.07a24.64,24.64,0,0,0,2.36,4.25,9.09,9.09,0,0,0,3.89,3.28,8.52,8.52,0,0,0,8.33-1.3,8.74,8.74,0,0,0,2.72-4c0-.1.07-.2.1-.29a11.75,11.75,0,0,1,.81-2.78,1.85,1.85,0,0,1,.6-.58C82.19,58.14,80.38,65,76.28,68Z" transform="translate(0.81)"/><path class="cls-47" d="M74.5,67.31c-1.86,1.2-4.25,2.06-6.36,1.52a6.87,6.87,0,0,1-3.87-3.07A19.2,19.2,0,0,1,60.91,55l.59-.07a20,20,0,0,0,1.89,4A7.58,7.58,0,0,0,66.93,62a9.34,9.34,0,0,0,8.49-1.29A9.72,9.72,0,0,0,78.59,57c0-.09.1-.18.14-.27A12.09,12.09,0,0,1,79.85,54a1.93,1.93,0,0,1,.67-.56C81.52,57.91,78.94,64.44,74.5,67.31Z" transform="translate(0.81)"/><path class="cls-38" d="M69.38,63.91A9.48,9.48,0,0,0,71,63.82c2-.27,5.45-1.46,6.45-3.16A9.79,9.79,0,0,1,69.51,65c-2.39,0-4.49-.55-5.11-2.45A10.23,10.23,0,0,0,69.38,63.91Z" transform="translate(0.81)"/><path class="cls-38" d="M77.79,62.32A9.73,9.73,0,0,1,75.2,66.5a8.4,8.4,0,0,1-4.93,2.25c-1.63.12-4.84-.59-4.62-2.26-.09.64,2.75.55,3.19.46a24,24,0,0,0,3.19-.8A12.84,12.84,0,0,0,77.79,62.32Z" transform="translate(0.81)"/><path class="cls-48" d="M75.68,61.67a11.71,11.71,0,0,1-6.43,1.42c-3.41-.16-6.48-1.64-6.72-4.61,0,.11.41.29.86.46A7.58,7.58,0,0,0,66.93,62a9.34,9.34,0,0,0,8.49-1.29A9.72,9.72,0,0,0,78.59,57C78.85,58.67,77.55,60.57,75.68,61.67Z" transform="translate(0.81)"/><path class="cls-49" d="M74.66,64.62a20.84,20.84,0,0,1-5.86,1.85,6.74,6.74,0,0,1-2.57,0,1.81,1.81,0,0,1-1.52-1.43A22.31,22.31,0,0,0,74.66,64.62Z" transform="translate(0.81)"/><path class="cls-5" d="M57.12,69.25a9.6,9.6,0,0,1-7.28,1.32A11.21,11.21,0,0,1,44.6,67a25,25,0,0,1-6.23-12l.68,0a28.45,28.45,0,0,0,3.09,4.51A12.21,12.21,0,0,0,47,63.07a11,11,0,0,0,9.86-.94,7.83,7.83,0,0,0,3-4,1.42,1.42,0,0,0,.1-.29c.27-.83.23-2,.79-2.83a1.68,1.68,0,0,1,.68-.58C63.55,59.36,61.82,66.35,57.12,69.25Z" transform="translate(0.81)"/><path class="cls-50" d="M54.69,68.46a10.52,10.52,0,0,1-7.39,1.28,9.3,9.3,0,0,1-4.74-3.37,20,20,0,0,1-4.63-11.31l.68,0a22.7,22.7,0,0,0,2.48,4.26,10,10,0,0,0,4.36,3.37,11.85,11.85,0,0,0,9.9-.93A9,9,0,0,0,58.83,58a1.82,1.82,0,0,0,.15-.27A10.31,10.31,0,0,1,60.12,55a2,2,0,0,1,.76-.55C62.34,59.07,59.72,65.71,54.69,68.46Z" transform="translate(0.81)"/><path class="cls-38" d="M48.46,64.7a13.22,13.22,0,0,0,1.89,0c2.29-.19,6.31-1.26,7.37-3-1.54,2.49-5.34,4.21-9,4.1-2.81-.08-5.31-.77-6.16-2.77A14.18,14.18,0,0,0,48.46,64.7Z" transform="translate(0.81)"/><path class="cls-38" d="M58.23,63.46a8.61,8.61,0,0,1-2.77,4.2,9.59,9.59,0,0,1-5.65,2.09c-1.9,0-5.73-.83-5.58-2.55-.06.65,3.27.69,3.79.62a28.83,28.83,0,0,0,3.69-.67A13.45,13.45,0,0,0,58.23,63.46Z" transform="translate(0.81)"/><path class="cls-51" d="M55.72,62.68a14.54,14.54,0,0,1-7.47,1.17c-4-.33-7.73-2-8.2-5.09,0,.12.5.33,1,.52a10,10,0,0,0,4.36,3.37,11.85,11.85,0,0,0,9.9-.93A9,9,0,0,0,58.83,58C59.25,59.73,57.84,61.63,55.72,62.68Z" transform="translate(0.81)"/><path class="cls-52" d="M54.7,65.68a24.51,24.51,0,0,1-6.76,1.64,9,9,0,0,1-3-.1C44,67,43.14,66.4,43,65.67A29.34,29.34,0,0,0,54.7,65.68Z" transform="translate(0.81)"/><path class="cls-5" d="M.85,53.73q23.45,1.67,47,1.34c7.83,0,15.66-.2,23.49-.56S87,53.64,94.77,53a.28.28,0,0,1,.3.25.29.29,0,0,1-.25.3q-11.7,1.13-23.46,1.76t-23.53.81q-23.53.08-47-1.8A.27.27,0,0,1,.56,54,.28.28,0,0,1,.85,53.73Z" transform="translate(0.81)"/><path class="cls-53" d="M1.15,53q23.45,1.66,47,1.34c7.83,0,15.66-.2,23.49-.56s15.65-.87,23.45-1.55a.28.28,0,0,1,.3.25.29.29,0,0,1-.25.3q-11.7,1.13-23.46,1.76t-23.53.8q-23.54.09-47-1.79a.28.28,0,0,1-.25-.3A.27.27,0,0,1,1.15,53Z" transform="translate(0.81)"/><path class="cls-54" d="M18.67,55a1.93,1.93,0,1,0-1.93,1.93A1.94,1.94,0,0,0,18.67,55Z" transform="translate(0.81)"/><path class="cls-55" d="M17.52,54.72a1.15,1.15,0,0,0-2.29,0,1.15,1.15,0,1,0,2.29,0Z" transform="translate(0.81)"/><path class="cls-56" d="M62.32,55.35a1.8,1.8,0,1,0-1.8,1.8A1.79,1.79,0,0,0,62.32,55.35Z" transform="translate(0.81)"/><path class="cls-57" d="M61.25,55.12a1.07,1.07,0,0,0-2.13,0,1.07,1.07,0,1,0,2.13,0Z" transform="translate(0.81)"/><path class="cls-58" d="M78.66,54.47a1.8,1.8,0,1,1,2.27,1.14A1.8,1.8,0,0,1,78.66,54.47Z" transform="translate(0.81)"/><path class="cls-59" d="M79.6,53.92a1.07,1.07,0,0,1,2-.68,1.07,1.07,0,1,1-2,.68Z" transform="translate(0.81)"/><path class="cls-60" d="M93,53.34a1.5,1.5,0,1,1,1.89.95A1.49,1.49,0,0,1,93,53.34Z" transform="translate(0.81)"/><path class="cls-61" d="M93.78,52.88a.89.89,0,1,1,1.69-.56.89.89,0,0,1-1.69.56Z" transform="translate(0.81)"/><circle class="cls-62" cx="1.67" cy="53.68" r="1.67"/><circle class="cls-63" cx="1.36" cy="53.47" r="0.99"/><path class="cls-64" d="M39.69,55.35a1.87,1.87,0,1,0-1.86,1.86A1.87,1.87,0,0,0,39.69,55.35Z" transform="translate(0.81)"/><path class="cls-65" d="M38.59,55.12a1.11,1.11,0,1,0-1.11,1.1A1.11,1.11,0,0,0,38.59,55.12Z" transform="translate(0.81)"/></g></g></g></svg>