<svg id="layer_1" data-name="layer 1" xmlns="http://www.w3.org/2000/svg" xmlns:xlink="http://www.w3.org/1999/xlink" viewBox="0 0 549.26 390.81"><defs><style>.cls-1{fill:none;}.cls-2{clip-path:url(#clip-path);}.cls-3{fill:#d5c232;}.cls-4{fill:url(#Áåçûìÿííûé_ãðàäèåíò_712);}.cls-5{fill:url(#Áåçûìÿííûé_ãðàäèåíò_711);}.cls-6{fill:url(#Áåçûìÿííûé_ãðàäèåíò_711-2);}.cls-7{fill:url(#Áåçûìÿííûé_ãðàäèåíò_711-3);}.cls-8{fill:url(#Áåçûìÿííûé_ãðàäèåíò_711-4);}.cls-9{fill:url(#Áåçûìÿííûé_ãðàäèåíò_711-5);}</style><clipPath id="clip-path" transform="translate(-3.91 -5.64)"><rect class="cls-1" x="-1314.57" y="-564.04" width="1867.09" height="960.04"/></clipPath><radialGradient id="Áåçûìÿííûé_ãðàäèåíò_712" cx="193.86" cy="-72.18" r="364.56" gradientUnits="userSpaceOnUse"><stop offset="0" stop-color="#2a5117"/><stop offset="1" stop-color="#02193b"/></radialGradient><linearGradient id="Áåçûìÿííûé_ãðàäèåíò_711" x1="20.74" y1="115.52" x2="69.53" y2="361" gradientUnits="userSpaceOnUse"><stop offset="0" stop-color="#57621c"/><stop offset="1" stop-color="#042549"/></linearGradient><linearGradient id="Áåçûìÿííûé_ãðàäèåíò_711-2" x1="117.86" y1="93.5" x2="172.35" y2="367.71" xlink:href="#Áåçûìÿííûé_ãðàäèåíò_711"/><linearGradient id="Áåçûìÿííûé_ãðàäèåíò_711-3" x1="259.53" y1="81.16" x2="299.8" y2="326.64" xlink:href="#Áåçûìÿííûé_ãðàäèåíò_711"/><linearGradient id="Áåçûìÿííûé_ãðàäèåíò_711-4" x1="404.14" y1="13.83" x2="444.41" y2="259.31" xlink:href="#Áåçûìÿííûé_ãðàäèåíò_711"/><linearGradient id="Áåçûìÿííûé_ãðàäèåíò_711-5" x1="203.22" y1="35.7" x2="261.3" y2="316.8" xlink:href="#Áåçûìÿííûé_ãðàäèåíò_711"/></defs><g class="cls-2"><path class="cls-3" d="M545.84,299.88c-11,14.76-26.6,25.54-42.62,34.79C450,365.4,389.3,381.87,328.1,388.33S205,391.5,143.84,384.72c-37.54-4.16-75.3-9.72-110.48-23.33-11.26-4.36-22.75-10-29.45-20a43.78,43.78,0,0,1,29.14-10.83c-9.62-6.44-25.74-22.44-26.82-34.45a10.93,10.93,0,0,1,.63-5,5.47,5.47,0,0,1,2.31-2.75,9.68,9.68,0,0,1,3.54-.94,163.12,163.12,0,0,1,48.57,1.28,160.57,160.57,0,0,1,23.63,6.05C74.54,279.31,57,267.7,46.22,252.55a94.41,94.41,0,0,1-15-75c1-4.24,2.77-9,6.92-10.49,2.57-.93,5.4-.32,8,.35a208.31,208.31,0,0,1,57.46,24c-3.81-2.78.18-8.08,3.61-11.31s8.8-3.7,13.33-2.37,8.44,4.16,12.25,7a80.39,80.39,0,0,1,9.21-72.26,10.7,10.7,0,0,1,4.25-4.14c2-.9,4.42-.54,6.62-.08,27.68,5.79,52.09,26.3,72.44,44.74,0-2.07,0-4.11.11-6.18a87,87,0,0,1,14.59-44.07c2.39-3.54,5.14-7,8.87-9.14A22.15,22.15,0,0,1,260,90.91c16.31,0,30.43,12.66,37,27.43,5.95,13.26,7.07,28,7.63,42.57.08,1.67.12,3.34.19,5,2.31-4.85,3.61-5.67,7-9.87a29.71,29.71,0,0,1,6.38-6.14,13.77,13.77,0,0,1,7-2.57,9.61,9.61,0,0,1,7.32,3.14c-9.28-45.31-2.4-92,18.22-133.72,1.33-2.7,2.82-5.49,5.31-7.2,3.8-2.61,8.94-2.11,13.36-.78,22.45,6.72,35.2,29.57,45.61,50.41C430.65,30.46,457.93,14.46,489.93,7c5.68-1.34,12-2.11,17.3-.24a15.16,15.16,0,0,1,4,2.07c3.6,2.61,5.76,6.72,7.47,10.79,10.46,24.93,8.6,53.62.37,79.35s-22.4,49.18-36.43,72.33c13.21-8,27.77-3.26,40.57,5.35A30,30,0,0,1,534,188.74c6.88,15.07-4.15,40.92-13.16,53.43C508.49,259.33,493.6,264,474.92,271a90.46,90.46,0,0,1,61.26-.62c6.51,2.3,13.46,6.17,15.09,12.83C552.7,289.1,549.47,295.05,545.84,299.88Z" transform="translate(-3.91 -5.64)"/><path class="cls-4" d="M547.44,304.53c-11,14.76-26.37,25.54-42.25,34.79C452.46,370,392.26,386.51,331.58,393s-122,3.17-182.66-3.61C111.71,385.21,74.28,379.64,39.4,366c-11.16-4.37-22.55-10-29.19-20A43.18,43.18,0,0,1,39.1,335.24c-9.54-6.44-25.53-22.44-26.59-34.45a11.06,11.06,0,0,1,.62-5A5.35,5.35,0,0,1,15.42,293a9.2,9.2,0,0,1,3.51-.94,160.32,160.32,0,0,1,48.15,1.27,158.39,158.39,0,0,1,23.43,6.06C80.22,284,62.86,272.35,52.15,257.2a95.14,95.14,0,0,1-14.83-75c1-4.25,2.75-9,6.86-10.49,2.54-.93,5.35-.32,8,.35a205.5,205.5,0,0,1,57,24c-3.77-2.78.19-8.09,3.58-11.32s8.72-3.7,13.21-2.36,8.37,4.15,12.15,6.94a81,81,0,0,1,9.13-72.26,10.8,10.8,0,0,1,4.21-4.14c2-.89,4.39-.53,6.57-.07,27.43,5.79,51.64,26.29,71.81,44.73-.05-2.06,0-4.11.1-6.17a88.73,88.73,0,0,1,2-14.63,87.33,87.33,0,0,1,12.5-29.44c2.37-3.55,5.1-7,8.8-9.14a21.78,21.78,0,0,1,11-2.64c16.17,0,30.16,12.66,36.71,27.43,5.9,13.26,7,28,7.57,42.57.08,1.67.12,3.34.18,5,2.29-4.85,3.58-5.67,6.92-9.87a29.71,29.71,0,0,1,6.32-6.15,13.62,13.62,0,0,1,6.95-2.56,9.49,9.49,0,0,1,7.26,3.14c-9.2-45.31-2.38-92,18.06-133.72,1.32-2.7,2.79-5.49,5.27-7.21,3.76-2.61,8.85-2.11,13.23-.77,22.27,6.72,34.9,29.57,45.23,50.41C433.25,35.11,460.29,19.11,492,11.63c5.63-1.33,11.88-2.1,17.16-.24a15.11,15.11,0,0,1,3.95,2.08c3.57,2.61,5.71,6.72,7.4,10.78,10.38,24.93,8.53,53.63.37,79.36s-22.2,49.18-36.11,72.32c13.09-8,27.52-3.26,40.22,5.36a29.72,29.72,0,0,1,10.69,12.1c6.82,15.07-4.11,40.91-13,53.42-12.24,17.17-27,21.87-45.51,28.88a88.86,88.86,0,0,1,60.72-.62c6.46,2.3,13.34,6.17,15,12.82C554.24,293.75,551,299.69,547.44,304.53Z" transform="translate(-3.91 -5.64)"/><path class="cls-5" d="M103.73,314.57c-16.42,1.61-33,3.2-49.36.73-10.95-1.67-21.85-5.31-31-11.57a79.27,79.27,0,0,1-10.2-8A5.35,5.35,0,0,1,15.42,293a9.2,9.2,0,0,1,3.51-.94,160.32,160.32,0,0,1,48.15,1.27c3.54,1.45,7.06,3,10.52,4.49C87.17,302,97.1,306.5,103.73,314.57Z" transform="translate(-3.91 -5.64)"/><path class="cls-6" d="M244.68,204.35c-.35,4.58-.89,9-1.38,13.11-9.87-16.26-19.9-32.72-33.63-45.88s-31.82-22.86-50.84-22.52a7.71,7.71,0,0,0-4.22,1c-1.69,1.15-2.27,3.34-2.68,5.35-5,24.77-2.16,48.38,4.43,72.5-6-5.41-12.15-10.87-19.22-14.85-8.76-4.91-22.39-11.47-32.46-12.11-6.79-.43-14.28,2.47-17.19,8.62-12.08-12.59-36.8-31.92-44.1-4-1.71,6.53-1.23,13.42-.73,20.15.54,7.37,1.11,14.89,4,21.72-6.45-7.78-9.1-17.92-11.59-27.72-1.63-6.46-3.28-13-3.34-19.68-.06-7.12,4.66-25.38,12.5-28.23,2.55-.92,5.35-.31,8,.36a205.5,205.5,0,0,1,57,24c-3.77-2.78.19-8.09,3.58-11.32s8.72-3.7,13.21-2.36,8.37,4.15,12.15,6.94a81,81,0,0,1,9.13-72.26,10.8,10.8,0,0,1,4.21-4.14c2-.89,4.39-.53,6.57-.07,27.43,5.79,51.64,26.29,71.81,44.73-.05-2.06,0-4.11.1-6.17-.46,7.91,10.15,19.61,12.81,27.33S245.36,195.55,244.68,204.35Z" transform="translate(-3.91 -5.64)"/><path class="cls-7" d="M308.38,165.56q-4.19,10.75-8.92,21.28c-2.27-12.3-2.76-25.22-8.38-36.39s-18.72-20-30.44-15.66c-11.3,4.2-15.47,17.71-18.18,29.45C243,162,236,151.64,235,148.8a74.4,74.4,0,0,1-3.2-12,87.33,87.33,0,0,1,12.5-29.44c2.37-3.55,5.1-7,8.8-9.14a21.78,21.78,0,0,1,11-2.64c16.17,0,30.16,12.66,36.71,27.43C306.71,136.25,307.82,151,308.38,165.56Z" transform="translate(-3.91 -5.64)"/><path class="cls-8" d="M509.17,11.39a229.9,229.9,0,0,0-97.11,78c-3.73-10.45-7.5-21-13.46-30.38s-14.38-17.57-24.87-21.18a89.63,89.63,0,0,0-2,33c-1.24-5.68-9.54-7.11-14.27-3.71s-6.61,9.44-7.92,15.12c-6.74,29.36-6.08,59.91-3.74,89.94-.67-8.61-15-12.68-24-17.55a13.62,13.62,0,0,1,6.95-2.56,9.49,9.49,0,0,1,7.26,3.14c-9.2-45.31-2.38-92,18.06-133.72,1.32-2.7,2.79-5.49,5.27-7.21,3.76-2.61,8.85-2.11,13.23-.77,22.27,6.72,34.9,29.57,45.23,50.41C433.25,35.11,460.29,19.11,492,11.63,497.64,10.3,503.89,9.53,509.17,11.39Z" transform="translate(-3.91 -5.64)"/><path class="cls-9" d="M359.91,222.54c-3.88-4.69-7-10-11.22-14.38s-10-7.83-16.06-7.31c-6.5.57-12,5.78-14.15,11.94s-1.4,13,.72,19.18a105.88,105.88,0,0,0-33.12-34.26c-1.65-1.07-3.51-2.13-5.45-1.86-2.22.31-3.82,2.24-5.08,4.09-11.22,16.47-13.9,37.1-16.28,56.88A63.71,63.71,0,0,0,247.57,236a7.29,7.29,0,0,0-3.64-2.73c-2.31-.55-4.55,1.09-6.25,2.76a46.89,46.89,0,0,0-11.15,17.12,294,294,0,0,0-20.09-26.42c-1.4-1.64-3.34-3.44-5.42-2.83-1.4.41-2.26,1.78-2.94,3.07a67.76,67.76,0,0,0-7.44,38.27A63.31,63.31,0,0,0,142.74,249a9.94,9.94,0,0,0-5.12,1.52c-1.79,1.32-2.56,3.59-3.09,5.75a50.44,50.44,0,0,0,7.68,40.61c-2.36-10.07-.08-17.81,3.68-27.46.71-1.82,1.66-3.74,3.42-4.59,1.61-.78,3.52-.46,5.28-.07a91.42,91.42,0,0,1,52,32.86c-3.77-15.52-2.76-31.12-.16-46.88A131.76,131.76,0,0,1,240,284.39c1.15-7.43,1.92-13.22,4.46-20.3a2.27,2.27,0,0,1,.85-1.29,2.18,2.18,0,0,1,2.06.27,19.09,19.09,0,0,1,9.71,12.81c3.68-15,12.61-27.15,19.83-40.82,1.91-3.6,4.59-7.59,8.67-7.82,3.12-.18,5.85,2,8.11,4.12A84.41,84.41,0,0,1,315.28,265c2.05-13.45,11.08-24.69,18.69-36,2.5-3.71,5.64-7.47,10-8.43,3.8-.83,7.82.72,10.83,3.19s5.22,5.76,7.37,9C361.61,228.41,362.71,225.92,359.91,222.54Z" transform="translate(-3.91 -5.64)"/></g></svg>