<svg xmlns="http://www.w3.org/2000/svg" xmlns:xlink="http://www.w3.org/1999/xlink" viewBox="0 0 139.81 398.27"><defs><style>.cls-1{fill:none;}.cls-2{isolation:isolate;}.cls-3{clip-path:url(#clip-path);}.cls-4{fill:url(#Áåçûìÿííûé_ãðàäèåíò_590);}.cls-5{fill:url(#Áåçûìÿííûé_ãðàäèåíò_590-2);}.cls-6{fill:url(#Áåçûìÿííûé_ãðàäèåíò_288);}.cls-13,.cls-7{fill:#f2e6f7;}.cls-12,.cls-15,.cls-7,.cls-8{mix-blend-mode:multiply;}.cls-8{fill:#c7c7f2;}.cls-9{fill:url(#Áåçûìÿííûé_ãðàäèåíò_253);}.cls-10{fill:url(#Áåçûìÿííûé_ãðàäèåíò_288-2);}.cls-11{fill:url(#Áåçûìÿííûé_ãðàäèåíò_240);}.cls-14{fill:url(#Áåçûìÿííûé_ãðàäèåíò_221);}.cls-15{fill:#e3caeb;}.cls-16{fill:url(#Áåçûìÿííûé_ãðàäèåíò_288-3);}.cls-17{fill:url(#Áåçûìÿííûé_ãðàäèåíò_67);}.cls-18{fill:url(#Áåçûìÿííûé_ãðàäèåíò_67-2);}.cls-19{fill:url(#Áåçûìÿííûé_ãðàäèåíò_67-3);}.cls-20{fill:url(#Áåçûìÿííûé_ãðàäèåíò_67-4);}.cls-21{fill:url(#Áåçûìÿííûé_ãðàäèåíò_6);}.cls-22,.cls-27,.cls-28,.cls-29,.cls-30,.cls-41,.cls-53,.cls-56,.cls-57,.cls-58,.cls-59,.cls-68{mix-blend-mode:screen;}.cls-22{fill:url(#Áåçûìÿííûé_ãðàäèåíò_36);}.cls-23{fill:url(#Áåçûìÿííûé_ãðàäèåíò_67-5);}.cls-24{fill:url(#Áåçûìÿííûé_ãðàäèåíò_67-6);}.cls-25{fill:#9e4215;}.cls-26{fill:#552869;}.cls-27{fill:url(#Áåçûìÿííûé_ãðàäèåíò_36-2);}.cls-28{fill:url(#Áåçûìÿííûé_ãðàäèåíò_36-3);}.cls-29{fill:url(#Áåçûìÿííûé_ãðàäèåíò_36-4);}.cls-30{fill:url(#Áåçûìÿííûé_ãðàäèåíò_36-5);}.cls-31{fill:#ffdeab;}.cls-32{fill:#1c4c7a;}.cls-33{fill:url(#Áåçûìÿííûé_ãðàäèåíò_219);}.cls-34{fill:url(#Áåçûìÿííûé_ãðàäèåíò_219-2);}.cls-35{fill:url(#Áåçûìÿííûé_ãðàäèåíò_219-3);}.cls-36{fill:url(#Áåçûìÿííûé_ãðàäèåíò_219-4);}.cls-37{fill:url(#Áåçûìÿííûé_ãðàäèåíò_219-5);}.cls-38{fill:url(#Áåçûìÿííûé_ãðàäèåíò_219-6);}.cls-39{fill:url(#Áåçûìÿííûé_ãðàäèåíò_219-7);}.cls-40{fill:url(#Áåçûìÿííûé_ãðàäèåíò_67-7);}.cls-41{fill:url(#Áåçûìÿííûé_ãðàäèåíò_36-6);}.cls-42{fill:#82edea;}.cls-43{fill:#ffefe8;}.cls-44{fill:url(#Áåçûìÿííûé_ãðàäèåíò_288-4);}.cls-45{fill:url(#Áåçûìÿííûé_ãðàäèåíò_288-5);}.cls-46{fill:url(#Áåçûìÿííûé_ãðàäèåíò_221-2);}.cls-47{fill:url(#Áåçûìÿííûé_ãðàäèåíò_288-6);}.cls-48{fill:url(#Áåçûìÿííûé_ãðàäèåíò_67-8);}.cls-49{fill:url(#Áåçûìÿííûé_ãðàäèåíò_67-9);}.cls-50{fill:url(#Áåçûìÿííûé_ãðàäèåíò_67-10);}.cls-51{fill:url(#Áåçûìÿííûé_ãðàäèåíò_67-11);}.cls-52{fill:url(#Áåçûìÿííûé_ãðàäèåíò_6-2);}.cls-53{fill:url(#Áåçûìÿííûé_ãðàäèåíò_36-7);}.cls-54{fill:url(#Áåçûìÿííûé_ãðàäèåíò_67-12);}.cls-55{fill:url(#Áåçûìÿííûé_ãðàäèåíò_67-13);}.cls-56{fill:url(#Áåçûìÿííûé_ãðàäèåíò_36-8);}.cls-57{fill:url(#Áåçûìÿííûé_ãðàäèåíò_36-9);}.cls-58{fill:url(#Áåçûìÿííûé_ãðàäèåíò_36-10);}.cls-59{fill:url(#Áåçûìÿííûé_ãðàäèåíò_36-11);}.cls-60{fill:url(#Áåçûìÿííûé_ãðàäèåíò_219-8);}.cls-61{fill:url(#Áåçûìÿííûé_ãðàäèåíò_219-9);}.cls-62{fill:url(#Áåçûìÿííûé_ãðàäèåíò_219-10);}.cls-63{fill:url(#Áåçûìÿííûé_ãðàäèåíò_219-11);}.cls-64{fill:url(#Áåçûìÿííûé_ãðàäèåíò_219-12);}.cls-65{fill:url(#Áåçûìÿííûé_ãðàäèåíò_219-13);}.cls-66{fill:url(#Áåçûìÿííûé_ãðàäèåíò_219-14);}.cls-67{fill:url(#Áåçûìÿííûé_ãðàäèåíò_67-14);}.cls-68{fill:url(#Áåçûìÿííûé_ãðàäèåíò_36-12);}.cls-69{fill:url(#Áåçûìÿííûé_ãðàäèåíò_1055);}.cls-70{fill:url(#Áåçûìÿííûé_ãðàäèåíò_1055-2);}.cls-71{fill:url(#Áåçûìÿííûé_ãðàäèåíò_591);}.cls-72{fill:url(#Áåçûìÿííûé_ãðàäèåíò_591-2);}.cls-73{fill:url(#Áåçûìÿííûé_ãðàäèåíò_591-3);}.cls-74{fill:url(#Áåçûìÿííûé_ãðàäèåíò_591-4);}.cls-75{fill:url(#Áåçûìÿííûé_ãðàäèåíò_591-5);}.cls-76{fill:url(#Áåçûìÿííûé_ãðàäèåíò_591-6);}.cls-77{fill:url(#Áåçûìÿííûé_ãðàäèåíò_590-3);}.cls-78{fill:url(#Áåçûìÿííûé_ãðàäèåíò_590-4);}.cls-79{fill:url(#Áåçûìÿííûé_ãðàäèåíò_591-7);}.cls-80{fill:url(#Áåçûìÿííûé_ãðàäèåíò_590-5);}.cls-81{fill:url(#Áåçûìÿííûé_ãðàäèåíò_590-6);}.cls-82{fill:url(#Áåçûìÿííûé_ãðàäèåíò_591-8);}.cls-83{fill:url(#Áåçûìÿííûé_ãðàäèåíò_590-7);}.cls-84{fill:url(#Áåçûìÿííûé_ãðàäèåíò_590-8);}.cls-85{fill:url(#Áåçûìÿííûé_ãðàäèåíò_591-9);}.cls-86{fill:url(#Áåçûìÿííûé_ãðàäèåíò_590-9);}.cls-87{fill:url(#Áåçûìÿííûé_ãðàäèåíò_590-10);}.cls-88{fill:url(#Áåçûìÿííûé_ãðàäèåíò_591-10);}.cls-89{fill:url(#Áåçûìÿííûé_ãðàäèåíò_590-11);}.cls-90{fill:url(#Áåçûìÿííûé_ãðàäèåíò_590-12);}.cls-91{fill:url(#Áåçûìÿííûé_ãðàäèåíò_591-11);}</style><clipPath id="clip-path" transform="translate(-3.17 -5.46)"><rect class="cls-1" x="-1511.78" y="-143" width="1800" height="900"/></clipPath><linearGradient id="Áåçûìÿííûé_ãðàäèåíò_590" x1="42.54" y1="295.1" x2="75.68" y2="214.36" gradientUnits="userSpaceOnUse"><stop offset="0" stop-color="#cc9384"/><stop offset="1" stop-color="#564068"/></linearGradient><linearGradient id="Áåçûìÿííûé_ãðàäèåíò_590-2" x1="57.29" y1="335.04" x2="72.65" y2="228.41" xlink:href="#Áåçûìÿííûé_ãðàäèåíò_590"/><linearGradient id="Áåçûìÿííûé_ãðàäèåíò_288" x1="37.54" y1="157.4" x2="77.81" y2="157.4" gradientUnits="userSpaceOnUse"><stop offset="0" stop-color="#ffe3e3"/><stop offset="0.37" stop-color="#ffbfbf"/><stop offset="0.53" stop-color="#f3b7c2"/><stop offset="0.78" stop-color="#d7a3ca"/><stop offset="0.85" stop-color="#dda7c8"/><stop offset="0.93" stop-color="#edb2c4"/><stop offset="1" stop-color="#ffbfbf"/></linearGradient><linearGradient id="Áåçûìÿííûé_ãðàäèåíò_253" x1="36.51" y1="502.39" x2="85.19" y2="502.39" gradientTransform="matrix(1, 0, 0, -1, -3.17, 690.42)" gradientUnits="userSpaceOnUse"><stop offset="0.07" stop-color="#ffefe8"/><stop offset="0.35" stop-color="#ffe5e0"/><stop offset="0.82" stop-color="#ffcbc9"/><stop offset="1" stop-color="#ffbfbf"/></linearGradient><linearGradient id="Áåçûìÿííûé_ãðàäèåíò_288-2" x1="32.18" y1="199.64" x2="83.76" y2="199.64" xlink:href="#Áåçûìÿííûé_ãðàäèåíò_288"/><linearGradient id="Áåçûìÿííûé_ãðàäèåíò_240" x1="30.58" y1="479.26" x2="91.35" y2="479.26" gradientTransform="matrix(1, 0, 0, -1, -3.17, 690.42)" gradientUnits="userSpaceOnUse"><stop offset="0.07" stop-color="#ffefe8"/><stop offset="0.11" stop-color="#ffebe5"/><stop offset="0.44" stop-color="#ffcfcc"/><stop offset="0.73" stop-color="#ffbebd"/><stop offset="0.94" stop-color="#ffb8b8"/></linearGradient><linearGradient id="Áåçûìÿííûé_ãðàäèåíò_221" x1="60.78" y1="14.22" x2="110.72" y2="14.22" gradientUnits="userSpaceOnUse"><stop offset="0" stop-color="#5ad2ce"/><stop offset="0.05" stop-color="#53c4ca"/><stop offset="0.15" stop-color="#41a0bf"/><stop offset="0.29" stop-color="#2465ae"/><stop offset="0.29" stop-color="#2363ad"/><stop offset="0.37" stop-color="#3383b6"/><stop offset="0.54" stop-color="#5ad2ce"/><stop offset="0.62" stop-color="#58cdcc"/><stop offset="0.72" stop-color="#52bfc6"/><stop offset="0.82" stop-color="#49a8bd"/><stop offset="0.93" stop-color="#3b88af"/><stop offset="1" stop-color="#316fa5"/></linearGradient><linearGradient id="Áåçûìÿííûé_ãðàäèåíò_288-3" x1="32.19" y1="108.86" x2="83.17" y2="108.86" xlink:href="#Áåçûìÿííûé_ãðàäèåíò_288"/><linearGradient id="Áåçûìÿííûé_ãðàäèåíò_67" x1="30.64" y1="94" x2="84.73" y2="94" gradientUnits="userSpaceOnUse"><stop offset="0" stop-color="#e89331"/><stop offset="0.25" stop-color="#e6902f"/><stop offset="0.45" stop-color="#de862a"/><stop offset="0.63" stop-color="#d27522"/><stop offset="0.73" stop-color="#c9681c"/><stop offset="1" stop-color="#e89331"/></linearGradient><linearGradient id="Áåçûìÿííûé_ãðàäèåíò_67-2" x1="31.85" y1="123.71" x2="83.52" y2="123.71" xlink:href="#Áåçûìÿííûé_ãðàäèåíò_67"/><linearGradient id="Áåçûìÿííûé_ãðàäèåíò_67-3" x1="34.73" y1="126.16" x2="80.62" y2="126.16" xlink:href="#Áåçûìÿííûé_ãðàäèåíò_67"/><linearGradient id="Áåçûìÿííûé_ãðàäèåíò_67-4" x1="38.12" y1="109.04" x2="83.8" y2="109.04" xlink:href="#Áåçûìÿííûé_ãðàäèåíò_67"/><linearGradient id="Áåçûìÿííûé_ãðàäèåíò_6" x1="31.03" y1="72.64" x2="90.71" y2="72.64" gradientUnits="userSpaceOnUse"><stop offset="0" stop-color="#5ad2ce"/><stop offset="0.57" stop-color="#2363ad"/><stop offset="0.65" stop-color="#2567ae"/><stop offset="0.73" stop-color="#2b73b2"/><stop offset="0.82" stop-color="#3587b8"/><stop offset="0.9" stop-color="#43a3c0"/><stop offset="0.98" stop-color="#54c7cb"/><stop offset="1" stop-color="#5ad2ce"/></linearGradient><linearGradient id="Áåçûìÿííûé_ãðàäèåíò_36" x1="23.9" y1="114.46" x2="58.33" y2="74.45" gradientUnits="userSpaceOnUse"><stop offset="0" stop-color="#8da87e"/><stop offset="0.12" stop-color="#839d75"/><stop offset="0.33" stop-color="#6a7e5f"/><stop offset="0.62" stop-color="#404d3a"/><stop offset="0.96" stop-color="#080907"/><stop offset="1"/></linearGradient><linearGradient id="Áåçûìÿííûé_ãðàäèåíò_67-5" x1="51.62" y1="53.69" x2="69.93" y2="53.69" xlink:href="#Áåçûìÿííûé_ãðàäèåíò_67"/><linearGradient id="Áåçûìÿííûé_ãðàäèåíò_67-6" x1="56.36" y1="18.67" x2="59.31" y2="18.67" xlink:href="#Áåçûìÿííûé_ãðàäèåíò_67"/><linearGradient id="Áåçûìÿííûé_ãðàäèåíò_36-2" x1="60.42" y1="46.21" x2="56.12" y2="64.02" xlink:href="#Áåçûìÿííûé_ãðàäèåíò_36"/><linearGradient id="Áåçûìÿííûé_ãðàäèåíò_36-3" x1="41.32" y1="118.28" x2="41.84" y2="133.12" xlink:href="#Áåçûìÿííûé_ãðàäèåíò_36"/><linearGradient id="Áåçûìÿííûé_ãðàäèåíò_36-4" x1="42.25" y1="119.16" x2="42.65" y2="132.2" xlink:href="#Áåçûìÿííûé_ãðàäèåíò_36"/><linearGradient id="Áåçûìÿííûé_ãðàäèåíò_36-5" x1="40.76" y1="83.21" x2="41.07" y2="99.74" xlink:href="#Áåçûìÿííûé_ãðàäèåíò_36"/><linearGradient id="Áåçûìÿííûé_ãðàäèåíò_219" x1="50.46" y1="74.2" x2="52.55" y2="65.12" gradientUnits="userSpaceOnUse"><stop offset="0" stop-color="#5ad2ce"/><stop offset="1" stop-color="#2363ad"/></linearGradient><linearGradient id="Áåçûìÿííûé_ãðàäèåíò_219-2" x1="11.52" y1="83.45" x2="13.41" y2="75.25" gradientTransform="matrix(1, 0, -0.13, 1, 41.91, 0)" xlink:href="#Áåçûìÿííûé_ãðàäèåíò_219"/><linearGradient id="Áåçûìÿííûé_ãðàäèåíò_219-3" x1="64.86" y1="89.21" x2="67.13" y2="79.36" gradientTransform="matrix(1.01, 0, 0.08, 0.99, -20.59, 2.79)" xlink:href="#Áåçûìÿííûé_ãðàäèåíò_219"/><linearGradient id="Áåçûìÿííûé_ãðàäèåíò_219-4" x1="64.57" y1="84.51" x2="66.62" y2="75.63" gradientTransform="matrix(1.01, 0, 0.08, 0.99, -20.59, 2.79)" xlink:href="#Áåçûìÿííûé_ãðàäèåíò_219"/><linearGradient id="Áåçûìÿííûé_ãðàäèåíò_219-5" x1="-1259.35" y1="90.27" x2="-1257.08" y2="80.43" gradientTransform="matrix(-1.07, 0.02, 0.13, 0.93, -1272.53, 33.56)" xlink:href="#Áåçûìÿííûé_ãðàäèåíò_219"/><linearGradient id="Áåçûìÿííûé_ãðàäèåíò_219-6" x1="-1268.61" y1="70.05" x2="-1266.56" y2="61.17" gradientTransform="matrix(-1.03, 0.01, 0.1, 0.92, -1238.62, 30.35)" xlink:href="#Áåçûìÿííûé_ãðàäèåíò_219"/><linearGradient id="Áåçûìÿííûé_ãðàäèåíò_219-7" x1="-1298.01" y1="84.92" x2="-1296.44" y2="78.09" gradientTransform="matrix(-0.98, 0.01, 0.09, 1.02, -1201.81, 0.61)" xlink:href="#Áåçûìÿííûé_ãðàäèåíò_219"/><linearGradient id="Áåçûìÿííûé_ãðàäèåíò_67-7" x1="39.97" y1="138.25" x2="81.42" y2="138.25" xlink:href="#Áåçûìÿííûé_ãðàäèåíò_67"/><linearGradient id="Áåçûìÿííûé_ãðàäèåíò_36-6" x1="44.76" y1="124.42" x2="45.81" y2="143.92" xlink:href="#Áåçûìÿííûé_ãðàäèåíò_36"/><linearGradient id="Áåçûìÿííûé_ãðàäèåíò_288-4" x1="76.33" y1="200.11" x2="97.6" y2="200.11" xlink:href="#Áåçûìÿííûé_ãðàäèåíò_288"/><linearGradient id="Áåçûìÿííûé_ãðàäèåíò_288-5" x1="73.76" y1="187.36" x2="101.38" y2="187.36" xlink:href="#Áåçûìÿííûé_ãðàäèåíò_288"/><linearGradient id="Áåçûìÿííûé_ãðàäèåíò_221-2" x1="90.98" y1="103.09" x2="126.12" y2="103.09" xlink:href="#Áåçûìÿííûé_ãðàäèåíò_221"/><linearGradient id="Áåçûìÿííûé_ãðàäèåíò_288-6" x1="69.92" y1="168.07" x2="105.79" y2="168.07" xlink:href="#Áåçûìÿííûé_ãðàäèåíò_288"/><linearGradient id="Áåçûìÿííûé_ãðàäèåíò_67-8" x1="68.83" y1="157.61" x2="106.89" y2="157.61" xlink:href="#Áåçûìÿííûé_ãðàäèåíò_67"/><linearGradient id="Áåçûìÿííûé_ãðàäèåíò_67-9" x1="69.68" y1="178.52" x2="106.04" y2="178.52" xlink:href="#Áåçûìÿííûé_ãðàäèåíò_67"/><linearGradient id="Áåçûìÿííûé_ãðàäèåíò_67-10" x1="71.71" y1="180.24" x2="104" y2="180.24" xlink:href="#Áåçûìÿííûé_ãðàäèåíò_67"/><linearGradient id="Áåçûìÿííûé_ãðàäèåíò_67-11" x1="75.03" y1="169.81" x2="107.18" y2="169.81" xlink:href="#Áåçûìÿííûé_ãðàäèåíò_67"/><linearGradient id="Áåçûìÿííûé_ãðàäèåíò_6-2" x1="70.04" y1="144.2" x2="112.04" y2="144.2" xlink:href="#Áåçûìÿííûé_ãðàäèåíò_6"/><linearGradient id="Áåçûìÿííûé_ãðàäèåíò_36-7" x1="65.02" y1="173.63" x2="89.25" y2="145.47" xlink:href="#Áåçûìÿííûé_ãðàäèåíò_36"/><linearGradient id="Áåçûìÿííûé_ãðàäèåíò_67-12" x1="84.53" y1="130.86" x2="97.42" y2="130.86" xlink:href="#Áåçûìÿííûé_ãðàäèåíò_67"/><linearGradient id="Áåçûìÿííûé_ãðàäèåíò_67-13" x1="86.92" y1="104.6" x2="89" y2="104.6" xlink:href="#Áåçûìÿííûé_ãðàäèåíò_67"/><linearGradient id="Áåçûìÿííûé_ãðàäèåíò_36-8" x1="90.73" y1="125.6" x2="87.69" y2="138.13" xlink:href="#Áåçûìÿííûé_ãðàäèåíò_36"/><linearGradient id="Áåçûìÿííûé_ãðàäèåíò_36-9" x1="76.34" y1="174.69" x2="76.71" y2="185.14" xlink:href="#Áåçûìÿííûé_ãðàäèåíò_36"/><linearGradient id="Áåçûìÿííûé_ãðàäèåíò_36-10" x1="76.99" y1="175.32" x2="77.28" y2="184.49" xlink:href="#Áåçûìÿííûé_ãðàäèåíò_36"/><linearGradient id="Áåçûìÿííûé_ãðàäèåíò_36-11" x1="75.95" y1="150.02" x2="76.17" y2="161.65" xlink:href="#Áåçûìÿííûé_ãðàäèåíò_36"/><linearGradient id="Áåçûìÿííûé_ãðàäèåíò_219-8" x1="83.71" y1="145.29" x2="85.19" y2="138.9" xlink:href="#Áåçûìÿííûé_ãðàäèåíò_219"/><linearGradient id="Áåçûìÿííûé_ãðàäèåíò_219-9" x1="56.35" y1="151.8" x2="57.68" y2="146.03" gradientTransform="matrix(1, 0, -0.13, 1, 41.91, 0)" xlink:href="#Áåçûìÿííûé_ãðàäèåíò_219"/><linearGradient id="Áåçûìÿííûé_ãðàäèåíò_219-10" x1="91.55" y1="156.08" x2="93.15" y2="149.15" gradientTransform="matrix(1.01, 0, 0.08, 0.99, -20.59, 2.79)" xlink:href="#Áåçûìÿííûé_ãðàäèåíò_219"/><linearGradient id="Áåçûìÿííûé_ãðàäèåíò_219-11" x1="91.35" y1="152.77" x2="92.79" y2="146.52" gradientTransform="matrix(1.01, 0, 0.08, 0.99, -20.59, 2.79)" xlink:href="#Áåçûìÿííûé_ãðàäèåíò_219"/><linearGradient id="Áåçûìÿííûé_ãðàäèåíò_219-12" x1="-1272.44" y1="161.24" x2="-1270.84" y2="154.31" gradientTransform="matrix(-1.07, 0.02, 0.13, 0.93, -1272.53, 33.56)" xlink:href="#Áåçûìÿííûé_ãðàäèåíò_219"/><linearGradient id="Áåçûìÿííûé_ãðàäèåíò_219-13" x1="-1286.28" y1="144.2" x2="-1284.84" y2="137.95" gradientTransform="matrix(-1.03, 0.01, 0.1, 0.92, -1238.62, 30.35)" xlink:href="#Áåçûìÿííûé_ãðàäèåíò_219"/><linearGradient id="Áåçûìÿííûé_ãðàäèåíò_219-14" x1="-1318.94" y1="155.31" x2="-1317.83" y2="150.5" gradientTransform="matrix(-0.98, 0.01, 0.09, 1.02, -1201.81, 0.61)" xlink:href="#Áåçûìÿííûé_ãðàäèåíò_219"/><linearGradient id="Áåçûìÿííûé_ãðàäèåíò_67-14" x1="76.33" y1="190.37" x2="105.5" y2="190.37" xlink:href="#Áåçûìÿííûé_ãðàäèåíò_67"/><linearGradient id="Áåçûìÿííûé_ãðàäèåíò_36-12" x1="79.71" y1="180.64" x2="80.44" y2="194.36" xlink:href="#Áåçûìÿííûé_ãðàäèåíò_36"/><linearGradient id="Áåçûìÿííûé_ãðàäèåíò_1055" x1="52.85" y1="164.86" x2="91.71" y2="305.85" gradientUnits="userSpaceOnUse"><stop offset="0" stop-color="#9ba820"/><stop offset="1" stop-color="#0f4d30"/></linearGradient><linearGradient id="Áåçûìÿííûé_ãðàäèåíò_1055-2" x1="49.2" y1="203.03" x2="85.8" y2="313.5" xlink:href="#Áåçûìÿííûé_ãðàäèåíò_1055"/><linearGradient id="Áåçûìÿííûé_ãðàäèåíò_591" x1="6.34" y1="253.01" x2="91.74" y2="307.91" gradientUnits="userSpaceOnUse"><stop offset="0" stop-color="#dfb29c"/><stop offset="0.13" stop-color="#d6aa98"/><stop offset="0.36" stop-color="#bd958f"/><stop offset="0.64" stop-color="#94737f"/><stop offset="0.97" stop-color="#5c456a"/><stop offset="1" stop-color="#564068"/></linearGradient><linearGradient id="Áåçûìÿííûé_ãðàäèåíò_591-2" x1="84.81" y1="280.34" x2="115.05" y2="299.78" xlink:href="#Áåçûìÿííûé_ãðàäèåíò_591"/><linearGradient id="Áåçûìÿííûé_ãðàäèåíò_591-3" x1="58.63" y1="301.41" x2="106.33" y2="332.07" xlink:href="#Áåçûìÿííûé_ãðàäèåíò_591"/><linearGradient id="Áåçûìÿííûé_ãðàäèåíò_591-4" x1="68.07" y1="289.76" x2="93.67" y2="289.76" xlink:href="#Áåçûìÿííûé_ãðàäèåíò_591"/><linearGradient id="Áåçûìÿííûé_ãðàäèåíò_591-5" x1="30.03" y1="259.13" x2="65.38" y2="259.13" xlink:href="#Áåçûìÿííûé_ãðàäèåíò_591"/><linearGradient id="Áåçûìÿííûé_ãðàäèåíò_591-6" x1="95.74" y1="280.83" x2="106.97" y2="280.83" xlink:href="#Áåçûìÿííûé_ãðàäèåíò_591"/><linearGradient id="Áåçûìÿííûé_ãðàäèåíò_590-3" x1="31.59" y1="336.01" x2="36.8" y2="301.54" xlink:href="#Áåçûìÿííûé_ãðàäèåíò_590"/><linearGradient id="Áåçûìÿííûé_ãðàäèåíò_590-4" x1="33.32" y1="326.29" x2="38.22" y2="281.87" xlink:href="#Áåçûìÿííûé_ãðàäèåíò_590"/><linearGradient id="Áåçûìÿííûé_ãðàäèåíò_591-7" x1="32.51" y1="335.07" x2="39.83" y2="282.94" xlink:href="#Áåçûìÿííûé_ãðàäèåíò_591"/><linearGradient id="Áåçûìÿííûé_ãðàäèåíò_590-5" x1="44.35" y1="341.66" x2="47.68" y2="319.62" gradientTransform="translate(45.77 31.82) rotate(7.35)" xlink:href="#Áåçûìÿííûé_ãðàäèåíò_590"/><linearGradient id="Áåçûìÿííûé_ãðàäèåíò_590-6" x1="45.46" y1="335.45" x2="48.59" y2="307.04" gradientTransform="translate(45.77 31.82) rotate(7.35)" xlink:href="#Áåçûìÿííûé_ãðàäèåíò_590"/><linearGradient id="Áåçûìÿííûé_ãðàäèåíò_591-8" x1="44.94" y1="341.06" x2="49.62" y2="307.72" gradientTransform="translate(45.77 31.82) rotate(7.35)" xlink:href="#Áåçûìÿííûé_ãðàäèåíò_591"/><linearGradient id="Áåçûìÿííûé_ãðàäèåíò_590-7" x1="-532.3" y1="428.54" x2="-529.33" y2="408.87" gradientTransform="matrix(-0.99, 0.17, 0.17, 0.99, -502.2, 41.7)" xlink:href="#Áåçûìÿííûé_ãðàäèåíò_590"/><linearGradient id="Áåçûìÿííûé_ãðàäèåíò_590-8" x1="-531.31" y1="422.99" x2="-528.52" y2="397.65" gradientTransform="matrix(-0.99, 0.17, 0.17, 0.99, -502.2, 41.7)" xlink:href="#Áåçûìÿííûé_ãðàäèåíò_590"/><linearGradient id="Áåçûìÿííûé_ãðàäèåíò_591-9" x1="-531.77" y1="428" x2="-527.6" y2="398.26" gradientTransform="matrix(-0.99, 0.17, 0.17, 0.99, -502.2, 41.7)" xlink:href="#Áåçûìÿííûé_ãðàäèåíò_591"/><linearGradient id="Áåçûìÿííûé_ãðàäèåíò_590-9" x1="99.23" y1="351.83" x2="98.16" y2="300.97" xlink:href="#Áåçûìÿííûé_ãðàäèåíò_590"/><linearGradient id="Áåçûìÿííûé_ãðàäèåíò_590-10" x1="98.97" y1="341.58" x2="97.28" y2="270.5" xlink:href="#Áåçûìÿííûé_ãðàäèåíò_590"/><linearGradient id="Áåçûìÿííûé_ãðàäèåíò_591-10" x1="97.57" y1="340.45" x2="99.57" y2="279.17" xlink:href="#Áåçûìÿííûé_ãðàäèåíò_591"/><linearGradient id="Áåçûìÿííûé_ãðàäèåíò_590-11" x1="-547.57" y1="408.92" x2="-548.41" y2="369.17" gradientTransform="matrix(-1, 0, 0, 1, -484.27, 0)" xlink:href="#Áåçûìÿííûé_ãðàäèåíò_590"/><linearGradient id="Áåçûìÿííûé_ãðàäèåíò_590-12" x1="-547.77" y1="400.91" x2="-549.09" y2="345.36" gradientTransform="matrix(-1, 0, 0, 1, -484.27, 0)" xlink:href="#Áåçûìÿííûé_ãðàäèåíò_590"/><linearGradient id="Áåçûìÿííûé_ãðàäèåíò_591-11" x1="-548.86" y1="400.02" x2="-547.31" y2="352.13" gradientTransform="matrix(-1, 0, 0, 1, -484.27, 0)" xlink:href="#Áåçûìÿííûé_ãðàäèåíò_591"/></defs><g class="cls-2"><g id="layer_1" data-name="layer 1"><g class="cls-3"><polygon class="cls-4" points="128.27 227.1 123.93 240.67 119.44 247.24 115.99 252.26 110.36 255.89 107.6 261.27 102.34 277.31 97.48 286.81 92.93 288.72 90.31 295.87 76.72 323.88 69.64 322.38 57.1 307.8 46.71 299.9 39.15 284.47 21.68 272.81 8.19 258.37 6.3 239.52 16.48 233.61 50.24 214.04 128.27 227.1"/><polygon class="cls-5" points="128.27 227.1 123.93 240.67 119.44 247.24 117.72 246.88 113.81 242.66 106.57 243.88 110.36 255.89 102.34 277.31 97.48 286.81 93.32 280.31 94.22 255.31 82.17 259.24 82.77 284.53 92.93 288.72 76.72 323.88 72.84 321.88 68.93 305.02 62.59 296.58 65.3 283.32 58.38 256.51 46.93 269.17 32.47 261.04 31.87 238.74 16.48 233.61 50.24 214.04 128.27 227.1"/><polygon class="cls-6" points="77.81 187.4 37.54 187.4 38.41 169.99 38.43 167.21 38.51 157.11 38.52 154.37 38.58 147.15 38.62 144.65 38.62 143.92 38.63 141.41 38.67 136.53 38.71 132.05 38.73 129.26 38.74 127.4 76.63 127.4 76.72 138.65 77.81 187.4"/><path class="cls-7" d="M53,186l-5.49-.09.33,2.75H52.8Zm-1-5.51.19-2.4L47.21,178l.29,2.48Zm-10.36-7.82,0,2.77h4.85l.22-2.68Zm8.75-.12H55.2l.21-2.61L50,169.85Zm2.33-7.19.21-2.59-5.33-.09.32,2.68Zm-11-5.53,0,2.73h3.79l.22-2.66Zm.09-9.72,0,2.5H45l.2-2.45Zm0-3.25,0,2.52h2.06l.2-2.48Zm.09-12.15,0,2.79h4.36l.22-2.71Z" transform="translate(-3.17 -5.46)"/><polygon class="cls-8" points="72.12 140.47 74.16 187.4 69.04 187.4 65.36 140.95 38.67 136.53 38.74 127.4 76.63 127.4 76.72 138.65 72.12 140.47"/><polygon class="cls-9" points="78.04 187.2 37.31 187.2 33.34 188.87 82.02 188.87 78.04 187.2"/><polygon class="cls-10" points="83.76 210.4 32.18 210.4 33.34 188.88 82.03 188.88 83.76 210.4"/><polygon class="cls-8" points="79.51 210.4 70.59 210.4 69.17 188.88 76.22 188.88 79.51 210.4"/><polygon class="cls-11" points="83.47 208.6 32.37 208.67 27.41 213.73 88.18 213.73 83.47 208.6"/><g class="cls-12"><polygon class="cls-13" points="41.3 193.97 36.7 193.97 36.39 191.41 41.5 191.49 41.3 193.97"/></g><g class="cls-12"><polygon class="cls-13" points="62.16 201.26 57.48 201.26 57.17 198.66 62.37 198.74 62.16 201.26"/><polygon class="cls-13" points="51.74 204.3 46.79 204.3 46.46 201.54 51.96 201.63 51.74 204.3"/></g><path class="cls-14" d="M109.09,17.91c-2.62,1.55-5.91,1.44-8.92.93-.38-.08-.76-.13-1.14-.2a47.45,47.45,0,0,0-7.81-1.15c-3.3-.09-6.46,1.27-9.67,2.13a15.81,15.81,0,0,1-3.52.6,8.65,8.65,0,0,1-6-1.55l-.42-.34a11,11,0,0,0-1.44-1.21,5.86,5.86,0,0,0-5-.29,15.59,15.59,0,0,0-4.23,2.55c-.06-2.86-.08-5.85-.11-8.73A22.5,22.5,0,0,1,68.67,8.2a7.91,7.91,0,0,1,4.89,1.39,5.19,5.19,0,0,1,1.74,2.06,4.22,4.22,0,0,0,1,1.82,3,3,0,0,0,2.54.1L80,13.24c3.36-1.08,6.62-2.48,10.09-3.05,2.9-.47,6.34-.8,9.1.37a20,20,0,0,1,1.86.91A35.9,35.9,0,0,0,105,13.4a12.35,12.35,0,0,0,5.71.69c-1.33,1.37-3.83,1.54-5.73,1.34a23.22,23.22,0,0,1-4.87-1.3l-.69-.22a13.55,13.55,0,0,0-6.2.13,16.65,16.65,0,0,1,6.51,1.46c.53.2,1,.44,1.49.67C103.55,17.38,106.56,18.55,109.09,17.91Z" transform="translate(-3.17 -5.46)"/><path class="cls-15" d="M80,13.24a31.21,31.21,0,0,0-2,7,8.65,8.65,0,0,1-6-1.55l-.42-.34a31.66,31.66,0,0,1,2-8.74,5.19,5.19,0,0,1,1.74,2.06,4.22,4.22,0,0,0,1,1.82,3,3,0,0,0,2.54.1Z" transform="translate(-3.17 -5.46)"/><path class="cls-15" d="M109.09,17.91c-2.62,1.55-5.91,1.44-8.92.93-.38-.08-.76-.13-1.14-.2.2-1.06.43-2.1.71-3.14.53.2,1,.44,1.49.67C103.55,17.38,106.56,18.55,109.09,17.91Z" transform="translate(-3.17 -5.46)"/><path class="cls-15" d="M105,15.43a23.22,23.22,0,0,1-4.87-1.3s0,0,0-.05c.27-.88.6-1.75.93-2.61A35.9,35.9,0,0,0,105,13.4a12.35,12.35,0,0,0,5.71.69C109.39,15.46,106.89,15.63,105,15.43Z" transform="translate(-3.17 -5.46)"/><polygon class="cls-16" points="81.65 122.29 33.71 122.29 32.19 95.42 83.17 95.42 81.65 122.29"/><g class="cls-12"><polygon class="cls-13" points="43.4 116.44 39.05 116.44 38.76 114.02 43.59 114.1 43.4 116.44"/><polygon class="cls-13" points="47.19 113.52 42.59 113.52 42.28 110.95 47.39 111.04 47.19 113.52"/><polygon class="cls-13" points="42.14 107.65 37.27 107.65 36.95 104.94 42.35 105.03 42.14 107.65"/></g><g class="cls-12"><polygon class="cls-13" points="61.65 111.81 56.93 111.81 56.61 109.18 61.86 109.27 61.65 111.81"/><polygon class="cls-13" points="66.78 102.24 62.29 102.24 61.99 99.74 66.98 99.83 66.78 102.24"/></g><polygon class="cls-8" points="75.9 102.54 75.48 110.18 78.78 111.67 77.47 112.61 75.33 112.75 74.78 122.29 68.82 122.29 67.47 112.53 64.73 112.37 63.68 111.77 67.23 110.89 65.99 102.06 56.42 100.77 54.94 112.61 50.2 112.61 48.79 111.77 54.19 100.46 43.67 99.07 42.83 112.61 36.85 111.77 42.01 98.85 32.29 97.58 32.16 95.41 83.1 95.42 82.83 100.15 75.9 102.54"/><polygon class="cls-17" points="84.72 92.58 84.51 95.42 30.84 95.42 30.64 92.58 84.72 92.58"/><polygon class="cls-18" points="83.52 122.29 83.32 125.14 32.05 125.14 31.85 122.29 83.52 122.29"/><polygon class="cls-19" points="80.62 125.14 80.46 127.18 34.9 127.18 34.73 125.14 80.62 125.14"/><path class="cls-20" d="M39.06,100.86,40,115.77h2.89l.76-14.91h1L44,117.22H39.23l-1.11-16.36Zm38.42,0,1.07,16.36h4.6l.65-16.36h-1l-.74,14.91H79.29l-.9-14.91Zm-28.38,0,1.44,16.36h6.21l.89-16.36H56.31l-1,14.91H51.54l-1.22-14.91Zm15.08,0,1.44,16.36h6.21l.89-16.36H71.39l-1,14.91H66.62L65.4,100.86Z" transform="translate(-3.17 -5.46)"/><path class="cls-21" d="M90.71,96.57,87.9,98H33.82L31,96.57A314.32,314.32,0,0,0,60.85,47.25,299.54,299.54,0,0,0,90.71,96.57Z" transform="translate(-3.17 -5.46)"/><path class="cls-22" d="M55.64,67.61a150.82,150.82,0,0,1-4.33,29H38.5c-.93,0-1.84,0-2.77,0A118.22,118.22,0,0,0,52.44,67.34C53.69,67.24,54.4,67.71,55.64,67.61Z" transform="translate(-3.17 -5.46)"/><path class="cls-23" d="M59.53,42.79A85.92,85.92,0,0,1,51.62,64.6H69.93a135.58,135.58,0,0,1-7.45-21.81Z" transform="translate(-3.17 -5.46)"/><polygon class="cls-24" points="56.36 37.33 59.31 37.33 57.6 0 56.36 37.33"/><polygon class="cls-25" points="35.88 95.41 36.82 110.32 37.81 110.32 37.21 95.41 35.88 95.41"/><polygon class="cls-25" points="40.81 111.76 41.49 95.41 42.47 95.41 41.64 111.76 40.81 111.76"/><polygon class="cls-25" points="47.15 95.41 48.36 110.32 48.79 110.32 47.97 95.42 47.15 95.41"/><polygon class="cls-25" points="54.46 95.41 53.58 111.76 54.02 111.76 55.47 95.41 54.46 95.41"/><polygon class="cls-25" points="61.01 95.41 62.45 111.76 62.06 111.76 60.32 95.41 61.01 95.41"/><polygon class="cls-25" points="68.21 95.41 67.21 110.32 66.64 110.32 67.26 95.42 68.21 95.41"/><polygon class="cls-25" points="79.64 95.41 78.91 110.32 77.9 110.32 78.77 95.42 79.64 95.41"/><polygon class="cls-25" points="74.31 95.41 75.38 111.76 74.84 111.76 73.36 95.42 74.31 95.41"/><polygon class="cls-25" points="79.6 96.36 80.6 96.2 80.63 95.41 79.64 95.41 79.6 96.36"/><polygon class="cls-25" points="74.39 96.6 75.27 96.36 75.21 95.41 74.31 95.41 74.39 96.6"/><polygon class="cls-25" points="69.48 96.6 68.11 96.86 68.21 95.41 69.54 95.41 69.48 96.6"/><polygon class="cls-25" points="61.13 96.86 62.36 97.05 62.22 95.41 61.01 95.41 61.13 96.86"/><polygon class="cls-25" points="54.46 95.41 54.36 97.33 53.03 96.86 53.13 95.41 54.46 95.41"/><polygon class="cls-25" points="47.3 97.33 46.07 97.08 45.92 95.41 47.15 95.41 47.3 97.33"/><polygon class="cls-25" points="41.49 95.41 41.42 97.1 40.39 96.9 40.47 95.41 41.49 95.41"/><polygon class="cls-25" points="35.88 95.41 36 97.22 35.05 96.95 34.95 95.41 35.88 95.41"/><polygon class="cls-26" points="37.21 95.41 37.81 110.32 39.71 110.32 40.47 95.41 37.21 95.41"/><polygon class="cls-26" points="47.97 95.42 48.79 110.32 52.13 110.32 53.13 95.41 47.97 95.42"/><polygon class="cls-26" points="62.22 95.41 63.44 110.32 66.64 110.32 67.26 95.42 62.22 95.41"/><polygon class="cls-26" points="75.21 95.41 76.12 110.32 77.9 110.32 78.77 95.42 75.21 95.41"/><polygon class="cls-25" points="30.7 93.46 67.43 94 68.21 95.41 73.36 95.42 74.6 93.72 84.67 93.3 84.72 92.58 30.64 92.58 30.7 93.46"/><path class="cls-27" d="M59.53,44.07a72.34,72.34,0,0,1-5.81,19.67h4.92a97.13,97.13,0,0,0,2.13-19.67Z" transform="translate(-3.17 -5.46)"/><polygon class="cls-28" points="37.5 122.29 45.42 122.29 45.38 125.14 37.65 125.14 37.5 122.29"/><polygon class="cls-29" points="38.51 126.16 46.42 126.16 46.39 127.18 38.65 127.18 38.51 126.16"/><polygon class="cls-30" points="45.87 93.68 45.84 95.42 36.13 95.42 36.04 93.54 45.87 93.68"/><polygon class="cls-25" points="34.73 125.14 80.62 125.14 80.62 126.16 73.69 126.28 73.39 127.15 68.1 127.15 67.75 126.28 34.74 125.93 34.73 125.14"/><path class="cls-31" d="M80.24,127.53H47.94c-4.3,0-8.61-.09-12.92.13h-.1v.1l.29,2.84-.1-2.74c4.28.2,8.55.09,12.82.12h32.3l6.46-.21Z" transform="translate(-3.17 -5.46)"/><path class="cls-31" d="M44,117.22c-1.58,0-3.17.08-4.75.08h-.08v-.08c-.19-2.72-.44-5.45-.58-8.17s-.34-5.46-.44-8.19c.27,2.72.45,5.45.67,8.17s.35,5.45.52,8.18l-.08-.08C40.81,117.14,42.4,117.17,44,117.22Z" transform="translate(-3.17 -5.46)"/><path class="cls-31" d="M40,115.77l2.89-.07-.07.07c.11-2.49.17-5,.33-7.46s.28-5,.5-7.45c0,2.49-.17,5-.26,7.46s-.29,5-.43,7.46v.07h-.07Z" transform="translate(-3.17 -5.46)"/><path class="cls-31" d="M49,100.88c.34,2.71.6,5.44.87,8.16s.52,5.44.75,8.17l-.09-.09q3.1,0,6.21.1-3.11.07-6.21.09h-.08v-.09c-.28-2.72-.57-5.44-.78-8.16S49.19,103.61,49,100.88Z" transform="translate(-3.17 -5.46)"/><path class="cls-31" d="M51.54,115.77c1.26,0,2.51-.07,3.77-.08l-.08.08c.16-2.49.25-5,.46-7.46s.36-5,.62-7.45c-.08,2.49-.25,5-.39,7.47s-.36,5-.53,7.45v.07h-.07C54.05,115.85,52.8,115.81,51.54,115.77Z" transform="translate(-3.17 -5.46)"/><path class="cls-31" d="M78.39,100.86c.24,2.48.38,5,.57,7.45s.26,5,.4,7.46l-.07-.07,2.79.07-2.79.08h-.07v-.07c-.16-2.49-.38-5-.5-7.46S78.44,103.35,78.39,100.86Z" transform="translate(-3.17 -5.46)"/><path class="cls-31" d="M83.8,100.86c0,2.73-.13,5.46-.21,8.18s-.24,5.45-.36,8.18v.08h-.08c-1.53,0-3.07,0-4.6-.08,1.53,0,3.07-.08,4.6-.09l-.08.08c.09-2.72.14-5.45.29-8.18S83.61,103.58,83.8,100.86Z" transform="translate(-3.17 -5.46)"/><path class="cls-31" d="M65.4,100.86c.29,2.48.49,5,.72,7.45s.38,5,.58,7.46l-.08-.08c1.26,0,2.51,0,3.77.08-1.26,0-2.51.08-3.77.08h-.07v-.07c-.21-2.48-.49-5-.65-7.45S65.51,103.35,65.4,100.86Z" transform="translate(-3.17 -5.46)"/><path class="cls-31" d="M72.72,100.86c-.07,2.73-.21,5.46-.34,8.18s-.29,5.46-.46,8.18v.09h-.09q-3.1,0-6.21-.09,3.1-.09,6.21-.1l-.09.09c.12-2.73.24-5.45.43-8.18S72.49,103.58,72.72,100.86Z" transform="translate(-3.17 -5.46)"/><path class="cls-15" d="M51.62,64.6H69.93l-2.44,1.24C69.12,76.77,72.9,87,77.85,97.27l-15.14.24a242.61,242.61,0,0,1-2.09-31.67Z" transform="translate(-3.17 -5.46)"/><polygon class="cls-32" points="87.53 91.12 84.72 92.58 30.64 92.58 27.85 91.12 87.53 91.12"/><path class="cls-32" d="M47.44,74.32l.55.83a9.5,9.5,0,0,0,4.89.35c1.23-1.78,1.8-6.81,1.8-6.81Z" transform="translate(-3.17 -5.46)"/><path class="cls-33" d="M54.68,68.69a23,23,0,0,1-2,6,11.72,11.72,0,0,1-5.26-.35A18.2,18.2,0,0,0,51,68.55C52.14,68.59,53.5,68.66,54.68,68.69Z" transform="translate(-3.17 -5.46)"/><path class="cls-32" d="M39.61,83.57l.38.76a8,8,0,0,0,4.25.32c1.3-1.62,2.42-6.19,2.42-6.19Z" transform="translate(-3.17 -5.46)"/><path class="cls-34" d="M46.66,78.46a24.8,24.8,0,0,1-2.47,5.43,9.65,9.65,0,0,1-4.58-.32,20.61,20.61,0,0,0,4.07-5.16C44.72,78.44,45.62,78.43,46.66,78.46Z" transform="translate(-3.17 -5.46)"/><path class="cls-32" d="M49.33,91.12,50,92a10.18,10.18,0,0,0,5.25.37C56.38,90.47,56.53,85,56.53,85Z" transform="translate(-3.17 -5.46)"/><path class="cls-35" d="M56.53,85A23.57,23.57,0,0,1,55,91.5a12.45,12.45,0,0,1-5.64-.38,17.43,17.43,0,0,0,3.21-6.23Z" transform="translate(-3.17 -5.46)"/><path class="cls-32" d="M49,86.45l.59.82a9.22,9.22,0,0,0,4.73.33c1-1.73,1.17-6.63,1.17-6.63Z" transform="translate(-3.17 -5.46)"/><path class="cls-36" d="M55.45,81A21.27,21.27,0,0,1,54,86.79,11.13,11.13,0,0,1,49,86.45a15.87,15.87,0,0,0,2.9-5.61C53,80.87,54.31,80.94,55.45,81Z" transform="translate(-3.17 -5.46)"/><path class="cls-32" d="M88.1,91.56l-.49.87a11.66,11.66,0,0,1-5.47.46c-1.64-1.79-3-6.89-3-6.89Z" transform="translate(-3.17 -5.46)"/><path class="cls-37" d="M79.15,86a25.11,25.11,0,0,0,3.07,6,14,14,0,0,0,5.88-.48A22.47,22.47,0,0,1,83,85.86C81.64,85.93,80.48,85.93,79.15,86Z" transform="translate(-3.17 -5.46)"/><path class="cls-32" d="M80.32,85l-.45.76a10.07,10.07,0,0,1-4.78.35C73.72,84.49,72.68,80,72.68,80Z" transform="translate(-3.17 -5.46)"/><path class="cls-38" d="M72.68,80a22.27,22.27,0,0,0,2.51,5.38A12.09,12.09,0,0,0,80.32,85a18.39,18.39,0,0,1-4-5.18C75.17,79.84,73.84,79.92,72.68,80Z" transform="translate(-3.17 -5.46)"/><path class="cls-32" d="M75.05,72l-.33.66a6.25,6.25,0,0,1-3.48.31c-1-1.37-1.74-5.26-1.74-5.26Z" transform="translate(-3.17 -5.46)"/><path class="cls-39" d="M69.5,67.71a20.19,20.19,0,0,0,1.82,4.62A7.59,7.59,0,0,0,75.05,72c-1.2-1.28-2.73-2.63-3.44-4.26C70.77,67.77,70.35,67.68,69.5,67.71Z" transform="translate(-3.17 -5.46)"/><path class="cls-25" d="M61.4,42.71c-.22,8.12-.33,15.61-.16,21.42l5.82.08c-2-5.38-3.65-13-5.2-21.42Z" transform="translate(-3.17 -5.46)"/><path class="cls-25" d="M80.06,132.43l-.61,11.64H77c0-5.29-.7-9.47-1.5-9.47s-1.48,4.18-1.52,9.47H70.62c-.07-5.29-1.06-9.47-2.27-9.47s-2.21,4.18-2.28,9.47H63.66c-.09-5.29-1.28-9.47-2.75-9.47s-2.66,4.18-2.75,9.47H54.62c-.07-5.29-1.06-9.47-2.27-9.47s-2.19,4.18-2.26,9.47H46.68c0-5.29-.7-9.47-1.5-9.47s-1.47,4.18-1.5,9.47H41.94l-.61-11.64Z" transform="translate(-3.17 -5.46)"/><path class="cls-40" d="M81.42,132.43l0,.68-.62,11H78.18c0-5.29-.75-9.47-1.61-9.47S75,138.78,75,144.07H71.32a33,33,0,0,0-.57-5.86c-.43-2.2-1.11-3.61-1.86-3.61-1.31,0-2.37,4.18-2.44,9.47H64.21c-.11-5.29-1.54-9.47-3.29-9.47s-3.17,4.18-3.28,9.47H54.19c-.07-5.29-1.13-9.47-2.42-9.47s-2.36,4.18-2.43,9.47H45.69c0-5.29-.74-9.47-1.6-9.47-.6,0-1.13,2.08-1.41,5.18-.12,1.28-.18,2.74-.2,4.29H40.62L40,133l0-.53Z" transform="translate(-3.17 -5.46)"/><path class="cls-25" d="M81.42,132.43l0,.68-7.26.25-.68,10.71H71.32a33,33,0,0,0-.57-5.86l-.18-4.74L40,133l0-.53Z" transform="translate(-3.17 -5.46)"/><path class="cls-41" d="M48.28,133.13l-.14,10.94H45.69c0-5.29-.74-9.47-1.6-9.47-.6,0-1.13,2.08-1.41,5.18L42.17,133Z" transform="translate(-3.17 -5.46)"/><path class="cls-31" d="M45.69,144.07c-.13-1.63-.16-3.27-.38-4.89-.07-.81-.16-1.62-.31-2.42a9.24,9.24,0,0,0-.29-1.18c-.12-.37-.22-.84-.62-1,.43.1.58.58.74.93a10.06,10.06,0,0,1,.34,1.19c.18.81.3,1.62.4,2.44A35,35,0,0,1,45.69,144.07Z" transform="translate(-3.17 -5.46)"/><path class="cls-31" d="M54.19,144.07a46.59,46.59,0,0,0-.54-5,18.71,18.71,0,0,0-.53-2.47,6.87,6.87,0,0,0-.47-1.16c-.2-.35-.45-.75-.88-.81.44,0,.76.41,1,.75a5.57,5.57,0,0,1,.52,1.17,17.53,17.53,0,0,1,.63,2.47A27.93,27.93,0,0,1,54.19,144.07Z" transform="translate(-3.17 -5.46)"/><path class="cls-31" d="M64.21,144.07a32.37,32.37,0,0,0-.74-5.21,12.45,12.45,0,0,0-.79-2.49,4.66,4.66,0,0,0-.68-1.11,1.52,1.52,0,0,0-1.08-.66c.95,0,1.54.94,1.92,1.69a12.5,12.5,0,0,1,.89,2.51A22.79,22.79,0,0,1,64.21,144.07Z" transform="translate(-3.17 -5.46)"/><path class="cls-31" d="M68.89,134.6c-.43.06-.69.46-.88.81a5.91,5.91,0,0,0-.48,1.16A15.85,15.85,0,0,0,67,139a49.77,49.77,0,0,0-.55,5,27.84,27.84,0,0,1,.29-5.08,16.35,16.35,0,0,1,.62-2.48,7.24,7.24,0,0,1,.53-1.17C68.13,135,68.45,134.61,68.89,134.6Z" transform="translate(-3.17 -5.46)"/><path class="cls-31" d="M76.57,134.6c-.4.13-.5.61-.63,1a10.14,10.14,0,0,0-.29,1.18c-.15.8-.24,1.62-.31,2.43-.22,1.62-.26,3.25-.39,4.89a36.75,36.75,0,0,1,.12-4.92c.1-.81.23-1.63.41-2.43a8.46,8.46,0,0,1,.34-1.19C76,135.18,76.14,134.69,76.57,134.6Z" transform="translate(-3.17 -5.46)"/><path class="cls-42" d="M31,96.57c7.15-.2,14.31-.17,21.47-.26,7.15.07,14.31,0,21.47.19-7.16.21-14.31.17-21.47.26C45.34,96.69,38.19,96.76,31,96.57Z" transform="translate(-3.17 -5.46)"/><path class="cls-43" d="M30.58,219.18l4.91-5.11,0,.05.37-9.9.47-9.9v-.14l.13-.05,4-1.68-.13.2,1.45-48.59.22.23H40.41v-.21l-.65-11.63.24.2-1.9.2-.22,0,0-.23-.17-2,.22.2H35l0-.2-.29-2.83,0-.25h2.2l-.22.23-1.52-26.87.22.21H33.81v-.21l-.2-2.84.12.18-2.79-1.46-.23-.12.15-.21A274.57,274.57,0,0,0,47.79,70.92a108.44,108.44,0,0,0,7.05-13.57,102.42,102.42,0,0,0,4.5-14.61v0L60.77,5.46l-1,37.33v0a95.38,95.38,0,0,1-4.48,14.69,108.65,108.65,0,0,1-7.08,13.63,276.71,276.71,0,0,1-17,25.56l-.08-.33,2.79,1.46.11,0V98l.2,2.84-.22-.2h1.55l0,.21,1.51,26.87,0,.23H34.93l.22-.24.29,2.84-.22-.2h2.89l0,.2.16,2.05-.24-.21,1.89-.2.23,0,0,.23.65,11.64-.22-.21h1.55v.23l-1.45,48.58v.14l-.13.06-4,1.68.13-.2-.51,9.9-.6,9.89v0l0,0Z" transform="translate(-3.17 -5.46)"/><polygon class="cls-44" points="97.6 192.08 97.56 192.74 97.3 196.17 96.53 207.03 94.28 207.16 92.22 207.28 77.29 208.13 76.58 196.67 76.39 193.38 76.33 192.47 97.6 192.08"/><g class="cls-12"><polygon class="cls-13" points="87.46 202.86 83.4 202.86 83.13 200.6 87.64 200.67 87.46 202.86"/><polygon class="cls-13" points="88.35 206.52 84.31 206.52 84.04 204.27 88.53 204.34 88.35 206.52"/></g><g class="cls-12"><polygon class="cls-13" points="90.65 197.49 86.33 197.49 86.04 195.08 90.84 195.16 90.65 197.49"/></g><polygon class="cls-8" points="97.56 192.74 97.3 196.17 94.79 197.19 94.28 207.16 92.22 207.28 91.64 197.13 76.58 196.67 76.39 193.38 97.56 192.74"/><polygon class="cls-45" points="101.38 180.82 100.57 190.05 100.21 194.19 96.86 194.33 95.45 194.38 75.12 195.19 74.66 189.97 73.77 179.52 101.38 180.82"/><g class="cls-12"><polygon class="cls-13" points="82.03 192.77 77.73 192.77 77.45 190.38 82.22 190.46 82.03 192.77"/></g><g class="cls-12"><polygon class="cls-13" points="90.16 190.86 86.71 190.86 86.48 188.95 90.31 189.01 90.16 190.86"/></g><path class="cls-8" d="M104.55,186.28l-.8,9.23-2.56,0L100,199.78l-1.42.05-.12-4.4H77.84L76.94,185Z" transform="translate(-3.17 -5.46)"/><path class="cls-46" d="M125,105.68c-1.85,1.09-4.16,1-6.28.66l-.81-.14a33.65,33.65,0,0,0-5.49-.81c-2.33-.07-4.55.9-6.81,1.5a11.29,11.29,0,0,1-2.47.42,6.17,6.17,0,0,1-4.24-1.09l-.29-.24a8.06,8.06,0,0,0-1-.85,4.13,4.13,0,0,0-3.54-.21,11.5,11.5,0,0,0-3,1.8c0-2,0-4.12-.07-6.15a15.93,15.93,0,0,1,5.55-1.72,5.61,5.61,0,0,1,3.44,1,3.58,3.58,0,0,1,1.22,1.45,3,3,0,0,0,.75,1.28,2,2,0,0,0,1.78.07l.8-.23a50.22,50.22,0,0,1,7.09-2.15c2-.33,4.47-.56,6.41.26.45.19.88.41,1.31.64a24.49,24.49,0,0,0,2.77,1.36,8.74,8.74,0,0,0,4,.49c-.94,1-2.7,1.08-4,.94a16,16,0,0,1-3.43-.92l-.49-.15a9.46,9.46,0,0,0-4.36.09,11.84,11.84,0,0,1,4.58,1c.37.14.72.31,1,.47C121.07,105.31,123.19,106.13,125,105.68Z" transform="translate(-3.17 -5.46)"/><polygon class="cls-47" points="104.72 177.52 70.99 177.52 69.92 158.61 105.79 158.61 104.72 177.52"/><g class="cls-12"><polygon class="cls-13" points="76.82 176.55 72.47 176.55 72.18 174.13 77.01 174.22 76.82 176.55"/><polygon class="cls-13" points="80.61 173.63 76.01 173.63 75.71 171.07 80.82 171.16 80.61 173.63"/><polygon class="cls-13" points="75.56 167.77 70.7 167.77 70.37 165.06 75.77 165.15 75.56 167.77"/></g><g class="cls-12"><polygon class="cls-13" points="96.14 163.67 91.66 163.67 91.36 161.17 96.34 161.25 96.14 163.67"/></g><polygon class="cls-8" points="100.67 163.62 100.38 169 102.7 170.05 101.78 170.7 100.28 170.81 99.89 177.52 95.69 177.52 94.75 170.65 92.82 170.54 92.08 170.11 94.58 169.5 93.7 163.28 86.97 162.37 85.93 170.7 82.59 170.7 81.6 170.11 85.4 162.16 78 161.18 77.41 170.7 73.19 170.11 76.83 161.03 69.99 160.13 69.9 158.6 105.74 158.61 105.55 161.94 100.67 163.62"/><polygon class="cls-48" points="106.89 156.61 106.73 158.61 68.97 158.61 68.83 156.61 106.89 156.61"/><polygon class="cls-49" points="106.04 177.52 105.9 179.52 69.82 179.52 69.68 177.52 106.04 177.52"/><polygon class="cls-50" points="104 179.52 103.88 180.96 71.82 180.96 71.71 179.52 104 179.52"/><path class="cls-51" d="M75.69,164.06l.66,10.49h2l.54-10.49h.72l-.48,11.5H75.81L75,164.06Zm27,0,.75,11.5h3.24l.46-11.5h-.69L106,174.55h-2l-.63-10.49Zm-20,0,1,11.5h4.37l.63-11.5h-.94l-.7,10.49H84.47l-.85-10.49Zm10.61,0,1,11.5h4.37l.63-11.5h-.94l-.7,10.49H95.09l-.86-10.49Z" transform="translate(-3.17 -5.46)"/><path class="cls-52" d="M112,161l-2,1H72l-2-1a221.72,221.72,0,0,0,21-34.71A210.76,210.76,0,0,0,112,161Z" transform="translate(-3.17 -5.46)"/><path class="cls-53" d="M87.36,140.66a105.94,105.94,0,0,1-3,20.37h-9c-.66,0-1.29,0-2,0a83,83,0,0,0,11.76-20.56C86,140.4,86.49,140.73,87.36,140.66Z" transform="translate(-3.17 -5.46)"/><path class="cls-54" d="M90.1,123.19a60.47,60.47,0,0,1-5.57,15.35H97.42a95.41,95.41,0,0,1-5.25-15.35Z" transform="translate(-3.17 -5.46)"/><polygon class="cls-55" points="86.92 117.73 89 117.73 87.8 91.46 86.92 117.73"/><polygon class="cls-25" points="72.52 158.6 73.17 169.09 73.87 169.09 73.45 158.6 72.52 158.6"/><polygon class="cls-25" points="75.98 170.11 76.46 158.6 77.15 158.6 76.57 170.11 75.98 170.11"/><polygon class="cls-25" points="80.44 158.6 81.3 169.09 81.6 169.09 81.02 158.61 80.44 158.6"/><polygon class="cls-25" points="85.59 158.6 84.97 170.11 85.28 170.11 86.3 158.6 85.59 158.6"/><polygon class="cls-25" points="90.19 158.6 91.21 170.11 90.94 170.11 89.71 158.6 90.19 158.6"/><polygon class="cls-25" points="95.27 158.6 94.56 169.09 94.16 169.09 94.6 158.61 95.27 158.6"/><polygon class="cls-25" points="103.31 158.6 102.79 169.09 102.08 169.09 102.7 158.61 103.31 158.6"/><polygon class="cls-25" points="99.56 158.6 100.31 170.11 99.93 170.11 98.89 158.61 99.56 158.6"/><polygon class="cls-25" points="103.28 159.27 103.98 159.16 104 158.6 103.31 158.6 103.28 159.27"/><polygon class="cls-25" points="99.61 159.44 100.23 159.27 100.19 158.6 99.56 158.6 99.61 159.44"/><polygon class="cls-25" points="96.16 159.44 95.2 159.62 95.27 158.6 96.2 158.6 96.16 159.44"/><polygon class="cls-25" points="90.28 159.62 91.15 159.76 91.05 158.6 90.19 158.6 90.28 159.62"/><polygon class="cls-25" points="85.59 158.6 85.52 159.96 84.59 159.62 84.66 158.6 85.59 158.6"/><polygon class="cls-25" points="80.55 159.96 79.69 159.78 79.58 158.6 80.44 158.6 80.55 159.96"/><polygon class="cls-25" points="76.46 158.6 76.41 159.79 75.69 159.65 75.75 158.6 76.46 158.6"/><polygon class="cls-25" points="72.52 158.6 72.6 159.87 71.93 159.69 71.86 158.6 72.52 158.6"/><polygon class="cls-26" points="73.45 158.6 73.87 169.09 75.21 169.09 75.75 158.6 73.45 158.6"/><polygon class="cls-26" points="81.02 158.61 81.6 169.09 83.95 169.09 84.66 158.6 81.02 158.61"/><polygon class="cls-26" points="91.05 158.6 91.91 169.09 94.16 169.09 94.6 158.61 91.05 158.6"/><polygon class="cls-26" points="100.19 158.6 100.83 169.09 102.08 169.09 102.7 158.61 100.19 158.6"/><polygon class="cls-25" points="68.87 157.23 94.71 157.61 95.27 158.6 98.89 158.61 99.76 157.41 106.84 157.12 106.89 156.61 68.83 156.61 68.87 157.23"/><path class="cls-56" d="M90.1,124.09A51.49,51.49,0,0,1,86,137.94h3.46A68.79,68.79,0,0,0,91,124.09Z" transform="translate(-3.17 -5.46)"/><polygon class="cls-57" points="73.66 177.52 79.23 177.52 79.2 179.52 73.76 179.52 73.66 177.52"/><polygon class="cls-58" points="74.36 180.24 79.93 180.24 79.91 180.96 74.47 180.96 74.36 180.24"/><polygon class="cls-59" points="79.55 157.39 79.52 158.61 72.69 158.61 72.63 157.28 79.55 157.39"/><polygon class="cls-25" points="71.71 179.52 104 179.52 104 180.24 99.12 180.33 98.91 180.94 95.19 180.94 94.94 180.33 71.71 180.08 71.71 179.52"/><path class="cls-31" d="M104.67,182.82H81.94c-3,0-6.06-.05-9.09.1h-.07V183l.21,2L72.92,183c3,.15,6,.07,9,.09h22.73l4.54-.16Z" transform="translate(-3.17 -5.46)"/><path class="cls-31" d="M79.16,175.56c-1.12.05-2.23.08-3.35.09h-.08v-.08c-.14-1.92-.34-3.83-.42-5.75s-.23-3.84-.28-5.76c.22,1.91.35,3.83.5,5.74s.25,3.84.36,5.76l-.08-.08C76.93,175.48,78,175.52,79.16,175.56Z" transform="translate(-3.17 -5.46)"/><path class="cls-31" d="M76.35,174.55c.68,0,1.35-.07,2-.07l-.07.07c.08-1.75.1-3.51.22-5.25s.21-3.5.39-5.24c0,1.75-.1,3.5-.15,5.25s-.21,3.5-.32,5.24v.07h-.07C77.7,174.62,77,174.57,76.35,174.55Z" transform="translate(-3.17 -5.46)"/><path class="cls-31" d="M82.7,164.07c.26,1.91.44,3.82.64,5.74s.37,3.83.52,5.75l-.09-.09c1.46,0,2.92,0,4.37.09-1.45.06-2.91.09-4.37.1h-.08v-.09c-.2-1.91-.41-3.82-.55-5.74S82.8,166,82.7,164.07Z" transform="translate(-3.17 -5.46)"/><path class="cls-31" d="M84.47,174.55c.89,0,1.77-.08,2.66-.08l-.08.07c.11-1.75.15-3.5.31-5.24s.26-3.5.47-5.24c0,1.75-.15,3.5-.24,5.25s-.26,3.5-.38,5.25v.07h-.07C86.24,174.63,85.36,174.58,84.47,174.55Z" transform="translate(-3.17 -5.46)"/><path class="cls-31" d="M103.37,164.06c.2,1.74.29,3.49.43,5.24s.18,3.5.27,5.25l-.07-.07c.66,0,1.31.05,2,.07-.66,0-1.31.06-2,.07h-.06v-.07c-.12-1.74-.29-3.49-.36-5.24S103.38,165.81,103.37,164.06Z" transform="translate(-3.17 -5.46)"/><path class="cls-31" d="M107.18,164.06c0,1.92-.07,3.84-.12,5.76s-.17,3.83-.26,5.75v.08h-.08q-1.62,0-3.24-.09c1.08,0,2.16-.08,3.24-.08l-.09.08c.07-1.92.08-3.84.21-5.76S107,166,107.18,164.06Z" transform="translate(-3.17 -5.46)"/><path class="cls-31" d="M94.23,164.06c.23,1.74.37,3.49.54,5.23s.26,3.5.39,5.25l-.07-.07c.88,0,1.76.05,2.65.08-.89,0-1.77.08-2.65.08H95v-.07c-.16-1.75-.37-3.5-.47-5.25S94.28,165.81,94.23,164.06Z" transform="translate(-3.17 -5.46)"/><path class="cls-31" d="M99.38,164.06c0,1.92-.13,3.84-.21,5.76s-.2,3.83-.32,5.75v.09h-.09c-1.45,0-2.91,0-4.37-.1,1.46-.05,2.92-.08,4.37-.09l-.09.09c.08-1.92.15-3.84.3-5.76S99.19,166,99.38,164.06Z" transform="translate(-3.17 -5.46)"/><path class="cls-15" d="M84.53,138.54H97.42l-1.72.87A76.85,76.85,0,0,0,103,161.53l-10.65.17a171.78,171.78,0,0,1-1.48-22.29Z" transform="translate(-3.17 -5.46)"/><polygon class="cls-32" points="108.86 155.58 106.89 156.61 68.83 156.61 66.87 155.58 108.86 155.58"/><path class="cls-32" d="M81.59,145.38,82,146a6.89,6.89,0,0,0,3.45.24c.86-1.25,1.27-4.79,1.27-4.79Z" transform="translate(-3.17 -5.46)"/><path class="cls-60" d="M86.69,141.42a16.54,16.54,0,0,1-1.4,4.21,8.28,8.28,0,0,1-3.7-.25,12.55,12.55,0,0,0,2.47-4.06C84.9,141.35,85.85,141.4,86.69,141.42Z" transform="translate(-3.17 -5.46)"/><path class="cls-32" d="M76.08,151.89l.26.53a5.67,5.67,0,0,0,3,.23,16.08,16.08,0,0,0,1.7-4.36Z" transform="translate(-3.17 -5.46)"/><path class="cls-61" d="M81,148.29a17.57,17.57,0,0,1-1.74,3.83,6.84,6.84,0,0,1-3.22-.23,14.64,14.64,0,0,0,2.86-3.63Z" transform="translate(-3.17 -5.46)"/><path class="cls-32" d="M82.92,157.2l.46.64a7.36,7.36,0,0,0,3.7.26c.8-1.36.91-5.18.91-5.18Z" transform="translate(-3.17 -5.46)"/><path class="cls-62" d="M88,152.92a16.37,16.37,0,0,1-1.1,4.55,8.67,8.67,0,0,1-4-.27,12.35,12.35,0,0,0,2.26-4.38C86.07,152.84,87.1,152.9,88,152.92Z" transform="translate(-3.17 -5.46)"/><path class="cls-32" d="M82.66,153.92l.41.57a6.6,6.6,0,0,0,3.34.24c.72-1.23.82-4.67.82-4.67Z" transform="translate(-3.17 -5.46)"/><path class="cls-63" d="M87.23,150.06a15.46,15.46,0,0,1-1,4.1,8.07,8.07,0,0,1-3.58-.24,11.26,11.26,0,0,0,2-3.95Z" transform="translate(-3.17 -5.46)"/><path class="cls-32" d="M110.21,157.51l-.35.61a8.37,8.37,0,0,1-3.85.33c-1.15-1.26-2.11-4.86-2.11-4.86Z" transform="translate(-3.17 -5.46)"/><path class="cls-64" d="M103.9,153.59a17.48,17.48,0,0,0,2.17,4.26,9.91,9.91,0,0,0,4.14-.34,15.59,15.59,0,0,1-3.62-4C105.66,153.55,104.84,153.55,103.9,153.59Z" transform="translate(-3.17 -5.46)"/><path class="cls-32" d="M104.73,152.88l-.32.54a7.1,7.1,0,0,1-3.36.24c-1-1.12-1.7-4.31-1.7-4.31Z" transform="translate(-3.17 -5.46)"/><path class="cls-65" d="M99.35,149.35a15.72,15.72,0,0,0,1.77,3.79,8.58,8.58,0,0,0,3.61-.26,13.08,13.08,0,0,1-2.81-3.64Z" transform="translate(-3.17 -5.46)"/><path class="cls-32" d="M101,143.75l-.23.46a4.46,4.46,0,0,1-2.45.22,13.43,13.43,0,0,1-1.23-3.7Z" transform="translate(-3.17 -5.46)"/><path class="cls-66" d="M97.11,140.73A14.65,14.65,0,0,0,98.39,144a5.32,5.32,0,0,0,2.63-.23,11.83,11.83,0,0,1-2.42-3C98,140.77,97.71,140.7,97.11,140.73Z" transform="translate(-3.17 -5.46)"/><path class="cls-15" d="M104.52,102.4a21.45,21.45,0,0,0-1.4,4.91,6.17,6.17,0,0,1-4.24-1.09l-.29-.24A22,22,0,0,1,100,99.83a3.58,3.58,0,0,1,1.22,1.45,3,3,0,0,0,.75,1.28,2,2,0,0,0,1.78.07Z" transform="translate(-3.17 -5.46)"/><path class="cls-15" d="M125,105.68c-1.85,1.09-4.16,1-6.28.66l-.81-.14c.14-.75.31-1.48.5-2.21.37.14.72.31,1,.47C121.07,105.31,123.19,106.13,125,105.68Z" transform="translate(-3.17 -5.46)"/><path class="cls-15" d="M122.09,103.94a16,16,0,0,1-3.43-.92s0,0,0,0c.2-.62.43-1.24.66-1.84a24.49,24.49,0,0,0,2.77,1.36,8.74,8.74,0,0,0,4,.49C125.18,104,123.42,104.08,122.09,103.94Z" transform="translate(-3.17 -5.46)"/><path class="cls-25" d="M91.41,123.14c-.15,5.71-.23,11-.11,15.07l4.1,0a97.77,97.77,0,0,1-3.66-15.07Z" transform="translate(-3.17 -5.46)"/><path class="cls-25" d="M104.55,186.27l-.44,8.19h-1.7c0-3.72-.49-6.66-1-6.66s-1,2.94-1.07,6.66H97.9c-.05-3.72-.74-6.66-1.59-6.66s-1.56,2.94-1.61,6.66H93c-.06-3.72-.9-6.66-1.93-6.66s-1.88,2.94-1.94,6.66H86.64c0-3.72-.74-6.66-1.59-6.66s-1.55,2.94-1.6,6.66H81.06c0-3.72-.5-6.66-1.06-6.66s-1,2.94-1.06,6.66H77.72l-.43-8.19Z" transform="translate(-3.17 -5.46)"/><path class="cls-67" d="M105.5,186.27l0,.48-.44,7.71h-1.82c0-3.72-.53-6.66-1.13-6.66s-1.12,2.94-1.14,6.66H98.39a22.8,22.8,0,0,0-.39-4.12c-.31-1.55-.79-2.54-1.31-2.54-.93,0-1.67,2.94-1.72,6.66H93.39c-.08-3.72-1.08-6.66-2.31-6.66s-2.24,2.94-2.31,6.66H86.34c0-3.72-.79-6.66-1.71-6.66s-1.65,2.94-1.7,6.66H80.36c0-3.72-.53-6.66-1.13-6.66-.42,0-.79,1.46-1,3.65-.09.89-.13,1.92-.14,3H76.79l-.43-7.82,0-.37Z" transform="translate(-3.17 -5.46)"/><path class="cls-25" d="M105.5,186.27l0,.48-5.11.18-.47,7.53H98.39a22.8,22.8,0,0,0-.39-4.12L97.87,187l-21.51-.36,0-.37Z" transform="translate(-3.17 -5.46)"/><path class="cls-68" d="M82.18,186.76l-.1,7.7H80.36c0-3.72-.53-6.66-1.13-6.66-.42,0-.79,1.46-1,3.65l-.36-4.77Z" transform="translate(-3.17 -5.46)"/><path class="cls-31" d="M80.36,194.46c-.13-1.15-.14-2.3-.31-3.43,0-.57-.1-1.15-.2-1.71a7.72,7.72,0,0,0-.2-.83c-.08-.26-.14-.59-.42-.69.56.25.63,1,.79,1.49a16.5,16.5,0,0,1,.29,1.71A22.21,22.21,0,0,1,80.36,194.46Z" transform="translate(-3.17 -5.46)"/><path class="cls-31" d="M86.34,194.46c-.13-1.19-.18-2.37-.42-3.53a12.79,12.79,0,0,0-.36-1.74,4.71,4.71,0,0,0-.32-.81c-.13-.25-.3-.53-.61-.58.65.09.89.82,1.1,1.34a11.7,11.7,0,0,1,.45,1.74A17.9,17.9,0,0,1,86.34,194.46Z" transform="translate(-3.17 -5.46)"/><path class="cls-31" d="M93.39,194.46a26.28,26.28,0,0,0-.56-3.66,8.86,8.86,0,0,0-.54-1.75,3,3,0,0,0-.47-.77,1,1,0,0,0-.74-.48c.67,0,1.1.64,1.37,1.17a9.62,9.62,0,0,1,.64,1.77A15,15,0,0,1,93.39,194.46Z" transform="translate(-3.17 -5.46)"/><path class="cls-31" d="M96.69,187.8c-.59.18-.74.87-.94,1.39a11.31,11.31,0,0,0-.36,1.73c-.24,1.16-.29,2.35-.42,3.54a17.9,17.9,0,0,1,.16-3.58,10.74,10.74,0,0,1,.46-1.75C95.79,188.61,96,187.88,96.69,187.8Z" transform="translate(-3.17 -5.46)"/><path class="cls-31" d="M102.09,187.8c-.28.1-.34.43-.43.69a7.68,7.68,0,0,0-.19.83,16.1,16.1,0,0,0-.21,1.7c-.17,1.14-.18,2.29-.31,3.44a22.21,22.21,0,0,1,0-3.46,16.68,16.68,0,0,1,.29-1.72C101.45,188.76,101.52,188,102.09,187.8Z" transform="translate(-3.17 -5.46)"/><path class="cls-42" d="M70.09,161c5.34-.24,10.67-.2,16-.31,5.34.08,10.67,0,16,.22-5.34.24-10.67.2-16,.31C80.75,161.12,75.42,161.19,70.09,161Z" transform="translate(-3.17 -5.46)"/><path class="cls-69" d="M136.84,229.56c1.22,1.24,2.2,3.23,1.19,4.64-1.24,1.79-4,.83-5.91-.26A38.31,38.31,0,0,1,135,255.69a84,84,0,0,0-8.44-19.45c-3.05.55-7.68,2.31-9.17,5l-3-3.5a5.09,5.09,0,0,1-9.73-.66c-1.1,2.45-2.18,4.89-3.27,7.35a13.79,13.79,0,0,0-21.63-11.12q-4.48,8.64-9,17.29l-7.45-15.39c-1.19,2.12-2.35,4.24-3.52,6.35l-9.7-4.67a24.57,24.57,0,0,0-2.87,10.19A45.28,45.28,0,0,1,38.3,234a11.87,11.87,0,0,0-3.18,7.63A9.19,9.19,0,0,1,32,235.53c-.57,0-1.13,0-1.68.1-11.19,1-21.4,9.56-24.07,20.5C4,254.18,3,252.84,4.52,250.25a26.35,26.35,0,0,1,6.58-22.7c-2.78-1.37-5.16-1.67-7.93-3a28.87,28.87,0,0,1,16.06-3.15,26.66,26.66,0,0,1-7.47-8.58c2.55,1.48,5.08,3,7.62,4.47,1.72,1,1.26-1.2,3.14-1.87-.41-2.25-.8-4.5-1.21-6.75a7.67,7.67,0,0,0,6.2,2.61,28.07,28.07,0,0,0,6.81-1.3,75.55,75.55,0,0,1,41.5,1c2.39-3.93,3.86-8,7.72-10.48-.71,2.46-1.4,4.92-2.11,7.38,2.32-.81,4.64-1.62,7-2.46a2.55,2.55,0,0,1,1.73-.17,1.76,1.76,0,0,1,.87,2.16,5.29,5.29,0,0,1-1.47,2c9.2-.28,18.37,3,26.1,8.1,1.21.8,2.39,1.65,3.52,2.53,6.2-3.09,12.32-4.84,18.83-7.18q-4.32,4-8.65,7.89a22.77,22.77,0,0,1,13.66,5,18.43,18.43,0,0,0-9.24-.36C134.08,227.19,135.62,228.34,136.84,229.56Z" transform="translate(-3.17 -5.46)"/><path class="cls-70" d="M67.88,214.47A56.63,56.63,0,0,1,100,224L97,217.18l7.89,4.35a9.49,9.49,0,0,0-4.37-5.95c5.49,2,11,4.41,16.65,5.88a15.4,15.4,0,0,0-1.59-3.88c-7.73-5.15-16.9-8.38-26.1-8.1a5.29,5.29,0,0,0,1.47-2,1.76,1.76,0,0,0-.87-2.16,2.55,2.55,0,0,0-1.73.17c-2.32.84-4.64,1.65-7,2.46.71-2.46,1.4-4.92,2.11-7.38-3.86,2.5-5.33,6.55-7.72,10.48a75.55,75.55,0,0,0-41.5-1,28.07,28.07,0,0,1-6.81,1.3,7.67,7.67,0,0,1-6.2-2.61c.41,2.25.8,4.5,1.21,6.75-1.88.67-1.42,2.88-3.14,1.87-2.54-1.48-5.07-3-7.62-4.47a26.66,26.66,0,0,0,7.47,8.58,28.87,28.87,0,0,0-16.06,3.15c2.77,1.34,5.15,1.64,7.93,3a26.35,26.35,0,0,0-6.58,22.7c-1.52,2.59-.55,3.93,1.7,5.88,2.67-10.94,12.88-19.52,24.07-20.5-.06,0,1.12-11.85,1.21-12.59.07-.53.29-1.2.83-1.19.33,0,.57.31.76.58l3.85,5.37a35.2,35.2,0,0,1,7.41-13.28A53.86,53.86,0,0,0,49.59,230a56.11,56.11,0,0,1,8-15.36,9.3,9.3,0,0,1,4.33,4.53A5.92,5.92,0,0,1,67.88,214.47Z" transform="translate(-3.17 -5.46)"/><polygon class="cls-71" points="32.47 261.04 23.44 264.65 8.19 258.37 21.68 272.81 34.28 273.69 46.93 269.17 32.47 261.04"/><polygon class="cls-72" points="93.32 280.31 82.77 284.53 92.93 288.72 97.48 286.81 93.32 280.31"/><polygon class="cls-73" points="46.71 299.9 62.59 296.58 68.93 305.02 57.1 307.8 46.71 299.9"/><path class="cls-74" d="M61.26,305c3.74,0,7.61.81,9.95,3.85-1.8-2.34-3.67-4.82-4.13-7.74s.64-4.8,1.33-7.52c.36-1.42.72-3.44,1.94-4.36,1.52-1.15,4.62-1.44,6.45-1.67-2.49.31-6.93.47-8.72-1.72a4.83,4.83,0,0,1-.78-2c-1.08-4.51-2.72-8.74-3.85-13.24a96.2,96.2,0,0,1,2.07,12.16c.14,1.35,1,4.45.41,5.69-.65,1.41-3.26,1.91-4.34,3a16.62,16.62,0,0,1,6-1.94c-1.14.13-2,6.44-2,7.29a10.24,10.24,0,0,1-1,4.13c-1.3,2.21-3.3,1.54-5.34,2.15-2.71.81-5.31,2-8,2.9a67.33,67.33,0,0,1,7.33-.92C59.42,305,60.34,305,61.26,305Z" transform="translate(-3.17 -5.46)"/><path class="cls-75" d="M27.64,271.78c0-.22,0-.44,0-.67,0-1,3.23-2.13,3.94-2.33a8,8,0,0,1,4.56.1,42.68,42.68,0,0,1,10.88,4c-2.39-1.4-4.92-2.48-7.21-4.07-2.9-2-5.57-7.3-2.2-10.28A10,10,0,0,1,42,256.71a27.8,27.8,0,0,1-4.74,0,1.74,1.74,0,0,1-1-.31c-.87-.72-.42-3.55-.46-4.61a62.39,62.39,0,0,1-.27-6.4q-.65,8.19-1.27,16.38a10.66,10.66,0,0,1-.54,3c-1,2.54-3.81,4-6.53,4.06a18.37,18.37,0,0,1-7.83-2c-2.56-1.12-5.12-2.23-7.72-3.29A9.45,9.45,0,0,0,15.84,267,38.91,38.91,0,0,1,20,268.25C20.77,268.62,27.62,271.16,27.64,271.78Z" transform="translate(-3.17 -5.46)"/><path class="cls-76" d="M96,286.68l3.9,4.85a21.8,21.8,0,0,1-3.36-10.38,64.32,64.32,0,0,1,.29-11,33.93,33.93,0,0,1-.35,7.74,11.47,11.47,0,0,1-3.64,6.69,8,8,0,0,1,3.49-1.49c-.07.9-.14,1.8-.2,2.7-.06.73-6.58,2.79-7.46,3.38C91.12,288.39,93.55,287.51,96,286.68Z" transform="translate(-3.17 -5.46)"/><path class="cls-77" d="M45.62,330.33a1.62,1.62,0,0,0,0,.22.84.84,0,0,1-.07.56,1.33,1.33,0,0,1-.3.28,36.52,36.52,0,0,1-3.93,2.18,4.07,4.07,0,0,1-1.4.47,3.45,3.45,0,0,1-1.24-.22,38.47,38.47,0,0,1-12.6-6.39,3.28,3.28,0,0,1-1-1.08,3.58,3.58,0,0,1-.3-1.36c-.38-4.56-.71-8.55-2.16-12.84a5.83,5.83,0,0,1-.35-1.47,4.34,4.34,0,0,1,0-.51,4.4,4.4,0,0,1,1.07-2.1,77.16,77.16,0,0,1,10-10.88,1.84,1.84,0,0,1,1.48-.63,1.85,1.85,0,0,1,.93.92A85.18,85.18,0,0,1,43.12,313c.74,2.12,1.86,4.17,2.5,6.26a14.6,14.6,0,0,1,.54,4.57,34.23,34.23,0,0,1-.3,3.87A14.7,14.7,0,0,0,45.62,330.33Z" transform="translate(-3.17 -5.46)"/><path class="cls-78" d="M45.55,331.11a1.33,1.33,0,0,1-.3.28,36.52,36.52,0,0,1-3.93,2.18,4.07,4.07,0,0,1-1.4.47,3.45,3.45,0,0,1-1.24-.22,38.47,38.47,0,0,1-12.6-6.39,3.28,3.28,0,0,1-1-1.08,3.58,3.58,0,0,1-.3-1.36c-.38-4.56-.71-8.55-2.16-12.84a5.83,5.83,0,0,1-.35-1.47c1.62-2.65,5-4,7.89-4.86a1.5,1.5,0,0,1,.86-.06,1.62,1.62,0,0,1,.65.54,27.13,27.13,0,0,1,5.67,14.62,7,7,0,0,0,.77,3.49,7.58,7.58,0,0,0,3,2.11,11.16,11.16,0,0,1,4.53,3.81,1.62,1.62,0,0,0,0,.22A.84.84,0,0,1,45.55,331.11Z" transform="translate(-3.17 -5.46)"/><path class="cls-79" d="M24,327.58a.86.86,0,0,0,.12.35,1.35,1.35,0,0,0,.38.33,84.33,84.33,0,0,0,14.36,7.55,1.24,1.24,0,0,0,1.61-.28c1.66-1.48,3.06-3.25,5.12-4.17a1.06,1.06,0,0,0,.59-.46,1,1,0,0,0,0-.42c-.11-2.5.6-5.13.42-7.57-.13-1.82-1.17-3.66-1.47-5.5a54.52,54.52,0,0,1,.73,8.93c0,.59-.08,1.3-.61,1.57s-1.09-.07-1.57-.36a39.6,39.6,0,0,0-6.48-3.24c2.11,2.4,4.8,4.15,7.33,6.06l-4,2.67a3,3,0,0,1-1.29.58,2.81,2.81,0,0,1-1.4-.34,111.26,111.26,0,0,1-12-6.08,38.76,38.76,0,0,0,5.61-1.53l-5.41.15c-.56-4.44-1.19-10-3.3-14,1,1.83.17,4.79.48,6.82a58.65,58.65,0,0,1,.73,8.57A2,2,0,0,0,24,327.58Z" transform="translate(-3.17 -5.46)"/><path class="cls-80" d="M55.39,373.9a.59.59,0,0,0,0,.14.56.56,0,0,1-.09.35.86.86,0,0,1-.22.15,22.14,22.14,0,0,1-2.67,1.06,2.48,2.48,0,0,1-.93.18,2.36,2.36,0,0,1-.77-.23,24.71,24.71,0,0,1-7.46-5.09,2.07,2.07,0,0,1-.58-.77,2.43,2.43,0,0,1-.08-.89,32.56,32.56,0,0,0-.32-8.32,3.91,3.91,0,0,1-.09-1,1.08,1.08,0,0,1,0-.32A2.78,2.78,0,0,1,43,358a49,49,0,0,1,7.26-6.07,1.14,1.14,0,0,1,1-.28,1.16,1.16,0,0,1,.52.66,54,54,0,0,1,3.41,10.44c.29,1.41.83,2.8,1.07,4.18a9.38,9.38,0,0,1,0,2.94,20.68,20.68,0,0,1-.51,2.43A9.54,9.54,0,0,0,55.39,373.9Z" transform="translate(-3.17 -5.46)"/><path class="cls-81" d="M55.28,374.39a.86.86,0,0,1-.22.15,22.14,22.14,0,0,1-2.67,1.06,2.48,2.48,0,0,1-.93.18,2.36,2.36,0,0,1-.77-.23,24.71,24.71,0,0,1-7.46-5.09,2.07,2.07,0,0,1-.58-.77,2.43,2.43,0,0,1-.08-.89,32.56,32.56,0,0,0-.32-8.32,3.91,3.91,0,0,1-.09-1c1.24-1.55,3.46-2.14,5.39-2.44a1.06,1.06,0,0,1,.56,0,1,1,0,0,1,.36.39,17.34,17.34,0,0,1,2.4,9.74,4.5,4.5,0,0,0,.21,2.28,4.92,4.92,0,0,0,1.74,1.58,7.17,7.17,0,0,1,2.57,2.79.59.59,0,0,0,0,.14A.56.56,0,0,1,55.28,374.39Z" transform="translate(-3.17 -5.46)"/><path class="cls-82" d="M41.87,370.38a.59.59,0,0,0,0,.23.84.84,0,0,0,.22.24,53.24,53.24,0,0,0,8.48,6,1,1,0,0,0,.55.18,1.07,1.07,0,0,0,.5-.22,13.81,13.81,0,0,1,3.59-2.23.62.62,0,0,0,.41-.24.48.48,0,0,0,.06-.26c.14-1.6.81-3.2.9-4.77.06-1.16-.45-2.42-.49-3.6a34.21,34.21,0,0,1-.27,5.72c0,.37-.15.82-.51.94s-.69-.13-1-.36a26,26,0,0,0-3.84-2.58,30.12,30.12,0,0,0,4.15,4.45L52,375.2a2,2,0,0,1-.87.27,1.86,1.86,0,0,1-.86-.33,70.43,70.43,0,0,1-7.13-4.85,25.64,25.64,0,0,0,3.68-.51l-3.44-.35c0-2.86.05-6.42-1-9.13.47,1.24-.28,3.05-.25,4.36a37.44,37.44,0,0,1-.24,5.5A.81.81,0,0,0,41.87,370.38Z" transform="translate(-3.17 -5.46)"/><path class="cls-83" d="M85.33,374.25a.5.5,0,0,1,0,.12.54.54,0,0,0,.09.31.86.86,0,0,0,.2.13,19.83,19.83,0,0,0,2.42.86,2.36,2.36,0,0,0,.83.13,2,2,0,0,0,.68-.24,21.83,21.83,0,0,0,6.48-4.79,1.86,1.86,0,0,0,.49-.7,2,2,0,0,0,0-.8,29.33,29.33,0,0,1,0-7.43,3.56,3.56,0,0,0,.06-.86,1.16,1.16,0,0,0,0-.28,2.52,2.52,0,0,0-.8-1.09,44.78,44.78,0,0,0-6.68-5.17,1,1,0,0,0-.89-.21,1.08,1.08,0,0,0-.44.6,49.22,49.22,0,0,0-2.68,9.43c-.22,1.27-.65,2.53-.82,3.76a8.77,8.77,0,0,0,.13,2.63A21.06,21.06,0,0,0,85,372.8,8.15,8.15,0,0,1,85.33,374.25Z" transform="translate(-3.17 -5.46)"/><path class="cls-84" d="M85.44,374.68a.86.86,0,0,0,.2.13,19.83,19.83,0,0,0,2.42.86,2.36,2.36,0,0,0,.83.13,2,2,0,0,0,.68-.24,21.83,21.83,0,0,0,6.48-4.79,1.86,1.86,0,0,0,.49-.7,2,2,0,0,0,0-.8,29.33,29.33,0,0,1,0-7.43,3.56,3.56,0,0,0,.06-.86c-1.16-1.34-3.17-1.79-4.9-2a.89.89,0,0,0-.49.05.93.93,0,0,0-.31.37,15.42,15.42,0,0,0-1.81,8.76,4,4,0,0,1-.11,2,4.17,4.17,0,0,1-1.5,1.48,6.31,6.31,0,0,0-2.19,2.57.5.5,0,0,1,0,.12A.54.54,0,0,0,85.44,374.68Z" transform="translate(-3.17 -5.46)"/><path class="cls-85" d="M97.27,370.66a.45.45,0,0,1,0,.2.65.65,0,0,1-.18.22,47.93,47.93,0,0,1-7.37,5.61.82.82,0,0,1-.47.17.88.88,0,0,1-.46-.18,12.13,12.13,0,0,0-3.28-1.86.61.61,0,0,1-.37-.2.48.48,0,0,1-.07-.23c-.17-1.42-.82-2.83-1-4.22-.1-1,.31-2.17.31-3.23a31,31,0,0,0,.43,5.09c.06.33.17.72.49.82s.61-.14.85-.35a23.41,23.41,0,0,1,3.34-2.44A26.27,26.27,0,0,1,86,374.17l2.49,1.12a1.58,1.58,0,0,0,.78.21,1.65,1.65,0,0,0,.76-.32,62.49,62.49,0,0,0,6.19-4.57,21.44,21.44,0,0,1-3.29-.32l3.05-.43c-.1-2.55-.27-5.73.54-8.18-.37,1.12.36,2.71.37,3.89a34.92,34.92,0,0,0,.4,4.89Z" transform="translate(-3.17 -5.46)"/><path class="cls-86" d="M110.08,304.16c-.29.88-.56,1.76-.85,2.64q-5.74,18.18-11.5,36.36a90,90,0,0,1-7.09-13.46,87.92,87.92,0,0,1-3.71-10.35,15.78,15.78,0,0,1-.83-5.44,17,17,0,0,1,1.84-5.72c2.59-5.69,4.55-13,8.69-17.73a2.82,2.82,0,0,1,1.75-1.12,2.64,2.64,0,0,1,1.55.51,28,28,0,0,1,9.48,9,5.84,5.84,0,0,1,1.12,2.7A6.33,6.33,0,0,1,110.08,304.16Z" transform="translate(-3.17 -5.46)"/><path class="cls-87" d="M109.23,306.8q-5.74,18.18-11.5,36.36a90,90,0,0,1-7.09-13.46c-.47-1.44-.92-2.86-1.28-4.32-.47-1.76-.86-3.55-1.22-5.33-.17-.79-.35-5-.9-5.4a2.72,2.72,0,0,0,2.68,0,8,8,0,0,0,2.1-1.84q4.41-4.83,8.79-9.67c.47-.52,1.31-1,1.78-.52a9.44,9.44,0,0,0,1.08-5.7,7.44,7.44,0,0,1,4.66,4.6A14.94,14.94,0,0,1,109.23,306.8Z" transform="translate(-3.17 -5.46)"/><path class="cls-88" d="M95.89,341.18A23.66,23.66,0,0,0,93.66,337a14.35,14.35,0,0,1-2.24-3,27,27,0,0,1-2.51-9c.2,2.07,2,5,3.13,6.68,1.4,2.23,3.13,4.34,4.69,6.48q.57-8,1.13-16.07a25.37,25.37,0,0,0,2.51,6.29c2.33-2.18,3-5.13,3.91-8.06,1.13-3.57,2.76-7.28,3.47-11a169.4,169.4,0,0,1-4.86,20c-1.69,5.19-3,10.6-4.93,15.79Q96.91,343.2,95.89,341.18Z" transform="translate(-3.17 -5.46)"/><path class="cls-89" d="M54.82,371.66c.22.69.43,1.38.66,2.07q4.49,14.2,9,28.41A71.27,71.27,0,0,0,70,391.62a69.51,69.51,0,0,0,2.9-8.09,12.07,12.07,0,0,0,.64-4.24,13.19,13.19,0,0,0-1.43-4.48c-2-4.44-3.56-10.13-6.8-13.85a2.15,2.15,0,0,0-1.36-.88,2,2,0,0,0-1.21.4,21.76,21.76,0,0,0-7.41,7.06,4.57,4.57,0,0,0-.88,2.11A4.81,4.81,0,0,0,54.82,371.66Z" transform="translate(-3.17 -5.46)"/><path class="cls-90" d="M55.48,373.73q4.49,14.2,9,28.41A71.27,71.27,0,0,0,70,391.62c.36-1.12.72-2.23,1-3.37.36-1.38.67-2.78.95-4.17.13-.62.27-3.94.71-4.22a2.13,2.13,0,0,1-2.1,0,6.06,6.06,0,0,1-1.65-1.43l-6.86-7.55c-.37-.41-1-.82-1.39-.41a7.37,7.37,0,0,1-.85-4.46,5.81,5.81,0,0,0-3.64,3.6A11.87,11.87,0,0,0,55.48,373.73Z" transform="translate(-3.17 -5.46)"/><path class="cls-91" d="M65.9,400.6a19.05,19.05,0,0,1,1.75-3.28A11.19,11.19,0,0,0,69.4,395a21.2,21.2,0,0,0,2-7c-.16,1.61-1.6,3.86-2.45,5.21-1.09,1.75-2.44,3.4-3.66,5.07q-.45-6.28-.88-12.56a20.1,20.1,0,0,1-2,4.91c-1.82-1.7-2.33-4-3-6.29a77.38,77.38,0,0,1-2.71-8.57,129.12,129.12,0,0,0,3.8,15.64c1.31,4.06,2.37,8.28,3.85,12.34Z" transform="translate(-3.17 -5.46)"/></g></g></g></svg>