<svg xmlns="http://www.w3.org/2000/svg" xmlns:xlink="http://www.w3.org/1999/xlink" viewBox="0 0 167.49 388.02"><defs><style>.cls-1{fill:none;}.cls-2{isolation:isolate;}.cls-3{clip-path:url(#clip-path);}.cls-4{fill:url(#Áåçûìÿííûé_ãðàäèåíò_590);}.cls-5{fill:url(#Áåçûìÿííûé_ãðàäèåíò_590-2);}.cls-6{fill:url(#Áåçûìÿííûé_ãðàäèåíò_288);}.cls-13,.cls-7{fill:#f2e6f7;}.cls-12,.cls-15,.cls-7,.cls-8{mix-blend-mode:multiply;}.cls-8{fill:#c7c7f2;}.cls-9{fill:url(#Áåçûìÿííûé_ãðàäèåíò_253);}.cls-10{fill:url(#Áåçûìÿííûé_ãðàäèåíò_288-2);}.cls-11{fill:url(#Áåçûìÿííûé_ãðàäèåíò_240);}.cls-14{fill:url(#Áåçûìÿííûé_ãðàäèåíò_221);}.cls-15{fill:#e3caeb;}.cls-16{fill:url(#Áåçûìÿííûé_ãðàäèåíò_288-3);}.cls-17{fill:url(#Áåçûìÿííûé_ãðàäèåíò_67);}.cls-18{fill:url(#Áåçûìÿííûé_ãðàäèåíò_67-2);}.cls-19{fill:url(#Áåçûìÿííûé_ãðàäèåíò_67-3);}.cls-20{fill:url(#Áåçûìÿííûé_ãðàäèåíò_67-4);}.cls-21{fill:url(#Áåçûìÿííûé_ãðàäèåíò_6);}.cls-22,.cls-27,.cls-28,.cls-29,.cls-30,.cls-41{mix-blend-mode:screen;}.cls-22{fill:url(#Áåçûìÿííûé_ãðàäèåíò_36);}.cls-23{fill:url(#Áåçûìÿííûé_ãðàäèåíò_67-5);}.cls-24{fill:url(#Áåçûìÿííûé_ãðàäèåíò_67-6);}.cls-25{fill:#9e4215;}.cls-26{fill:#552869;}.cls-27{fill:url(#Áåçûìÿííûé_ãðàäèåíò_36-2);}.cls-28{fill:url(#Áåçûìÿííûé_ãðàäèåíò_36-3);}.cls-29{fill:url(#Áåçûìÿííûé_ãðàäèåíò_36-4);}.cls-30{fill:url(#Áåçûìÿííûé_ãðàäèåíò_36-5);}.cls-31{fill:#ffdeab;}.cls-32{fill:#1c4c7a;}.cls-33{fill:url(#Áåçûìÿííûé_ãðàäèåíò_219);}.cls-34{fill:url(#Áåçûìÿííûé_ãðàäèåíò_219-2);}.cls-35{fill:url(#Áåçûìÿííûé_ãðàäèåíò_219-3);}.cls-36{fill:url(#Áåçûìÿííûé_ãðàäèåíò_219-4);}.cls-37{fill:url(#Áåçûìÿííûé_ãðàäèåíò_219-5);}.cls-38{fill:url(#Áåçûìÿííûé_ãðàäèåíò_219-6);}.cls-39{fill:url(#Áåçûìÿííûé_ãðàäèåíò_219-7);}.cls-40{fill:url(#Áåçûìÿííûé_ãðàäèåíò_67-7);}.cls-41{fill:url(#Áåçûìÿííûé_ãðàäèåíò_36-6);}.cls-42{fill:#82edea;}.cls-43{fill:#ffefe8;}.cls-44{fill:url(#Áåçûìÿííûé_ãðàäèåíò_1055);}.cls-45{fill:url(#Áåçûìÿííûé_ãðàäèåíò_1055-2);}.cls-46{fill:url(#Áåçûìÿííûé_ãðàäèåíò_591);}.cls-47{fill:url(#Áåçûìÿííûé_ãðàäèåíò_591-2);}.cls-48{fill:url(#Áåçûìÿííûé_ãðàäèåíò_591-3);}.cls-49{fill:url(#Áåçûìÿííûé_ãðàäèåíò_591-4);}.cls-50{fill:url(#Áåçûìÿííûé_ãðàäèåíò_591-5);}.cls-51{fill:url(#Áåçûìÿííûé_ãðàäèåíò_591-6);}</style><clipPath id="clip-path" transform="translate(-15.76 -16.85)"><rect class="cls-1" x="-585.17" y="-269.78" width="1800" height="900"/></clipPath><linearGradient id="Áåçûìÿííûé_ãðàäèåíò_590" x1="50.97" y1="353.54" x2="90.67" y2="256.81" gradientUnits="userSpaceOnUse"><stop offset="0" stop-color="#cc9384"/><stop offset="1" stop-color="#564068"/></linearGradient><linearGradient id="Áåçûìÿííûé_ãðàäèåíò_590-2" x1="68.63" y1="401.39" x2="87.04" y2="273.64" xlink:href="#Áåçûìÿííûé_ãðàäèåíò_590"/><linearGradient id="Áåçûìÿííûé_ãðàäèåíò_288" x1="44.97" y1="188.57" x2="93.22" y2="188.57" gradientUnits="userSpaceOnUse"><stop offset="0" stop-color="#ffe3e3"/><stop offset="0.37" stop-color="#ffbfbf"/><stop offset="0.53" stop-color="#f3b7c2"/><stop offset="0.78" stop-color="#d7a3ca"/><stop offset="0.85" stop-color="#dda7c8"/><stop offset="0.93" stop-color="#edb2c4"/><stop offset="1" stop-color="#ffbfbf"/></linearGradient><linearGradient id="Áåçûìÿííûé_ãðàäèåíò_253" x1="55.7" y1="200.19" x2="114.02" y2="200.19" gradientTransform="matrix(1, 0, 0, -1, -15.76, 425.46)" gradientUnits="userSpaceOnUse"><stop offset="0.07" stop-color="#ffefe8"/><stop offset="0.35" stop-color="#ffe5e0"/><stop offset="0.82" stop-color="#ffcbc9"/><stop offset="1" stop-color="#ffbfbf"/></linearGradient><linearGradient id="Áåçûìÿííûé_ãðàäèåíò_288-2" x1="38.55" y1="239.17" x2="100.34" y2="239.17" xlink:href="#Áåçûìÿííûé_ãðàäèåíò_288"/><linearGradient id="Áåçûìÿííûé_ãðàäèåíò_240" x1="48.6" y1="172.48" x2="121.4" y2="172.48" gradientTransform="matrix(1, 0, 0, -1, -15.76, 425.46)" gradientUnits="userSpaceOnUse"><stop offset="0.07" stop-color="#ffefe8"/><stop offset="0.11" stop-color="#ffebe5"/><stop offset="0.44" stop-color="#ffcfcc"/><stop offset="0.73" stop-color="#ffbebd"/><stop offset="0.94" stop-color="#ffb8b8"/></linearGradient><linearGradient id="Áåçûìÿííûé_ãðàäèåíò_221" x1="84.77" y1="27.36" x2="144.6" y2="27.36" gradientUnits="userSpaceOnUse"><stop offset="0" stop-color="#5ad2ce"/><stop offset="0.05" stop-color="#53c4ca"/><stop offset="0.15" stop-color="#41a0bf"/><stop offset="0.29" stop-color="#2465ae"/><stop offset="0.29" stop-color="#2363ad"/><stop offset="0.37" stop-color="#3383b6"/><stop offset="0.54" stop-color="#5ad2ce"/><stop offset="0.62" stop-color="#58cdcc"/><stop offset="0.72" stop-color="#52bfc6"/><stop offset="0.82" stop-color="#49a8bd"/><stop offset="0.93" stop-color="#3b88af"/><stop offset="1" stop-color="#316fa5"/></linearGradient><linearGradient id="Áåçûìÿííûé_ãðàäèåíò_288-3" x1="38.57" y1="130.42" x2="99.63" y2="130.42" xlink:href="#Áåçûìÿííûé_ãðàäèåíò_288"/><linearGradient id="Áåçûìÿííûé_ãðàäèåíò_67" x1="36.71" y1="112.61" x2="101.5" y2="112.61" gradientUnits="userSpaceOnUse"><stop offset="0" stop-color="#e89331"/><stop offset="0.25" stop-color="#e6902f"/><stop offset="0.45" stop-color="#de862a"/><stop offset="0.63" stop-color="#d27522"/><stop offset="0.73" stop-color="#c9681c"/><stop offset="1" stop-color="#e89331"/></linearGradient><linearGradient id="Áåçûìÿííûé_ãðàäèåíò_67-2" x1="38.16" y1="148.21" x2="100.06" y2="148.21" xlink:href="#Áåçûìÿííûé_ãðàäèåíò_67"/><linearGradient id="Áåçûìÿííûé_ãðàäèåíò_67-3" x1="41.61" y1="151.14" x2="96.59" y2="151.14" xlink:href="#Áåçûìÿííûé_ãðàäèåíò_67"/><linearGradient id="Áåçûìÿííûé_ãðàäèåíò_67-4" x1="57.63" y1="140.95" x2="112.36" y2="140.95" xlink:href="#Áåçûìÿííûé_ãðàäèåíò_67"/><linearGradient id="Áåçûìÿííûé_ãðàäèåíò_6" x1="49.13" y1="97.34" x2="120.63" y2="97.34" gradientUnits="userSpaceOnUse"><stop offset="0" stop-color="#5ad2ce"/><stop offset="0.57" stop-color="#2363ad"/><stop offset="0.65" stop-color="#2567ae"/><stop offset="0.73" stop-color="#2b73b2"/><stop offset="0.82" stop-color="#3587b8"/><stop offset="0.9" stop-color="#43a3c0"/><stop offset="0.98" stop-color="#54c7cb"/><stop offset="1" stop-color="#5ad2ce"/></linearGradient><linearGradient id="Áåçûìÿííûé_ãðàäèåíò_36" x1="40.58" y1="147.45" x2="81.84" y2="99.51" gradientUnits="userSpaceOnUse"><stop offset="0" stop-color="#8da87e"/><stop offset="0.12" stop-color="#839d75"/><stop offset="0.33" stop-color="#6a7e5f"/><stop offset="0.62" stop-color="#404d3a"/><stop offset="0.96" stop-color="#080907"/><stop offset="1"/></linearGradient><linearGradient id="Áåçûìÿííûé_ãðàäèåíò_67-5" x1="73.79" y1="74.64" x2="95.74" y2="74.64" xlink:href="#Áåçûìÿííûé_ãðàäèåíò_67"/><linearGradient id="Áåçûìÿííûé_ãðàäèåíò_67-6" x1="67.52" y1="22.36" x2="71.05" y2="22.36" xlink:href="#Áåçûìÿííûé_ãðàäèåíò_67"/><linearGradient id="Áåçûìÿííûé_ãðàäèåíò_36-2" x1="84.34" y1="65.67" x2="79.18" y2="87.01" xlink:href="#Áåçûìÿííûé_ãðàäèåíò_36"/><linearGradient id="Áåçûìÿííûé_ãðàäèåíò_36-3" x1="49.5" y1="141.7" x2="50.13" y2="159.48" xlink:href="#Áåçûìÿííûé_ãðàäèåíò_36"/><linearGradient id="Áåçûìÿííûé_ãðàäèåíò_36-4" x1="50.61" y1="142.75" x2="51.1" y2="158.38" xlink:href="#Áåçûìÿííûé_ãðàäèåíò_36"/><linearGradient id="Áåçûìÿííûé_ãðàäèåíò_36-5" x1="48.83" y1="99.69" x2="49.2" y2="119.5" xlink:href="#Áåçûìÿííûé_ãðàäèåíò_36"/><linearGradient id="Áåçûìÿííûé_ãðàäèåíò_219" x1="72.41" y1="99.21" x2="74.92" y2="88.33" gradientUnits="userSpaceOnUse"><stop offset="0" stop-color="#5ad2ce"/><stop offset="1" stop-color="#2363ad"/></linearGradient><linearGradient id="Áåçûìÿííûé_ãðàäèåíò_219-2" x1="52.4" y1="110.29" x2="54.67" y2="100.47" gradientTransform="matrix(1, 0, -0.13, 1, 24.94, 0)" xlink:href="#Áåçûìÿííûé_ãðàäèåíò_219"/><linearGradient id="Áåçûìÿííûé_ãðàäèåíò_219-3" x1="83.64" y1="118.01" x2="86.37" y2="106.21" gradientTransform="matrix(1.01, 0, 0.08, 0.99, -19.66, 2.65)" xlink:href="#Áåçûìÿííûé_ãðàäèåíò_219"/><linearGradient id="Áåçûìÿííûé_ãðàäèåíò_219-4" x1="83.3" y1="112.37" x2="85.76" y2="101.74" gradientTransform="matrix(1.01, 0, 0.08, 0.99, -19.66, 2.65)" xlink:href="#Áåçûìÿííûé_ãðàäèåíò_219"/><linearGradient id="Áåçûìÿííûé_ãðàäèåíò_219-5" x1="525.28" y1="110.57" x2="528" y2="98.77" gradientTransform="matrix(-1.07, 0.02, 0.13, 0.93, 660.47, 5.75)" xlink:href="#Áåçûìÿííûé_ãðàäèåíò_219"/><linearGradient id="Áåçûìÿííûé_ãðàäèåíò_219-6" x1="544.11" y1="103.49" x2="546.57" y2="92.86" gradientTransform="matrix(-1.03, 0.01, 0.1, 0.92, 656.38, 12.82)" xlink:href="#Áåçûìÿííûé_ãðàäèåíò_219"/><linearGradient id="Áåçûìÿííûé_ãðàäèåíò_219-7" x1="562.98" y1="95.09" x2="564.87" y2="86.91" gradientTransform="matrix(-0.98, 0.01, 0.09, 1.02, 640.58, -7.56)" xlink:href="#Áåçûìÿííûé_ãðàäèåíò_219"/><linearGradient id="Áåçûìÿííûé_ãðàäèåíò_67-7" x1="59.84" y1="175.94" x2="109.51" y2="175.94" xlink:href="#Áåçûìÿííûé_ãðàäèåíò_67"/><linearGradient id="Áåçûìÿííûé_ãðàäèåíò_36-6" x1="65.58" y1="159.38" x2="66.84" y2="182.74" xlink:href="#Áåçûìÿííûé_ãðàäèåíò_36"/><linearGradient id="Áåçûìÿííûé_ãðàäèåíò_1055" x1="75.27" y1="207.82" x2="121.83" y2="376.73" gradientUnits="userSpaceOnUse"><stop offset="0" stop-color="#9ba820"/><stop offset="1" stop-color="#0f4d30"/></linearGradient><linearGradient id="Áåçûìÿííûé_ãðàäèåíò_1055-2" x1="70.9" y1="253.55" x2="114.74" y2="385.9" xlink:href="#Áåçûìÿííûé_ãðàäèåíò_1055"/><linearGradient id="Áåçûìÿííûé_ãðàäèåíò_591" x1="7.6" y1="303.11" x2="109.91" y2="368.88" gradientUnits="userSpaceOnUse"><stop offset="0" stop-color="#dfb29c"/><stop offset="0.13" stop-color="#d6aa98"/><stop offset="0.36" stop-color="#bd958f"/><stop offset="0.64" stop-color="#94737f"/><stop offset="0.97" stop-color="#5c456a"/><stop offset="1" stop-color="#564068"/></linearGradient><linearGradient id="Áåçûìÿííûé_ãðàäèåíò_591-2" x1="101.61" y1="335.86" x2="137.84" y2="359.15" xlink:href="#Áåçûìÿííûé_ãðàäèåíò_591"/><linearGradient id="Áåçûìÿííûé_ãðàäèåíò_591-3" x1="70.23" y1="361.09" x2="127.39" y2="397.83" xlink:href="#Áåçûìÿííûé_ãðàäèåíò_591"/><linearGradient id="Áåçûìÿííûé_ãðàäèåíò_591-4" x1="93.51" y1="357.45" x2="124.17" y2="357.45" xlink:href="#Áåçûìÿííûé_ãðàäèåíò_591"/><linearGradient id="Áåçûìÿííûé_ãðàäèåíò_591-5" x1="47.93" y1="320.77" x2="90.28" y2="320.77" xlink:href="#Áåçûìÿííûé_ãðàäèåíò_591"/><linearGradient id="Áåçûìÿííûé_ãðàäèåíò_591-6" x1="126.66" y1="346.76" x2="140.11" y2="346.76" xlink:href="#Áåçûìÿííûé_ãðàäèåíò_591"/></defs><g class="cls-2"><g id="layer_1" data-name="layer 1"><g class="cls-3"><polygon class="cls-4" points="153.67 272.07 148.47 288.33 143.09 296.2 138.96 302.22 132.21 306.56 128.91 313.01 122.61 332.22 116.78 343.6 111.33 345.89 108.19 354.46 91.91 388.02 83.43 386.22 68.41 368.75 55.95 359.28 46.9 340.81 25.97 326.83 9.82 309.53 7.55 286.95 19.74 279.87 60.19 256.42 153.67 272.07"/><polygon class="cls-5" points="153.67 272.07 148.47 288.33 143.09 296.2 141.03 295.77 136.35 290.7 127.68 292.17 132.21 306.56 122.61 332.22 116.78 343.6 111.8 335.82 112.88 305.86 98.44 310.57 99.16 340.87 111.33 345.89 91.91 388.02 87.27 385.63 82.58 365.42 74.99 355.31 78.23 339.43 69.94 307.31 56.23 322.46 38.91 312.73 38.18 286.02 19.74 279.87 60.19 256.42 153.67 272.07"/><polygon class="cls-6" points="93.22 224.51 44.97 224.51 46.02 203.65 46.04 200.33 46.13 188.22 46.15 184.94 46.22 176.29 46.26 173.3 46.26 172.42 46.28 169.41 46.33 163.57 46.37 158.2 46.39 154.85 46.41 152.62 91.8 152.62 91.91 166.11 93.22 224.51"/><path class="cls-7" d="M75.47,233.15,68.89,233l.39,3.29h5.93Zm-1.26-6.6.24-2.88-5.94-.1.36,3ZM61.8,217.18l0,3.32h5.81l.27-3.21ZM72.28,217h5.81l.25-3.12-6.44-.11Zm2.8-8.61.26-3.1-6.39-.1.38,3.2Zm-13.17-6.63,0,3.28h4.55l.26-3.19ZM62,190.15l0,3h3.84l.24-2.93Zm0-3.89,0,3h2.47l.24-3Zm.11-14.56,0,3.35h5.22l.27-3.26Z" transform="translate(-15.76 -16.85)"/><polygon class="cls-8" points="86.4 168.29 88.85 224.51 82.71 224.51 78.3 168.86 46.33 163.57 46.41 152.62 91.8 152.62 91.91 166.11 86.4 168.29"/><polygon class="cls-9" points="93.5 224.27 44.7 224.27 39.94 226.27 98.26 226.27 93.5 224.27"/><polygon class="cls-10" points="100.34 252.06 38.55 252.06 39.95 226.28 98.27 226.28 100.34 252.06"/><polygon class="cls-8" points="95.25 252.06 84.57 252.06 82.86 226.28 91.32 226.28 95.25 252.06"/><polygon class="cls-11" points="99.99 249.91 38.78 250 32.84 256.05 105.64 256.05 99.99 249.91"/><g class="cls-12"><polygon class="cls-13" points="49.47 232.38 43.96 232.38 43.6 229.31 49.71 229.41 49.47 232.38"/></g><g class="cls-12"><polygon class="cls-13" points="74.47 241.12 68.86 241.12 68.49 237.99 74.72 238.1 74.47 241.12"/><polygon class="cls-13" points="61.99 244.75 56.06 244.75 55.66 241.45 62.25 241.56 61.99 244.75"/></g><path class="cls-14" d="M142.65,31.77c-3.14,1.86-7.08,1.72-10.68,1.11l-1.38-.24a57.28,57.28,0,0,0-9.35-1.37c-4-.11-7.74,1.53-11.58,2.55a19.21,19.21,0,0,1-4.22.72,10.4,10.4,0,0,1-7.21-1.85c-.18-.13-.35-.29-.5-.42A13.76,13.76,0,0,0,96,30.83a7,7,0,0,0-6-.35,18.79,18.79,0,0,0-5.07,3.06c-.07-3.43-.09-7-.13-10.47,2.86-1.33,6.29-2.77,9.46-2.93a9.59,9.59,0,0,1,5.86,1.66,6.28,6.28,0,0,1,2.07,2.47,5,5,0,0,0,1.27,2.19c.83.63,2,.39,3,.11l1.35-.4c4-1.28,7.93-3,12.09-3.64,3.47-.57,7.6-1,10.9.43.76.33,1.51.7,2.23,1.1a43.83,43.83,0,0,0,4.72,2.31,14.9,14.9,0,0,0,6.84.83C143,28.84,140,29,137.74,28.8a28,28,0,0,1-5.84-1.55l-.83-.27c-2.18-.7-5.18-.3-7.43.16a20.12,20.12,0,0,1,7.8,1.74c.64.24,1.23.53,1.8.81C136,31.14,139.62,32.53,142.65,31.77Z" transform="translate(-15.76 -16.85)"/><path class="cls-15" d="M107.82,26.17a37.86,37.86,0,0,0-2.38,8.37,10.4,10.4,0,0,1-7.21-1.85c-.18-.13-.35-.29-.5-.42a37.42,37.42,0,0,1,2.36-10.47,6.28,6.28,0,0,1,2.07,2.47,5,5,0,0,0,1.27,2.19c.83.63,2,.39,3,.11Z" transform="translate(-15.76 -16.85)"/><path class="cls-15" d="M142.65,31.77c-3.14,1.86-7.08,1.72-10.68,1.11l-1.38-.24c.24-1.26.53-2.51.85-3.76.64.24,1.23.53,1.8.81C136,31.14,139.62,32.53,142.65,31.77Z" transform="translate(-15.76 -16.85)"/><path class="cls-15" d="M137.74,28.8a28,28,0,0,1-5.84-1.55s0-.05,0-.07c.33-1.05.73-2.1,1.12-3.12a43.83,43.83,0,0,0,4.72,2.31,14.9,14.9,0,0,0,6.84.83C143,28.84,140,29,137.74,28.8Z" transform="translate(-15.76 -16.85)"/><polygon class="cls-16" points="97.82 146.51 40.38 146.51 38.56 114.32 99.63 114.32 97.82 146.51"/><g class="cls-12"><polygon class="cls-13" points="51.99 139.49 46.78 139.49 46.44 136.59 52.22 136.69 51.99 139.49"/><polygon class="cls-13" points="56.53 135.99 51.02 135.99 50.66 132.93 56.78 133.03 56.53 135.99"/><polygon class="cls-13" points="50.48 128.96 44.65 128.96 44.27 125.72 50.73 125.83 50.48 128.96"/></g><g class="cls-12"><polygon class="cls-13" points="73.86 133.95 68.2 133.95 67.82 130.8 74.11 130.91 73.86 133.95"/><polygon class="cls-13" points="80 122.48 74.63 122.48 74.27 119.49 80.24 119.59 80 122.48"/></g><polygon class="cls-8" points="90.93 122.84 90.42 132 94.38 133.79 92.81 134.9 90.25 135.08 89.59 146.51 82.45 146.51 80.83 134.81 77.55 134.62 76.29 133.9 80.55 132.85 79.06 122.27 67.59 120.72 65.82 134.9 60.14 134.9 58.45 133.9 64.92 120.35 52.31 118.69 51.31 134.9 44.14 133.9 50.33 118.43 38.68 116.9 38.53 114.3 99.56 114.32 99.23 119.98 90.93 122.84"/><polygon class="cls-17" points="101.5 110.91 101.24 114.32 36.95 114.32 36.71 110.91 101.5 110.91"/><polygon class="cls-18" points="100.06 146.51 99.82 149.91 38.4 149.91 38.16 146.51 100.06 146.51"/><polygon class="cls-19" points="96.59 149.91 96.39 152.36 41.8 152.36 41.61 149.91 96.59 149.91"/><path class="cls-20" d="M58.75,131.15,59.87,149h3.46l.91-17.87h1.23l-.82,19.59H59l-1.32-19.59Zm46,0,1.28,19.59h5.51l.79-19.59h-1.18L110.29,149H107l-1.08-17.87Zm-34,0,1.73,19.59h7.43L81,131.15h-1.6L78.22,149H73.7l-1.46-17.87Zm18.06,0,1.73,19.59H98l1.06-19.59H97.48L96.28,149H91.77l-1.46-17.87Z" transform="translate(-15.76 -16.85)"/><path class="cls-21" d="M120.63,126l-3.37,1.75H52.47L49.13,126A377,377,0,0,0,84.86,66.93,359.38,359.38,0,0,0,120.63,126Z" transform="translate(-15.76 -16.85)"/><path class="cls-22" d="M78.62,91.32A180.88,180.88,0,0,1,73.42,126H58.08c-1.12,0-2.2,0-3.31,0a142,142,0,0,0,20-35C76.28,90.87,77.12,91.44,78.62,91.32Z" transform="translate(-15.76 -16.85)"/><path class="cls-23" d="M83.28,61.58a102.3,102.3,0,0,1-9.49,26.13H95.74a161,161,0,0,1-8.93-26.13Z" transform="translate(-15.76 -16.85)"/><polygon class="cls-24" points="67.52 44.73 71.05 44.73 69.01 0 67.52 44.73"/><polygon class="cls-25" points="42.99 114.3 44.11 132.16 45.3 132.16 44.57 114.3 42.99 114.3"/><polygon class="cls-25" points="48.89 133.89 49.71 114.3 50.87 114.3 49.88 133.89 48.89 133.89"/><polygon class="cls-25" points="56.48 114.3 57.94 132.16 58.45 132.16 57.47 114.32 56.48 114.3"/><polygon class="cls-25" points="65.25 114.3 64.19 133.89 64.72 133.89 66.45 114.3 65.25 114.3"/><polygon class="cls-25" points="73.08 114.3 74.81 133.89 74.35 133.89 72.26 114.3 73.08 114.3"/><polygon class="cls-25" points="81.72 114.3 80.52 132.16 79.84 132.16 80.58 114.32 81.72 114.3"/><polygon class="cls-25" points="95.42 114.3 94.53 132.16 93.32 132.16 94.37 114.32 95.42 114.3"/><polygon class="cls-25" points="89.03 114.3 90.3 133.89 89.66 133.89 87.88 114.32 89.03 114.3"/><polygon class="cls-25" points="95.36 115.44 96.56 115.25 96.6 114.3 95.42 114.3 95.36 115.44"/><polygon class="cls-25" points="89.12 115.73 90.18 115.44 90.11 114.3 89.03 114.3 89.12 115.73"/><polygon class="cls-25" points="83.24 115.73 81.6 116.04 81.72 114.3 83.31 114.3 83.24 115.73"/><polygon class="cls-25" points="73.24 116.04 74.71 116.27 74.55 114.3 73.08 114.3 73.24 116.04"/><polygon class="cls-25" points="65.25 114.3 65.12 116.6 63.54 116.04 63.65 114.3 65.25 114.3"/><polygon class="cls-25" points="56.67 116.6 55.2 116.31 55.02 114.3 56.48 114.3 56.67 116.6"/><polygon class="cls-25" points="49.71 114.3 49.62 116.33 48.39 116.09 48.48 114.3 49.71 114.3"/><polygon class="cls-25" points="42.99 114.3 43.12 116.47 41.99 116.15 41.87 114.3 42.99 114.3"/><polygon class="cls-26" points="44.57 114.3 45.3 132.16 47.57 132.16 48.48 114.3 44.57 114.3"/><polygon class="cls-26" points="57.47 114.32 58.45 132.16 62.46 132.16 63.65 114.3 57.47 114.32"/><polygon class="cls-26" points="74.55 114.3 76.01 132.16 79.84 132.16 80.58 114.32 74.55 114.3"/><polygon class="cls-26" points="90.11 114.3 91.19 132.16 93.32 132.16 94.37 114.32 90.11 114.3"/><polygon class="cls-25" points="36.78 111.96 80.78 112.61 81.72 114.3 87.88 114.32 89.37 112.28 101.43 111.77 101.5 110.91 36.71 110.91 36.78 111.96"/><path class="cls-27" d="M83.28,63.11a87.11,87.11,0,0,1-7,23.57h5.89a117.64,117.64,0,0,0,2.56-23.57Z" transform="translate(-15.76 -16.85)"/><polygon class="cls-28" points="44.93 146.51 54.41 146.51 54.37 149.91 45.1 149.91 44.93 146.51"/><polygon class="cls-29" points="46.13 151.14 55.62 151.14 55.57 152.36 46.31 152.36 46.13 151.14"/><polygon class="cls-30" points="54.95 112.23 54.91 114.32 43.29 114.32 43.17 112.06 54.95 112.23"/><polygon class="cls-25" points="41.61 149.91 96.59 149.91 96.59 151.14 88.28 151.29 87.93 152.33 81.58 152.33 81.16 151.29 41.62 150.87 41.61 149.91"/><path class="cls-31" d="M108.08,163.1l-7.74,0H69.39c-5.16,0-10.32-.1-15.47.16h-.13v.12l.36,3.4L54,163.48c5.11.25,10.23.12,15.35.15h38.69l7.74-.26Z" transform="translate(-15.76 -16.85)"/><path class="cls-31" d="M64.65,150.74c-1.9,0-3.8.1-5.7.1h-.09v-.09c-.23-3.27-.53-6.53-.69-9.79s-.41-6.54-.53-9.81c.32,3.26.54,6.52.79,9.79s.43,6.53.63,9.8l-.1-.1C60.85,150.65,62.75,150.69,64.65,150.74Z" transform="translate(-15.76 -16.85)"/><path class="cls-31" d="M59.87,149l3.46-.09-.09.08c.14-3,.21-6,.4-8.93s.34-6,.6-8.93c0,3-.2,6-.31,8.94s-.35,5.95-.52,8.93v.08h-.08Z" transform="translate(-15.76 -16.85)"/><path class="cls-31" d="M70.68,131.17c.4,3.25.71,6.52,1,9.77s.62,6.53.9,9.79l-.11-.1c2.48,0,5,0,7.43.11-2.47.07-5,.1-7.43.11h-.1v-.1c-.34-3.26-.68-6.51-.94-9.78S70.88,134.44,70.68,131.17Z" transform="translate(-15.76 -16.85)"/><path class="cls-31" d="M73.7,149c1.51,0,3-.1,4.52-.1l-.1.09c.19-3,.3-6,.56-8.94s.43-5.95.73-8.92c-.09,3-.29,6-.46,8.94s-.43,6-.64,8.93v.09h-.09C76.71,149.11,75.21,149.06,73.7,149Z" transform="translate(-15.76 -16.85)"/><path class="cls-31" d="M105.87,131.15c.29,3,.46,5.95.68,8.92s.32,6,.48,8.94l-.08-.08,3.34.09-3.34.08h-.08V149c-.19-3-.45-6-.59-8.93S105.93,134.13,105.87,131.15Z" transform="translate(-15.76 -16.85)"/><path class="cls-31" d="M112.36,131.15c0,3.27-.16,6.54-.26,9.8s-.29,6.53-.43,9.8v.09h-.09c-1.84,0-3.67-.05-5.51-.1,1.84-.05,3.67-.09,5.51-.1l-.1.1c.12-3.27.17-6.54.36-9.8S112.12,134.41,112.36,131.15Z" transform="translate(-15.76 -16.85)"/><path class="cls-31" d="M90.31,131.15c.35,3,.58,5.95.86,8.92s.46,6,.69,8.94l-.09-.09c1.5,0,3,.05,4.51.1-1.5,0-3,.09-4.51.09h-.09V149c-.25-3-.58-5.94-.77-8.93S90.44,134.14,90.31,131.15Z" transform="translate(-15.76 -16.85)"/><path class="cls-31" d="M99.07,131.15c-.08,3.27-.25,6.54-.4,9.8s-.34,6.53-.55,9.8v.1H98c-2.48,0-5,0-7.44-.11,2.48-.07,5-.1,7.44-.11l-.11.11c.15-3.27.29-6.54.51-9.8S98.8,134.41,99.07,131.15Z" transform="translate(-15.76 -16.85)"/><path class="cls-15" d="M73.79,87.71H95.74l-2.93,1.48c2,13.1,6.48,25.4,12.41,37.66l-18.13.28c-1.76-11.68-2.35-25.21-2.51-37.94Z" transform="translate(-15.76 -16.85)"/><polygon class="cls-32" points="104.87 109.16 101.5 110.91 36.71 110.91 33.37 109.16 104.87 109.16"/><path class="cls-32" d="M68.8,99.35l.65,1a11.42,11.42,0,0,0,5.85.42c1.48-2.13,2.17-8.16,2.17-8.16Z" transform="translate(-15.76 -16.85)"/><path class="cls-33" d="M77.47,92.61a28,28,0,0,1-2.38,7.17,13.82,13.82,0,0,1-6.29-.43,21.65,21.65,0,0,0,4.2-6.9C74.42,92.49,76.05,92.57,77.47,92.61Z" transform="translate(-15.76 -16.85)"/><path class="cls-32" d="M59.41,110.43l.45.91a9.44,9.44,0,0,0,5.1.38c1.55-1.94,2.89-7.41,2.89-7.41Z" transform="translate(-15.76 -16.85)"/><path class="cls-34" d="M67.85,104.31a29.5,29.5,0,0,1-2.95,6.51,11.51,11.51,0,0,1-5.49-.39,24.52,24.52,0,0,0,4.88-6.17C65.53,104.29,66.61,104.28,67.85,104.31Z" transform="translate(-15.76 -16.85)"/><path class="cls-32" d="M71.06,119.48l.78,1.08a12.32,12.32,0,0,0,6.29.45c1.38-2.31,1.56-8.82,1.56-8.82Z" transform="translate(-15.76 -16.85)"/><path class="cls-35" d="M79.69,112.19a28.1,28.1,0,0,1-1.88,7.74,14.92,14.92,0,0,1-6.75-.45A21.12,21.12,0,0,0,74.91,112C76.42,112.06,78.17,112.15,79.69,112.19Z" transform="translate(-15.76 -16.85)"/><path class="cls-32" d="M70.61,113.89l.71,1a11.07,11.07,0,0,0,5.67.4c1.24-2.08,1.4-7.94,1.4-7.94Z" transform="translate(-15.76 -16.85)"/><path class="cls-36" d="M78.39,107.32a25.45,25.45,0,0,1-1.69,7,13.43,13.43,0,0,1-6.09-.41,18.92,18.92,0,0,0,3.47-6.73C75.45,107.2,77,107.28,78.39,107.32Z" transform="translate(-15.76 -16.85)"/><path class="cls-32" d="M117.51,120l-.59,1a14,14,0,0,1-6.56.55c-2-2.14-3.58-8.26-3.58-8.26Z" transform="translate(-15.76 -16.85)"/><path class="cls-37" d="M106.78,113.34a30.21,30.21,0,0,0,3.68,7.25,17,17,0,0,0,7.05-.58,26.81,26.81,0,0,1-6.15-6.83C109.76,113.26,108.37,113.27,106.78,113.34Z" transform="translate(-15.76 -16.85)"/><path class="cls-32" d="M108.18,112.13l-.54.91a12.14,12.14,0,0,1-5.72.42c-1.65-1.92-2.89-7.35-2.89-7.35Z" transform="translate(-15.76 -16.85)"/><path class="cls-38" d="M99,106.11a26.05,26.05,0,0,0,3,6.45,14.54,14.54,0,0,0,6.14-.43,22.08,22.08,0,0,1-4.77-6.21C102,106,100.42,106.06,99,106.11Z" transform="translate(-15.76 -16.85)"/><path class="cls-32" d="M101.87,96.58l-.4.78a7.53,7.53,0,0,1-4.16.38c-1.2-1.64-2.09-6.3-2.09-6.3Z" transform="translate(-15.76 -16.85)"/><path class="cls-39" d="M95.22,91.44A24.29,24.29,0,0,0,97.39,97a8.93,8.93,0,0,0,4.48-.38c-1.44-1.54-3.27-3.16-4.12-5.11C96.74,91.51,96.23,91.39,95.22,91.44Z" transform="translate(-15.76 -16.85)"/><path class="cls-25" d="M85.51,61.48c-.26,9.73-.39,18.71-.19,25.67l7,.09c-2.4-6.44-4.38-15.61-6.23-25.66Z" transform="translate(-15.76 -16.85)"/><path class="cls-25" d="M107.87,169l-.73,13.94h-2.9c0-6.33-.84-11.34-1.8-11.34s-1.77,5-1.82,11.34H96.56c-.08-6.33-1.26-11.34-2.71-11.34s-2.66,5-2.74,11.34H88.22c-.11-6.33-1.54-11.34-3.29-11.34s-3.19,5-3.3,11.34H77.39c-.08-6.33-1.26-11.34-2.71-11.34s-2.64,5-2.72,11.34H67.88c0-6.33-.84-11.34-1.8-11.34s-1.75,5-1.79,11.34H62.2L61.47,169Z" transform="translate(-15.76 -16.85)"/><path class="cls-40" d="M109.51,169l-.05.81-.74,13.13h-3.1c-.05-6.33-.9-11.34-1.93-11.34s-1.9,5-1.94,11.34H97.4a38.34,38.34,0,0,0-.68-7c-.52-2.64-1.33-4.33-2.23-4.33-1.57,0-2.84,5-2.92,11.34H88.88c-.13-6.33-1.84-11.34-3.94-11.34s-3.8,5-3.93,11.34H76.88c-.09-6.33-1.35-11.34-2.91-11.34s-2.81,5-2.9,11.34H66.7c0-6.33-.9-11.34-1.92-11.34-.73,0-1.36,2.49-1.69,6.21-.15,1.53-.22,3.28-.24,5.13H60.62l-.74-13.3,0-.64Z" transform="translate(-15.76 -16.85)"/><path class="cls-25" d="M109.51,169l-.05.81-8.7.31-.8,12.82H97.4a38.34,38.34,0,0,0-.68-7l-.22-5.68-36.62-.61,0-.64Z" transform="translate(-15.76 -16.85)"/><path class="cls-41" d="M69.8,169.8l-.17,13.11H66.7c0-6.33-.9-11.34-1.92-11.34-.73,0-1.36,2.49-1.69,6.21l-.61-8.11Z" transform="translate(-15.76 -16.85)"/><path class="cls-31" d="M66.7,182.91c-.16-1.95-.2-3.91-.46-5.85-.09-1-.2-1.94-.37-2.9a13.38,13.38,0,0,0-.35-1.42c-.15-.43-.26-1-.74-1.17.51.12.69.7.89,1.12a11.5,11.5,0,0,1,.4,1.42,29.12,29.12,0,0,1,.48,2.92A44.42,44.42,0,0,1,66.7,182.91Z" transform="translate(-15.76 -16.85)"/><path class="cls-31" d="M76.88,182.91a57.87,57.87,0,0,0-.65-6,19.89,19.89,0,0,0-.64-2.95,7.92,7.92,0,0,0-.56-1.39c-.23-.42-.53-.9-1.06-1,.54,0,.91.49,1.19.9a7.05,7.05,0,0,1,.63,1.4,20.05,20.05,0,0,1,.75,3A33.48,33.48,0,0,1,76.88,182.91Z" transform="translate(-15.76 -16.85)"/><path class="cls-31" d="M88.88,182.91a38.44,38.44,0,0,0-.89-6.24,14.84,14.84,0,0,0-.94-3,5.61,5.61,0,0,0-.82-1.32,1.85,1.85,0,0,0-1.29-.79c1.14,0,1.84,1.12,2.3,2a15.38,15.38,0,0,1,1.06,3A26.83,26.83,0,0,1,88.88,182.91Z" transform="translate(-15.76 -16.85)"/><path class="cls-31" d="M94.49,171.57c-.52.07-.83.55-1.06,1a8.11,8.11,0,0,0-.57,1.39,19.62,19.62,0,0,0-.64,2.95,57.58,57.58,0,0,0-.65,6,32.6,32.6,0,0,1,.34-6.08,20.18,20.18,0,0,1,.75-3,7.36,7.36,0,0,1,.64-1.4C93.58,172.05,94,171.58,94.49,171.57Z" transform="translate(-15.76 -16.85)"/><path class="cls-31" d="M103.69,171.57c-.48.16-.61.73-.75,1.16a9.81,9.81,0,0,0-.35,1.42c-.18,1-.29,1.93-.38,2.91-.26,1.94-.3,3.9-.46,5.85a41.39,41.39,0,0,1,.15-5.89,28.47,28.47,0,0,1,.48-2.91,12.22,12.22,0,0,1,.41-1.43C103,172.26,103.18,171.68,103.69,171.57Z" transform="translate(-15.76 -16.85)"/><path class="cls-42" d="M49.13,126c8.57-.25,17.15-.2,25.72-.31,8.57.08,17.15,0,25.72.22-8.57.25-17.14.21-25.72.32C66.28,126.16,57.7,126.23,49.13,126Z" transform="translate(-15.76 -16.85)"/><path class="cls-43" d="M48.6,272.9l5.87-6.12,0,.06L54.88,255l.56-11.86V243l.15-.06,4.76-2-.16.24,1.74-58.2.26.27H60.37v-.25L59.57,169l.29.25-2.27.24-.27,0,0-.27-.2-2.45.27.24H53.92l0-.24-.35-3.4,0-.29h2.63l-.26.28-1.82-32.19.26.25H52.47l0-.25-.24-3.41.14.22L49,126.25l-.28-.15.19-.24A329.25,329.25,0,0,0,69.21,95.28c3-5.32,6.2-10.57,8.44-16.25a122.64,122.64,0,0,0,5.4-17.51v0l1.73-44.72L83.52,61.58v.05a114.11,114.11,0,0,1-5.36,17.6c-2.27,5.73-5.46,11-8.48,16.32a328.92,328.92,0,0,1-20.33,30.62l-.09-.39,3.35,1.75.13.07v.14l.24,3.41-.27-.24h1.87v.25l1.82,32.19v.28H53.8l.26-.29.36,3.4-.26-.24h3.45l0,.25.2,2.44-.29-.24,2.27-.24.28,0V169l.79,13.94-.27-.25h1.86v.27l-1.74,58.21v.16l-.15.07-4.76,2,.16-.24L55.37,255l-.73,11.85v0l0,0Z" transform="translate(-15.76 -16.85)"/><path class="cls-44" d="M175.9,285.34c1.46,1.48,2.62,3.86,1.42,5.55-1.49,2.15-4.84,1-7.09-.31a45.78,45.78,0,0,1,3.4,26.05,100.84,100.84,0,0,0-10.12-23.3c-3.64.66-9.2,2.78-11,6-1.19-1.4-2.35-2.8-3.54-4.19a6.1,6.1,0,0,1-11.66-.79c-1.32,2.93-2.61,5.85-3.92,8.8a16.52,16.52,0,0,0-25.91-13.31c-3.58,6.89-7.19,13.8-10.77,20.71q-4.45-9.22-8.93-18.45c-1.42,2.55-2.82,5.09-4.22,7.62L72,294.14a29.17,29.17,0,0,0-3.44,12.21A54.24,54.24,0,0,1,57.84,290.7,14.28,14.28,0,0,0,54,299.84a11.07,11.07,0,0,1-3.78-7.36c-.67,0-1.35,0-2,.13-13.4,1.17-25.63,11.45-28.83,24.55-2.7-2.33-3.86-3.94-2-7a31.62,31.62,0,0,1,7.89-27.2c-3.33-1.63-6.19-2-9.5-3.6A34.59,34.59,0,0,1,35,275.54a32,32,0,0,1-9-10.28c3.06,1.78,6.09,3.58,9.14,5.37,2.06,1.2,1.51-1.45,3.75-2.25-.48-2.69-1-5.39-1.44-8.08,1.7,2.23,4.64,3.14,7.42,3.12a33.71,33.71,0,0,0,8.16-1.55,90.47,90.47,0,0,1,49.72,1.23c2.86-4.71,4.62-9.56,9.25-12.55-.85,2.94-1.68,5.89-2.53,8.84,2.78-1,5.56-1.95,8.34-2.95a3.12,3.12,0,0,1,2.07-.21,2.1,2.1,0,0,1,1,2.59,6.32,6.32,0,0,1-1.76,2.46c11-.34,22,3.54,31.27,9.71,1.45.95,2.87,2,4.22,3,7.42-3.71,14.76-5.81,22.56-8.61q-5.17,4.74-10.37,9.46a27.23,27.23,0,0,1,16.37,6,22.09,22.09,0,0,0-11.07-.43C172.59,282.5,174.43,283.88,175.9,285.34Z" transform="translate(-15.76 -16.85)"/><path class="cls-45" d="M93.28,267.26c13.56,0,27.22,3.69,38.43,11.4-1.16-2.71-2.33-5.45-3.5-8.16,3.16,1.74,6.3,3.48,9.46,5.21a11.4,11.4,0,0,0-5.24-7.12c6.57,2.35,13.21,5.28,19.95,7a18.14,18.14,0,0,0-1.91-4.64c-9.26-6.17-20.24-10.05-31.27-9.71a6.32,6.32,0,0,0,1.76-2.46,2.1,2.1,0,0,0-1-2.59,3.12,3.12,0,0,0-2.07.21c-2.78,1-5.56,2-8.34,2.95.85-2.95,1.68-5.9,2.53-8.84-4.63,3-6.39,7.84-9.25,12.55a90.47,90.47,0,0,0-49.72-1.23,33.71,33.71,0,0,1-8.16,1.55c-2.78,0-5.72-.89-7.42-3.12.49,2.69,1,5.39,1.44,8.08-2.24.8-1.69,3.45-3.75,2.25-3-1.79-6.08-3.59-9.14-5.37a32,32,0,0,0,9,10.28,34.59,34.59,0,0,0-19.23,3.78c3.31,1.61,6.17,2,9.5,3.6a31.62,31.62,0,0,0-7.89,27.2c-1.82,3.1-.66,4.71,2,7,3.2-13.1,15.43-23.38,28.83-24.55-.07,0,1.35-14.2,1.46-15.09.08-.63.35-1.44,1-1.42.4,0,.69.37.92.69l4.61,6.44a42.4,42.4,0,0,1,8.87-15.92,64.59,64.59,0,0,0,6.29,18.57A66.94,66.94,0,0,1,81,267.49a11.1,11.1,0,0,1,5.18,5.42A7.07,7.07,0,0,1,93.28,267.26Z" transform="translate(-15.76 -16.85)"/><polygon class="cls-46" points="38.91 312.73 28.08 317.06 9.82 309.53 25.97 326.83 41.07 327.88 56.23 322.46 38.91 312.73"/><polygon class="cls-47" points="111.8 335.82 99.16 340.87 111.33 345.89 116.78 343.6 111.8 335.82"/><polygon class="cls-48" points="55.95 359.28 74.99 355.31 82.58 365.42 68.41 368.75 55.95 359.28"/><path class="cls-49" d="M85.35,375.73c4.48,0,9.12,1,11.92,4.61-2.16-2.81-4.39-5.78-5-9.27s.77-5.75,1.59-9c.43-1.71.86-4.12,2.33-5.23,1.81-1.38,5.53-1.72,7.73-2-3,.36-8.31.56-10.45-2.08a5.76,5.76,0,0,1-.94-2.33C91.29,345,89.32,340,88,334.57a114.27,114.27,0,0,1,2.48,14.57c.17,1.62,1.17,5.33.49,6.82-.77,1.68-3.91,2.28-5.19,3.57A19.72,19.72,0,0,1,93,357.2c-1.36.16-2.35,7.72-2.45,8.73a12.11,12.11,0,0,1-1.25,4.95c-1.55,2.65-4,1.84-6.4,2.57-3.24,1-6.35,2.37-9.55,3.48a81,81,0,0,1,8.78-1.09C83.14,375.76,84.24,375.72,85.35,375.73Z" transform="translate(-15.76 -16.85)"/><path class="cls-50" d="M45.07,335.92c0-.27,0-.54,0-.8,0-1.19,3.86-2.57,4.72-2.8a9.48,9.48,0,0,1,5.46.12c4.56,1.22,8.91,2.43,13,4.84-2.86-1.67-5.89-3-8.63-4.88C56.15,330,53,323.66,57,320.09a12,12,0,0,1,5.3-2.23,33.67,33.67,0,0,1-5.68,0,2.12,2.12,0,0,1-1.21-.38c-1-.86-.5-4.25-.54-5.53a72.69,72.69,0,0,1-.33-7.66q-.77,9.83-1.52,19.63a13.05,13.05,0,0,1-.64,3.63c-1.17,3-4.57,4.75-7.83,4.86s-6.39-1.1-9.38-2.4-6.13-2.68-9.24-4a11.33,11.33,0,0,0,5,4.17,47.39,47.39,0,0,1,4.94,1.5C36.85,332.13,45.05,335.18,45.07,335.92Z" transform="translate(-15.76 -16.85)"/><path class="cls-51" d="M127,353.76l4.67,5.82a26,26,0,0,1-4-12.44,77.69,77.69,0,0,1,.35-13.2,40.51,40.51,0,0,1-.42,9.28,13.78,13.78,0,0,1-4.36,8,9.45,9.45,0,0,1,4.18-1.78c-.08,1.07-.16,2.15-.25,3.23-.06.88-7.87,3.33-8.92,4.05C121.12,355.81,124,354.76,127,353.76Z" transform="translate(-15.76 -16.85)"/></g></g></g></svg>