<svg id="layer_1" data-name="layer 1" xmlns="http://www.w3.org/2000/svg" xmlns:xlink="http://www.w3.org/1999/xlink" viewBox="0 0 11.24 28.05"><defs><style>.cls-1{fill:none;}.cls-2{clip-path:url(#clip-path);}.cls-3{clip-path:url(#clip-path-2);}.cls-4{fill:#ff673e;}.cls-5{fill:#ff9b50;}.cls-6{fill:#ffcc4d;}</style><clipPath id="clip-path" transform="translate(0.03 -0.06)"><rect class="cls-1" x="-1031.64" y="-385.35" width="1800" height="900"/></clipPath><clipPath id="clip-path-2" transform="translate(0.03 -0.06)"><rect class="cls-1" x="0.01" y="0.06" width="11.25" height="28.05" transform="translate(-0.17 0.07) rotate(-0.71)"/></clipPath></defs><g class="cls-2"><g class="cls-3"><path class="cls-4" d="M.61,17.44c.5,1.75,1.49,3.24,2,5,.15-.38.23-.77.35-1.17.77,1.51.63,3.65,1.68,5.13A10.43,10.43,0,0,0,6,28.11a12.26,12.26,0,0,1,1.15-3.75c1.14-2.91,1.46-2.61,2.13-3.85a17.15,17.15,0,0,0,1.9-7.5C11.3,9.69,11.4,1.65,7.29.38A3.73,3.73,0,0,0,3,1.34C1.69,2.67-.2,5.62,0,11.75A23.63,23.63,0,0,0,.61,17.44Z" transform="translate(0.03 -0.06)"/><path class="cls-5" d="M4.39,14a4.58,4.58,0,0,1,.76-1.47c0,3,1.14,5.69,1.19,8.57v-.18c.39-1.73,0-3.58.49-5.27s1.49-3.27,1.8-5.06C9,8.38,9.53,1.4,5.78,1.93l-.55-.1C.39,3.39,3.92,10.78,4.39,14Z" transform="translate(0.03 -0.06)"/><path class="cls-6" d="M6.44,10.76c0-1.41,2-9.5-.45-9.49C3.41.67,6.42,9.68,6.44,10.76Z" transform="translate(0.03 -0.06)"/></g></g></svg>